M48
;DRILL file {KiCad 5.0.1} date So 18 Nov 2018 18:29:44 CET
;FORMAT={-:-/ absolute / inch / decimal}
FMAT,2
INCH,TZ
T1C0.0157
T2C0.0354
T3C0.0394
%
G90
G05
M72
T1
X0.9784Y-1.1861
X0.9964Y-0.7541
X1.0174Y-1.2741
X1.0194Y-0.9541
X1.0204Y-1.2251
X1.0264Y-1.1741
X1.0993Y-1.5581
X1.1354Y-1.4751
X1.1424Y-1.2741
X1.1752Y-1.3761
X1.1995Y-0.8301
X1.2064Y-1.5217
X1.2064Y-1.5651
X1.2214Y-0.9021
X1.2314Y-1.3431
X1.2795Y-1.6941
X1.3374Y-1.5261
X1.3374Y-1.5731
X1.3544Y-1.1741
X1.3583Y-0.7541
X1.3584Y-1.2261
X1.3824Y-1.0451
X1.4413Y-1.4151
X1.4554Y-1.3738
X1.5013Y-2.0132
X1.5704Y-0.7541
X1.8324Y-1.7901
X1.8384Y-2.3901
X1.9724Y-1.6661
X2.0723Y-2.1812
X2.2734Y-1.2961
X2.3134Y-2.3291
X2.4344Y-0.7881
X2.5074Y-2.4691
X2.6334Y-2.0981
X2.6574Y-1.5891
T2
X0.8858Y-0.689
X0.8858Y-0.9843
X0.8858Y-1.2795
X0.8858Y-1.8701
X0.8858Y-2.4606
X1.1811Y-2.4606
X1.4764Y-0.689
X1.4764Y-1.2795
X1.4764Y-1.8701
X1.4764Y-2.4606
X2.0669Y-0.689
X2.0669Y-1.2795
X2.0669Y-1.8701
X2.0669Y-2.4606
X2.3622Y-0.689
X2.6575Y-0.689
X2.6575Y-1.2795
X2.6575Y-1.8701
X2.6575Y-2.1654
X2.6575Y-2.4606
T3
X0.8774Y-2.1491
X0.9774Y-2.1491
X0.8774Y-2.0091
X0.9774Y-2.0091
T0
M30
