G04 #@! TF.GenerationSoftware,KiCad,Pcbnew,5.0.1*
G04 #@! TF.CreationDate,2018-11-18T18:28:25+01:00*
G04 #@! TF.ProjectId,LED-Cube_MK3,4C45442D437562655F4D4B332E6B6963,rev?*
G04 #@! TF.SameCoordinates,Original*
G04 #@! TF.FileFunction,Legend,Top*
G04 #@! TF.FilePolarity,Positive*
%FSLAX46Y46*%
G04 Gerber Fmt 4.6, Leading zero omitted, Abs format (unit mm)*
G04 Created by KiCad (PCBNEW 5.0.1) date So 18 Nov 2018 18:28:25 CET*
%MOMM*%
%LPD*%
G01*
G04 APERTURE LIST*
%ADD10C,0.150000*%
%ADD11C,0.100000*%
%ADD12C,0.250000*%
%ADD13C,0.010000*%
%ADD14C,0.120000*%
G04 APERTURE END LIST*
D10*
X23328047Y-64536404D02*
X23328047Y-63736404D01*
X23328047Y-64041166D02*
X23404238Y-64003071D01*
X23556619Y-64003071D01*
X23632809Y-64041166D01*
X23670904Y-64079261D01*
X23709000Y-64155452D01*
X23709000Y-64384023D01*
X23670904Y-64460214D01*
X23632809Y-64498309D01*
X23556619Y-64536404D01*
X23404238Y-64536404D01*
X23328047Y-64498309D01*
X24051857Y-64536404D02*
X24051857Y-64003071D01*
X24051857Y-63736404D02*
X24013761Y-63774500D01*
X24051857Y-63812595D01*
X24089952Y-63774500D01*
X24051857Y-63736404D01*
X24051857Y-63812595D01*
X24432809Y-64003071D02*
X24432809Y-64536404D01*
X24432809Y-64079261D02*
X24470904Y-64041166D01*
X24547095Y-64003071D01*
X24661380Y-64003071D01*
X24737571Y-64041166D01*
X24775666Y-64117357D01*
X24775666Y-64536404D01*
X25499476Y-64536404D02*
X25499476Y-64117357D01*
X25461380Y-64041166D01*
X25385190Y-64003071D01*
X25232809Y-64003071D01*
X25156619Y-64041166D01*
X25499476Y-64498309D02*
X25423285Y-64536404D01*
X25232809Y-64536404D01*
X25156619Y-64498309D01*
X25118523Y-64422119D01*
X25118523Y-64345928D01*
X25156619Y-64269738D01*
X25232809Y-64231642D01*
X25423285Y-64231642D01*
X25499476Y-64193547D01*
X25880428Y-64536404D02*
X25880428Y-64003071D01*
X25880428Y-64155452D02*
X25918523Y-64079261D01*
X25956619Y-64041166D01*
X26032809Y-64003071D01*
X26109000Y-64003071D01*
X26299476Y-64003071D02*
X26489952Y-64536404D01*
X26680428Y-64003071D02*
X26489952Y-64536404D01*
X26413761Y-64726880D01*
X26375666Y-64764976D01*
X26299476Y-64803071D01*
X26985190Y-64231642D02*
X27594714Y-64231642D01*
X27975666Y-64536404D02*
X27975666Y-63736404D01*
X28051857Y-64231642D02*
X28280428Y-64536404D01*
X28280428Y-64003071D02*
X27975666Y-64307833D01*
X28623285Y-64536404D02*
X28623285Y-64003071D01*
X28623285Y-63736404D02*
X28585190Y-63774500D01*
X28623285Y-63812595D01*
X28661380Y-63774500D01*
X28623285Y-63736404D01*
X28623285Y-63812595D01*
X28889952Y-64003071D02*
X29194714Y-64003071D01*
X29004238Y-63736404D02*
X29004238Y-64422119D01*
X29042333Y-64498309D01*
X29118523Y-64536404D01*
X29194714Y-64536404D01*
X29804238Y-64498309D02*
X29728047Y-64536404D01*
X29575666Y-64536404D01*
X29499476Y-64498309D01*
X29461380Y-64460214D01*
X29423285Y-64384023D01*
X29423285Y-64155452D01*
X29461380Y-64079261D01*
X29499476Y-64041166D01*
X29575666Y-64003071D01*
X29728047Y-64003071D01*
X29804238Y-64041166D01*
X30147095Y-64536404D02*
X30147095Y-63736404D01*
X30489952Y-64536404D02*
X30489952Y-64117357D01*
X30451857Y-64041166D01*
X30375666Y-64003071D01*
X30261380Y-64003071D01*
X30185190Y-64041166D01*
X30147095Y-64079261D01*
X31175666Y-64498309D02*
X31099476Y-64536404D01*
X30947095Y-64536404D01*
X30870904Y-64498309D01*
X30832809Y-64422119D01*
X30832809Y-64117357D01*
X30870904Y-64041166D01*
X30947095Y-64003071D01*
X31099476Y-64003071D01*
X31175666Y-64041166D01*
X31213761Y-64117357D01*
X31213761Y-64193547D01*
X30832809Y-64269738D01*
X31556619Y-64003071D02*
X31556619Y-64536404D01*
X31556619Y-64079261D02*
X31594714Y-64041166D01*
X31670904Y-64003071D01*
X31785190Y-64003071D01*
X31861380Y-64041166D01*
X31899476Y-64117357D01*
X31899476Y-64536404D01*
X32280428Y-64460214D02*
X32318523Y-64498309D01*
X32280428Y-64536404D01*
X32242333Y-64498309D01*
X32280428Y-64460214D01*
X32280428Y-64536404D01*
X33004238Y-64536404D02*
X33004238Y-63736404D01*
X33004238Y-64498309D02*
X32928047Y-64536404D01*
X32775666Y-64536404D01*
X32699476Y-64498309D01*
X32661380Y-64460214D01*
X32623285Y-64384023D01*
X32623285Y-64155452D01*
X32661380Y-64079261D01*
X32699476Y-64041166D01*
X32775666Y-64003071D01*
X32928047Y-64003071D01*
X33004238Y-64041166D01*
X33689952Y-64498309D02*
X33613761Y-64536404D01*
X33461380Y-64536404D01*
X33385190Y-64498309D01*
X33347095Y-64422119D01*
X33347095Y-64117357D01*
X33385190Y-64041166D01*
X33461380Y-64003071D01*
X33613761Y-64003071D01*
X33689952Y-64041166D01*
X33728047Y-64117357D01*
X33728047Y-64193547D01*
X33347095Y-64269738D01*
D11*
X41223119Y-18486214D02*
X41185023Y-18524309D01*
X41070738Y-18562404D01*
X40994547Y-18562404D01*
X40880261Y-18524309D01*
X40804071Y-18448119D01*
X40765976Y-18371928D01*
X40727880Y-18219547D01*
X40727880Y-18105261D01*
X40765976Y-17952880D01*
X40804071Y-17876690D01*
X40880261Y-17800500D01*
X40994547Y-17762404D01*
X41070738Y-17762404D01*
X41185023Y-17800500D01*
X41223119Y-17838595D01*
X42023119Y-18486214D02*
X41985023Y-18524309D01*
X41870738Y-18562404D01*
X41794547Y-18562404D01*
X41680261Y-18524309D01*
X41604071Y-18448119D01*
X41565976Y-18371928D01*
X41527880Y-18219547D01*
X41527880Y-18105261D01*
X41565976Y-17952880D01*
X41604071Y-17876690D01*
X41680261Y-17800500D01*
X41794547Y-17762404D01*
X41870738Y-17762404D01*
X41985023Y-17800500D01*
X42023119Y-17838595D01*
X42365976Y-18257642D02*
X42975500Y-18257642D01*
X43623119Y-18143357D02*
X43737404Y-18181452D01*
X43775500Y-18219547D01*
X43813595Y-18295738D01*
X43813595Y-18410023D01*
X43775500Y-18486214D01*
X43737404Y-18524309D01*
X43661214Y-18562404D01*
X43356452Y-18562404D01*
X43356452Y-17762404D01*
X43623119Y-17762404D01*
X43699309Y-17800500D01*
X43737404Y-17838595D01*
X43775500Y-17914785D01*
X43775500Y-17990976D01*
X43737404Y-18067166D01*
X43699309Y-18105261D01*
X43623119Y-18143357D01*
X43356452Y-18143357D01*
X44308833Y-18181452D02*
X44308833Y-18562404D01*
X44042166Y-17762404D02*
X44308833Y-18181452D01*
X44575500Y-17762404D01*
X44842166Y-18257642D02*
X45451690Y-18257642D01*
X45794547Y-18524309D02*
X45908833Y-18562404D01*
X46099309Y-18562404D01*
X46175500Y-18524309D01*
X46213595Y-18486214D01*
X46251690Y-18410023D01*
X46251690Y-18333833D01*
X46213595Y-18257642D01*
X46175500Y-18219547D01*
X46099309Y-18181452D01*
X45946928Y-18143357D01*
X45870738Y-18105261D01*
X45832642Y-18067166D01*
X45794547Y-17990976D01*
X45794547Y-17914785D01*
X45832642Y-17838595D01*
X45870738Y-17800500D01*
X45946928Y-17762404D01*
X46137404Y-17762404D01*
X46251690Y-17800500D01*
X46556452Y-18333833D02*
X46937404Y-18333833D01*
X46480261Y-18562404D02*
X46746928Y-17762404D01*
X47013595Y-18562404D01*
X48232642Y-18029071D02*
X48232642Y-18562404D01*
X48042166Y-17724309D02*
X47851690Y-18295738D01*
X48346928Y-18295738D01*
X48651690Y-18486214D02*
X48689785Y-18524309D01*
X48651690Y-18562404D01*
X48613595Y-18524309D01*
X48651690Y-18486214D01*
X48651690Y-18562404D01*
X49185023Y-17762404D02*
X49261214Y-17762404D01*
X49337404Y-17800500D01*
X49375500Y-17838595D01*
X49413595Y-17914785D01*
X49451690Y-18067166D01*
X49451690Y-18257642D01*
X49413595Y-18410023D01*
X49375500Y-18486214D01*
X49337404Y-18524309D01*
X49261214Y-18562404D01*
X49185023Y-18562404D01*
X49108833Y-18524309D01*
X49070738Y-18486214D01*
X49032642Y-18410023D01*
X48994547Y-18257642D01*
X48994547Y-18067166D01*
X49032642Y-17914785D01*
X49070738Y-17838595D01*
X49108833Y-17800500D01*
X49185023Y-17762404D01*
X40689785Y-16822571D02*
X40880261Y-17355904D01*
X41070738Y-16822571D01*
X41794547Y-17355904D02*
X41337404Y-17355904D01*
X41565976Y-17355904D02*
X41565976Y-16555904D01*
X41489785Y-16670190D01*
X41413595Y-16746380D01*
X41337404Y-16784476D01*
X42137404Y-17279714D02*
X42175500Y-17317809D01*
X42137404Y-17355904D01*
X42099309Y-17317809D01*
X42137404Y-17279714D01*
X42137404Y-17355904D01*
X42670738Y-16555904D02*
X42746928Y-16555904D01*
X42823119Y-16594000D01*
X42861214Y-16632095D01*
X42899309Y-16708285D01*
X42937404Y-16860666D01*
X42937404Y-17051142D01*
X42899309Y-17203523D01*
X42861214Y-17279714D01*
X42823119Y-17317809D01*
X42746928Y-17355904D01*
X42670738Y-17355904D01*
X42594547Y-17317809D01*
X42556452Y-17279714D01*
X42518357Y-17203523D01*
X42480261Y-17051142D01*
X42480261Y-16860666D01*
X42518357Y-16708285D01*
X42556452Y-16632095D01*
X42594547Y-16594000D01*
X42670738Y-16555904D01*
D12*
X28599928Y-53379571D02*
X27885642Y-53379571D01*
X27885642Y-51879571D01*
X29099928Y-52593857D02*
X29599928Y-52593857D01*
X29814214Y-53379571D02*
X29099928Y-53379571D01*
X29099928Y-51879571D01*
X29814214Y-51879571D01*
X30457071Y-53379571D02*
X30457071Y-51879571D01*
X30814214Y-51879571D01*
X31028500Y-51951000D01*
X31171357Y-52093857D01*
X31242785Y-52236714D01*
X31314214Y-52522428D01*
X31314214Y-52736714D01*
X31242785Y-53022428D01*
X31171357Y-53165285D01*
X31028500Y-53308142D01*
X30814214Y-53379571D01*
X30457071Y-53379571D01*
X33957071Y-53236714D02*
X33885642Y-53308142D01*
X33671357Y-53379571D01*
X33528500Y-53379571D01*
X33314214Y-53308142D01*
X33171357Y-53165285D01*
X33099928Y-53022428D01*
X33028500Y-52736714D01*
X33028500Y-52522428D01*
X33099928Y-52236714D01*
X33171357Y-52093857D01*
X33314214Y-51951000D01*
X33528500Y-51879571D01*
X33671357Y-51879571D01*
X33885642Y-51951000D01*
X33957071Y-52022428D01*
X35242785Y-52379571D02*
X35242785Y-53379571D01*
X34599928Y-52379571D02*
X34599928Y-53165285D01*
X34671357Y-53308142D01*
X34814214Y-53379571D01*
X35028500Y-53379571D01*
X35171357Y-53308142D01*
X35242785Y-53236714D01*
X35957071Y-53379571D02*
X35957071Y-51879571D01*
X35957071Y-52451000D02*
X36099928Y-52379571D01*
X36385642Y-52379571D01*
X36528500Y-52451000D01*
X36599928Y-52522428D01*
X36671357Y-52665285D01*
X36671357Y-53093857D01*
X36599928Y-53236714D01*
X36528500Y-53308142D01*
X36385642Y-53379571D01*
X36099928Y-53379571D01*
X35957071Y-53308142D01*
X37885642Y-53308142D02*
X37742785Y-53379571D01*
X37457071Y-53379571D01*
X37314214Y-53308142D01*
X37242785Y-53165285D01*
X37242785Y-52593857D01*
X37314214Y-52451000D01*
X37457071Y-52379571D01*
X37742785Y-52379571D01*
X37885642Y-52451000D01*
X37957071Y-52593857D01*
X37957071Y-52736714D01*
X37242785Y-52879571D01*
X27885642Y-55879571D02*
X27885642Y-54379571D01*
X28385642Y-55451000D01*
X28885642Y-54379571D01*
X28885642Y-55879571D01*
X29599928Y-55879571D02*
X29599928Y-54379571D01*
X30457071Y-55879571D02*
X29814214Y-55022428D01*
X30457071Y-54379571D02*
X29599928Y-55236714D01*
X30957071Y-54379571D02*
X31885642Y-54379571D01*
X31385642Y-54951000D01*
X31599928Y-54951000D01*
X31742785Y-55022428D01*
X31814214Y-55093857D01*
X31885642Y-55236714D01*
X31885642Y-55593857D01*
X31814214Y-55736714D01*
X31742785Y-55808142D01*
X31599928Y-55879571D01*
X31171357Y-55879571D01*
X31028500Y-55808142D01*
X30957071Y-55736714D01*
D13*
G04 #@! TO.C,G\002A\002A\002A*
G36*
X29634705Y-42959240D02*
X29757969Y-42972165D01*
X29828350Y-42984572D01*
X29983152Y-43025914D01*
X30132674Y-43081978D01*
X30269287Y-43149683D01*
X30332040Y-43188037D01*
X30432081Y-43261276D01*
X30517695Y-43341232D01*
X30596065Y-43435109D01*
X30639183Y-43496027D01*
X30690044Y-43563324D01*
X30740065Y-43614205D01*
X30763102Y-43631750D01*
X30809953Y-43657390D01*
X30858077Y-43674962D01*
X30900718Y-43682800D01*
X30931118Y-43679241D01*
X30937818Y-43674796D01*
X30946324Y-43653024D01*
X30935191Y-43632880D01*
X30909476Y-43622095D01*
X30903103Y-43621741D01*
X30842478Y-43609327D01*
X30781735Y-43573024D01*
X30739141Y-43532619D01*
X30714571Y-43504348D01*
X30702876Y-43483886D01*
X30706167Y-43467018D01*
X30726556Y-43449528D01*
X30766154Y-43427198D01*
X30800909Y-43409264D01*
X30949487Y-43346102D01*
X31111867Y-43300442D01*
X31283081Y-43272616D01*
X31458161Y-43262955D01*
X31632140Y-43271792D01*
X31800050Y-43299459D01*
X31923472Y-43334276D01*
X32061153Y-43390242D01*
X32180717Y-43457115D01*
X32281509Y-43533276D01*
X32362874Y-43617107D01*
X32424155Y-43706988D01*
X32464697Y-43801301D01*
X32483845Y-43898426D01*
X32480943Y-43996745D01*
X32455334Y-44094638D01*
X32406364Y-44190486D01*
X32333377Y-44282670D01*
X32315072Y-44301280D01*
X32221482Y-44380053D01*
X32113915Y-44448572D01*
X31998825Y-44503733D01*
X31882664Y-44542433D01*
X31774369Y-44561366D01*
X31725375Y-44566193D01*
X31696610Y-44571749D01*
X31682889Y-44579849D01*
X31679026Y-44592308D01*
X31678976Y-44594750D01*
X31682610Y-44610014D01*
X31697541Y-44618543D01*
X31729813Y-44622985D01*
X31745751Y-44624033D01*
X31812526Y-44627877D01*
X31812526Y-44944525D01*
X31875412Y-44944525D01*
X31924446Y-44948905D01*
X31959627Y-44964113D01*
X31971254Y-44973143D01*
X32004211Y-45001761D01*
X31952090Y-45942973D01*
X31941622Y-46130191D01*
X31932266Y-46293399D01*
X31923922Y-46433998D01*
X31916486Y-46553386D01*
X31909858Y-46652964D01*
X31903937Y-46734130D01*
X31898620Y-46798286D01*
X31893807Y-46846829D01*
X31889395Y-46881161D01*
X31885283Y-46902680D01*
X31881782Y-46912208D01*
X31855726Y-46934742D01*
X31822162Y-46946946D01*
X31783398Y-46951597D01*
X31723314Y-46956734D01*
X31646017Y-46962131D01*
X31555615Y-46967562D01*
X31456214Y-46972802D01*
X31351923Y-46977623D01*
X31246848Y-46981801D01*
X31145098Y-46985108D01*
X31112977Y-46985970D01*
X30956369Y-46989815D01*
X30821080Y-46992857D01*
X30703004Y-46995116D01*
X30598034Y-46996617D01*
X30502066Y-46997382D01*
X30410992Y-46997433D01*
X30320707Y-46996794D01*
X30227105Y-46995487D01*
X30126080Y-46993535D01*
X30050934Y-46991848D01*
X29904792Y-46987920D01*
X29764954Y-46983174D01*
X29633814Y-46977751D01*
X29513766Y-46971796D01*
X29407205Y-46965449D01*
X29316524Y-46958853D01*
X29244119Y-46952151D01*
X29192383Y-46945486D01*
X29163862Y-46939058D01*
X29134504Y-46918263D01*
X29117725Y-46879995D01*
X29117601Y-46879496D01*
X29114983Y-46859109D01*
X29111188Y-46815547D01*
X29106359Y-46751039D01*
X29100640Y-46667813D01*
X29094173Y-46568098D01*
X29087102Y-46454124D01*
X29079568Y-46328119D01*
X29074826Y-46246088D01*
X29866507Y-46246088D01*
X29866645Y-46354159D01*
X29867163Y-46439639D01*
X29868211Y-46505372D01*
X29869944Y-46554205D01*
X29872513Y-46588983D01*
X29876072Y-46612552D01*
X29880773Y-46627756D01*
X29886769Y-46637442D01*
X29887557Y-46638341D01*
X29901601Y-46649470D01*
X29922939Y-46656458D01*
X29957010Y-46660184D01*
X30009257Y-46661529D01*
X30031395Y-46661600D01*
X30101137Y-46659904D01*
X30148479Y-46654584D01*
X30176246Y-46645295D01*
X30178873Y-46643555D01*
X30184602Y-46638488D01*
X30189391Y-46630929D01*
X30193341Y-46618679D01*
X30196553Y-46599537D01*
X30199127Y-46571302D01*
X30201165Y-46531776D01*
X30202767Y-46478756D01*
X30204034Y-46410044D01*
X30205067Y-46323438D01*
X30205968Y-46216739D01*
X30206835Y-46087746D01*
X30207223Y-46025033D01*
X30207255Y-46019287D01*
X30497609Y-46019287D01*
X30502356Y-46134604D01*
X30518134Y-46234580D01*
X30546758Y-46327585D01*
X30581219Y-46404778D01*
X30616391Y-46461951D01*
X30662579Y-46519037D01*
X30714094Y-46570348D01*
X30765245Y-46610197D01*
X30809070Y-46632499D01*
X30894739Y-46647559D01*
X30980278Y-46639767D01*
X31045827Y-46616472D01*
X31124968Y-46563343D01*
X31192859Y-46490470D01*
X31248732Y-46401287D01*
X31291817Y-46299232D01*
X31321346Y-46187737D01*
X31336550Y-46070238D01*
X31336660Y-45950170D01*
X31320908Y-45830969D01*
X31288524Y-45716068D01*
X31261623Y-45652344D01*
X31209898Y-45560444D01*
X31152357Y-45489841D01*
X31085484Y-45436497D01*
X31061048Y-45422145D01*
X30979894Y-45390956D01*
X30898466Y-45384806D01*
X30818276Y-45403356D01*
X30740836Y-45446269D01*
X30671418Y-45509049D01*
X30599282Y-45604500D01*
X30546861Y-45712074D01*
X30513513Y-45833654D01*
X30498596Y-45971126D01*
X30497609Y-46019287D01*
X30207255Y-46019287D01*
X30208016Y-45885052D01*
X30208497Y-45768305D01*
X30208602Y-45672590D01*
X30208268Y-45595705D01*
X30207433Y-45535446D01*
X30206033Y-45489611D01*
X30204006Y-45455997D01*
X30201287Y-45432402D01*
X30197815Y-45416623D01*
X30193526Y-45406458D01*
X30189353Y-45400764D01*
X30175457Y-45389486D01*
X30154852Y-45382374D01*
X30122077Y-45378538D01*
X30071674Y-45377086D01*
X30043511Y-45376974D01*
X29977740Y-45378280D01*
X29933760Y-45382498D01*
X29908041Y-45390071D01*
X29901262Y-45394912D01*
X29893435Y-45415813D01*
X29886555Y-45461531D01*
X29880645Y-45531462D01*
X29875730Y-45625002D01*
X29871835Y-45741547D01*
X29868984Y-45880491D01*
X29867203Y-46041232D01*
X29866515Y-46223164D01*
X29866507Y-46246088D01*
X29074826Y-46246088D01*
X29071717Y-46192312D01*
X29063689Y-46048931D01*
X29059981Y-45981130D01*
X29051968Y-45834561D01*
X29044182Y-45694188D01*
X29036757Y-45562287D01*
X29029825Y-45441131D01*
X29023520Y-45332997D01*
X29017975Y-45240158D01*
X29013324Y-45164889D01*
X29009700Y-45109467D01*
X29007236Y-45076164D01*
X29006550Y-45069077D01*
X29003931Y-45029623D01*
X29010082Y-45003833D01*
X29028039Y-44980590D01*
X29031710Y-44976864D01*
X29054539Y-44958067D01*
X29080713Y-44948267D01*
X29119346Y-44944766D01*
X29140941Y-44944525D01*
X29217834Y-44944525D01*
X29217834Y-44696008D01*
X29314325Y-44700881D01*
X29371221Y-44701694D01*
X29409850Y-44697807D01*
X29424981Y-44691589D01*
X29433044Y-44677517D01*
X29424489Y-44666048D01*
X29397104Y-44656398D01*
X29348679Y-44647785D01*
X29278124Y-44639537D01*
X29097643Y-44611858D01*
X28929215Y-44567202D01*
X28774569Y-44506574D01*
X28635434Y-44430972D01*
X28513538Y-44341401D01*
X28410610Y-44238860D01*
X28328379Y-44124351D01*
X28300525Y-44073122D01*
X28275718Y-44021396D01*
X28259664Y-43980969D01*
X28250087Y-43942700D01*
X28244713Y-43897449D01*
X28241269Y-43836074D01*
X28241208Y-43834718D01*
X28239199Y-43770690D01*
X28240546Y-43723141D01*
X28246275Y-43683222D01*
X28257414Y-43642079D01*
X28266806Y-43614033D01*
X28321862Y-43493883D01*
X28399650Y-43382523D01*
X28498652Y-43281061D01*
X28617349Y-43190608D01*
X28754223Y-43112271D01*
X28907753Y-43047160D01*
X29076423Y-42996384D01*
X29129125Y-42984247D01*
X29240397Y-42966481D01*
X29367418Y-42956394D01*
X29501687Y-42953982D01*
X29634705Y-42959240D01*
X29634705Y-42959240D01*
G37*
X29634705Y-42959240D02*
X29757969Y-42972165D01*
X29828350Y-42984572D01*
X29983152Y-43025914D01*
X30132674Y-43081978D01*
X30269287Y-43149683D01*
X30332040Y-43188037D01*
X30432081Y-43261276D01*
X30517695Y-43341232D01*
X30596065Y-43435109D01*
X30639183Y-43496027D01*
X30690044Y-43563324D01*
X30740065Y-43614205D01*
X30763102Y-43631750D01*
X30809953Y-43657390D01*
X30858077Y-43674962D01*
X30900718Y-43682800D01*
X30931118Y-43679241D01*
X30937818Y-43674796D01*
X30946324Y-43653024D01*
X30935191Y-43632880D01*
X30909476Y-43622095D01*
X30903103Y-43621741D01*
X30842478Y-43609327D01*
X30781735Y-43573024D01*
X30739141Y-43532619D01*
X30714571Y-43504348D01*
X30702876Y-43483886D01*
X30706167Y-43467018D01*
X30726556Y-43449528D01*
X30766154Y-43427198D01*
X30800909Y-43409264D01*
X30949487Y-43346102D01*
X31111867Y-43300442D01*
X31283081Y-43272616D01*
X31458161Y-43262955D01*
X31632140Y-43271792D01*
X31800050Y-43299459D01*
X31923472Y-43334276D01*
X32061153Y-43390242D01*
X32180717Y-43457115D01*
X32281509Y-43533276D01*
X32362874Y-43617107D01*
X32424155Y-43706988D01*
X32464697Y-43801301D01*
X32483845Y-43898426D01*
X32480943Y-43996745D01*
X32455334Y-44094638D01*
X32406364Y-44190486D01*
X32333377Y-44282670D01*
X32315072Y-44301280D01*
X32221482Y-44380053D01*
X32113915Y-44448572D01*
X31998825Y-44503733D01*
X31882664Y-44542433D01*
X31774369Y-44561366D01*
X31725375Y-44566193D01*
X31696610Y-44571749D01*
X31682889Y-44579849D01*
X31679026Y-44592308D01*
X31678976Y-44594750D01*
X31682610Y-44610014D01*
X31697541Y-44618543D01*
X31729813Y-44622985D01*
X31745751Y-44624033D01*
X31812526Y-44627877D01*
X31812526Y-44944525D01*
X31875412Y-44944525D01*
X31924446Y-44948905D01*
X31959627Y-44964113D01*
X31971254Y-44973143D01*
X32004211Y-45001761D01*
X31952090Y-45942973D01*
X31941622Y-46130191D01*
X31932266Y-46293399D01*
X31923922Y-46433998D01*
X31916486Y-46553386D01*
X31909858Y-46652964D01*
X31903937Y-46734130D01*
X31898620Y-46798286D01*
X31893807Y-46846829D01*
X31889395Y-46881161D01*
X31885283Y-46902680D01*
X31881782Y-46912208D01*
X31855726Y-46934742D01*
X31822162Y-46946946D01*
X31783398Y-46951597D01*
X31723314Y-46956734D01*
X31646017Y-46962131D01*
X31555615Y-46967562D01*
X31456214Y-46972802D01*
X31351923Y-46977623D01*
X31246848Y-46981801D01*
X31145098Y-46985108D01*
X31112977Y-46985970D01*
X30956369Y-46989815D01*
X30821080Y-46992857D01*
X30703004Y-46995116D01*
X30598034Y-46996617D01*
X30502066Y-46997382D01*
X30410992Y-46997433D01*
X30320707Y-46996794D01*
X30227105Y-46995487D01*
X30126080Y-46993535D01*
X30050934Y-46991848D01*
X29904792Y-46987920D01*
X29764954Y-46983174D01*
X29633814Y-46977751D01*
X29513766Y-46971796D01*
X29407205Y-46965449D01*
X29316524Y-46958853D01*
X29244119Y-46952151D01*
X29192383Y-46945486D01*
X29163862Y-46939058D01*
X29134504Y-46918263D01*
X29117725Y-46879995D01*
X29117601Y-46879496D01*
X29114983Y-46859109D01*
X29111188Y-46815547D01*
X29106359Y-46751039D01*
X29100640Y-46667813D01*
X29094173Y-46568098D01*
X29087102Y-46454124D01*
X29079568Y-46328119D01*
X29074826Y-46246088D01*
X29866507Y-46246088D01*
X29866645Y-46354159D01*
X29867163Y-46439639D01*
X29868211Y-46505372D01*
X29869944Y-46554205D01*
X29872513Y-46588983D01*
X29876072Y-46612552D01*
X29880773Y-46627756D01*
X29886769Y-46637442D01*
X29887557Y-46638341D01*
X29901601Y-46649470D01*
X29922939Y-46656458D01*
X29957010Y-46660184D01*
X30009257Y-46661529D01*
X30031395Y-46661600D01*
X30101137Y-46659904D01*
X30148479Y-46654584D01*
X30176246Y-46645295D01*
X30178873Y-46643555D01*
X30184602Y-46638488D01*
X30189391Y-46630929D01*
X30193341Y-46618679D01*
X30196553Y-46599537D01*
X30199127Y-46571302D01*
X30201165Y-46531776D01*
X30202767Y-46478756D01*
X30204034Y-46410044D01*
X30205067Y-46323438D01*
X30205968Y-46216739D01*
X30206835Y-46087746D01*
X30207223Y-46025033D01*
X30207255Y-46019287D01*
X30497609Y-46019287D01*
X30502356Y-46134604D01*
X30518134Y-46234580D01*
X30546758Y-46327585D01*
X30581219Y-46404778D01*
X30616391Y-46461951D01*
X30662579Y-46519037D01*
X30714094Y-46570348D01*
X30765245Y-46610197D01*
X30809070Y-46632499D01*
X30894739Y-46647559D01*
X30980278Y-46639767D01*
X31045827Y-46616472D01*
X31124968Y-46563343D01*
X31192859Y-46490470D01*
X31248732Y-46401287D01*
X31291817Y-46299232D01*
X31321346Y-46187737D01*
X31336550Y-46070238D01*
X31336660Y-45950170D01*
X31320908Y-45830969D01*
X31288524Y-45716068D01*
X31261623Y-45652344D01*
X31209898Y-45560444D01*
X31152357Y-45489841D01*
X31085484Y-45436497D01*
X31061048Y-45422145D01*
X30979894Y-45390956D01*
X30898466Y-45384806D01*
X30818276Y-45403356D01*
X30740836Y-45446269D01*
X30671418Y-45509049D01*
X30599282Y-45604500D01*
X30546861Y-45712074D01*
X30513513Y-45833654D01*
X30498596Y-45971126D01*
X30497609Y-46019287D01*
X30207255Y-46019287D01*
X30208016Y-45885052D01*
X30208497Y-45768305D01*
X30208602Y-45672590D01*
X30208268Y-45595705D01*
X30207433Y-45535446D01*
X30206033Y-45489611D01*
X30204006Y-45455997D01*
X30201287Y-45432402D01*
X30197815Y-45416623D01*
X30193526Y-45406458D01*
X30189353Y-45400764D01*
X30175457Y-45389486D01*
X30154852Y-45382374D01*
X30122077Y-45378538D01*
X30071674Y-45377086D01*
X30043511Y-45376974D01*
X29977740Y-45378280D01*
X29933760Y-45382498D01*
X29908041Y-45390071D01*
X29901262Y-45394912D01*
X29893435Y-45415813D01*
X29886555Y-45461531D01*
X29880645Y-45531462D01*
X29875730Y-45625002D01*
X29871835Y-45741547D01*
X29868984Y-45880491D01*
X29867203Y-46041232D01*
X29866515Y-46223164D01*
X29866507Y-46246088D01*
X29074826Y-46246088D01*
X29071717Y-46192312D01*
X29063689Y-46048931D01*
X29059981Y-45981130D01*
X29051968Y-45834561D01*
X29044182Y-45694188D01*
X29036757Y-45562287D01*
X29029825Y-45441131D01*
X29023520Y-45332997D01*
X29017975Y-45240158D01*
X29013324Y-45164889D01*
X29009700Y-45109467D01*
X29007236Y-45076164D01*
X29006550Y-45069077D01*
X29003931Y-45029623D01*
X29010082Y-45003833D01*
X29028039Y-44980590D01*
X29031710Y-44976864D01*
X29054539Y-44958067D01*
X29080713Y-44948267D01*
X29119346Y-44944766D01*
X29140941Y-44944525D01*
X29217834Y-44944525D01*
X29217834Y-44696008D01*
X29314325Y-44700881D01*
X29371221Y-44701694D01*
X29409850Y-44697807D01*
X29424981Y-44691589D01*
X29433044Y-44677517D01*
X29424489Y-44666048D01*
X29397104Y-44656398D01*
X29348679Y-44647785D01*
X29278124Y-44639537D01*
X29097643Y-44611858D01*
X28929215Y-44567202D01*
X28774569Y-44506574D01*
X28635434Y-44430972D01*
X28513538Y-44341401D01*
X28410610Y-44238860D01*
X28328379Y-44124351D01*
X28300525Y-44073122D01*
X28275718Y-44021396D01*
X28259664Y-43980969D01*
X28250087Y-43942700D01*
X28244713Y-43897449D01*
X28241269Y-43836074D01*
X28241208Y-43834718D01*
X28239199Y-43770690D01*
X28240546Y-43723141D01*
X28246275Y-43683222D01*
X28257414Y-43642079D01*
X28266806Y-43614033D01*
X28321862Y-43493883D01*
X28399650Y-43382523D01*
X28498652Y-43281061D01*
X28617349Y-43190608D01*
X28754223Y-43112271D01*
X28907753Y-43047160D01*
X29076423Y-42996384D01*
X29129125Y-42984247D01*
X29240397Y-42966481D01*
X29367418Y-42956394D01*
X29501687Y-42953982D01*
X29634705Y-42959240D01*
G36*
X27260368Y-46548847D02*
X27279603Y-46550887D01*
X27302545Y-46555571D01*
X27331371Y-46563668D01*
X27368264Y-46575947D01*
X27415404Y-46593177D01*
X27474971Y-46616126D01*
X27549144Y-46645565D01*
X27640105Y-46682261D01*
X27750034Y-46726984D01*
X27881112Y-46780503D01*
X27895086Y-46786213D01*
X28024261Y-46838986D01*
X28157206Y-46893285D01*
X28289873Y-46947457D01*
X28418214Y-46999849D01*
X28538181Y-47048810D01*
X28645726Y-47092688D01*
X28736800Y-47129828D01*
X28791745Y-47152221D01*
X28874873Y-47186295D01*
X28950617Y-47217739D01*
X29015652Y-47245140D01*
X29066655Y-47267086D01*
X29100303Y-47282167D01*
X29112902Y-47288626D01*
X29126783Y-47310836D01*
X29128800Y-47323419D01*
X29139023Y-47347634D01*
X29164148Y-47375121D01*
X29195863Y-47398756D01*
X29225855Y-47411413D01*
X29232161Y-47412026D01*
X29261020Y-47406283D01*
X29294895Y-47392561D01*
X29329098Y-47380409D01*
X29356326Y-47385844D01*
X29357567Y-47386493D01*
X29390774Y-47414772D01*
X29406107Y-47455615D01*
X29403666Y-47510751D01*
X29383552Y-47581909D01*
X29370829Y-47614644D01*
X29333038Y-47706288D01*
X29399447Y-47735158D01*
X29426497Y-47746586D01*
X29473968Y-47766280D01*
X29538710Y-47792948D01*
X29617571Y-47825297D01*
X29707398Y-47862033D01*
X29805040Y-47901864D01*
X29901159Y-47940981D01*
X29999890Y-47981306D01*
X30090791Y-48018798D01*
X30171259Y-48052357D01*
X30238691Y-48080880D01*
X30290485Y-48103267D01*
X30324037Y-48118416D01*
X30336745Y-48125224D01*
X30336788Y-48125338D01*
X30326010Y-48133124D01*
X30296678Y-48148230D01*
X30253730Y-48168220D01*
X30218857Y-48183537D01*
X30100600Y-48234332D01*
X29687835Y-48064851D01*
X29591472Y-48025487D01*
X29502529Y-47989545D01*
X29423748Y-47958103D01*
X29357866Y-47932236D01*
X29307625Y-47913022D01*
X29275765Y-47901538D01*
X29265133Y-47898672D01*
X29255875Y-47911094D01*
X29239771Y-47941366D01*
X29219741Y-47983847D01*
X29211887Y-48001601D01*
X29189265Y-48049593D01*
X29167178Y-48089641D01*
X29149476Y-48114947D01*
X29145510Y-48118715D01*
X29113985Y-48133028D01*
X29077164Y-48136904D01*
X29043101Y-48131316D01*
X29019853Y-48117236D01*
X29014329Y-48102877D01*
X29005892Y-48082615D01*
X28984876Y-48055137D01*
X28977150Y-48047002D01*
X28933486Y-48016845D01*
X28885986Y-48011403D01*
X28844030Y-48024214D01*
X28839239Y-48026898D01*
X28835324Y-48029402D01*
X28830889Y-48031187D01*
X28824539Y-48031716D01*
X28814877Y-48030449D01*
X28800508Y-48026848D01*
X28780037Y-48020374D01*
X28752068Y-48010489D01*
X28715205Y-47996655D01*
X28668052Y-47978332D01*
X28609214Y-47954983D01*
X28537295Y-47926069D01*
X28450900Y-47891051D01*
X28348633Y-47849390D01*
X28229098Y-47800549D01*
X28090899Y-47743989D01*
X27932642Y-47679170D01*
X27752929Y-47605556D01*
X27653686Y-47564911D01*
X27487649Y-47496579D01*
X27345016Y-47437147D01*
X27225420Y-47386455D01*
X27128495Y-47344342D01*
X27053876Y-47310648D01*
X27001194Y-47285212D01*
X26970085Y-47267874D01*
X26962511Y-47262196D01*
X26927393Y-47220997D01*
X26898778Y-47173200D01*
X26881413Y-47127721D01*
X26881325Y-47127033D01*
X27151319Y-47127033D01*
X27156989Y-47144353D01*
X27170204Y-47151844D01*
X27204759Y-47167903D01*
X27258398Y-47191601D01*
X27328861Y-47222010D01*
X27413892Y-47258200D01*
X27511231Y-47299244D01*
X27618621Y-47344214D01*
X27733804Y-47392180D01*
X27854521Y-47442213D01*
X27978515Y-47493387D01*
X28103526Y-47544771D01*
X28227299Y-47595439D01*
X28347573Y-47644460D01*
X28462092Y-47690906D01*
X28568596Y-47733850D01*
X28664828Y-47772362D01*
X28748531Y-47805515D01*
X28817445Y-47832379D01*
X28869312Y-47852026D01*
X28901875Y-47863527D01*
X28912576Y-47866231D01*
X28927521Y-47852674D01*
X28931655Y-47832642D01*
X28930473Y-47826371D01*
X28925880Y-47819480D01*
X28916301Y-47811270D01*
X28900161Y-47801041D01*
X28875887Y-47788093D01*
X28841904Y-47771726D01*
X28796638Y-47751240D01*
X28738515Y-47725935D01*
X28665960Y-47695111D01*
X28577399Y-47658069D01*
X28471259Y-47614108D01*
X28345965Y-47562528D01*
X28199942Y-47502630D01*
X28066757Y-47448094D01*
X27925796Y-47390515D01*
X27791415Y-47335844D01*
X27665511Y-47284839D01*
X27549979Y-47238258D01*
X27446716Y-47196857D01*
X27357618Y-47161396D01*
X27284580Y-47132632D01*
X27229498Y-47111322D01*
X27194270Y-47098225D01*
X27180962Y-47094079D01*
X27158704Y-47104022D01*
X27151319Y-47127033D01*
X26881325Y-47127033D01*
X26878389Y-47104095D01*
X26883418Y-47083715D01*
X26896926Y-47044051D01*
X26917375Y-46989206D01*
X26943233Y-46923280D01*
X26972962Y-46850376D01*
X26974411Y-46846893D01*
X27093748Y-46846893D01*
X27101251Y-46871776D01*
X27122386Y-46876482D01*
X27155092Y-46860857D01*
X27166592Y-46852387D01*
X27207484Y-46832680D01*
X27246524Y-46826948D01*
X27260701Y-46829094D01*
X27285057Y-46835800D01*
X27320607Y-46847467D01*
X27368367Y-46864499D01*
X27429353Y-46887297D01*
X27504582Y-46916263D01*
X27595069Y-46951800D01*
X27701830Y-46994310D01*
X27825881Y-47044196D01*
X27968237Y-47101858D01*
X28129916Y-47167700D01*
X28311932Y-47242124D01*
X28515302Y-47325532D01*
X28741042Y-47418326D01*
X28759947Y-47426105D01*
X28838580Y-47458009D01*
X28910021Y-47486137D01*
X28970713Y-47509156D01*
X29017095Y-47525734D01*
X29045607Y-47534539D01*
X29052486Y-47535572D01*
X29067421Y-47522014D01*
X29071565Y-47502132D01*
X29070188Y-47494491D01*
X29064750Y-47486372D01*
X29053284Y-47476862D01*
X29033827Y-47465047D01*
X29004412Y-47450015D01*
X28963077Y-47430852D01*
X28907855Y-47406646D01*
X28836782Y-47376484D01*
X28747893Y-47339451D01*
X28639223Y-47294635D01*
X28518285Y-47245007D01*
X28322536Y-47164797D01*
X28148908Y-47093703D01*
X27995987Y-47031183D01*
X27862358Y-46976697D01*
X27746609Y-46929702D01*
X27647325Y-46889658D01*
X27563094Y-46856023D01*
X27492500Y-46828257D01*
X27434132Y-46805818D01*
X27386574Y-46788165D01*
X27348414Y-46774756D01*
X27318237Y-46765052D01*
X27294630Y-46758509D01*
X27276180Y-46754588D01*
X27261472Y-46752746D01*
X27249094Y-46752443D01*
X27237631Y-46753138D01*
X27234293Y-46753447D01*
X27179196Y-46765464D01*
X27133822Y-46787942D01*
X27103574Y-46817290D01*
X27093748Y-46846893D01*
X26974411Y-46846893D01*
X26976962Y-46840765D01*
X27014557Y-46751752D01*
X27045227Y-46683521D01*
X27071410Y-46633203D01*
X27095544Y-46597930D01*
X27120068Y-46574830D01*
X27147418Y-46561034D01*
X27180032Y-46553673D01*
X27220349Y-46549877D01*
X27224292Y-46549621D01*
X27242657Y-46548681D01*
X27260368Y-46548847D01*
X27260368Y-46548847D01*
G37*
X27260368Y-46548847D02*
X27279603Y-46550887D01*
X27302545Y-46555571D01*
X27331371Y-46563668D01*
X27368264Y-46575947D01*
X27415404Y-46593177D01*
X27474971Y-46616126D01*
X27549144Y-46645565D01*
X27640105Y-46682261D01*
X27750034Y-46726984D01*
X27881112Y-46780503D01*
X27895086Y-46786213D01*
X28024261Y-46838986D01*
X28157206Y-46893285D01*
X28289873Y-46947457D01*
X28418214Y-46999849D01*
X28538181Y-47048810D01*
X28645726Y-47092688D01*
X28736800Y-47129828D01*
X28791745Y-47152221D01*
X28874873Y-47186295D01*
X28950617Y-47217739D01*
X29015652Y-47245140D01*
X29066655Y-47267086D01*
X29100303Y-47282167D01*
X29112902Y-47288626D01*
X29126783Y-47310836D01*
X29128800Y-47323419D01*
X29139023Y-47347634D01*
X29164148Y-47375121D01*
X29195863Y-47398756D01*
X29225855Y-47411413D01*
X29232161Y-47412026D01*
X29261020Y-47406283D01*
X29294895Y-47392561D01*
X29329098Y-47380409D01*
X29356326Y-47385844D01*
X29357567Y-47386493D01*
X29390774Y-47414772D01*
X29406107Y-47455615D01*
X29403666Y-47510751D01*
X29383552Y-47581909D01*
X29370829Y-47614644D01*
X29333038Y-47706288D01*
X29399447Y-47735158D01*
X29426497Y-47746586D01*
X29473968Y-47766280D01*
X29538710Y-47792948D01*
X29617571Y-47825297D01*
X29707398Y-47862033D01*
X29805040Y-47901864D01*
X29901159Y-47940981D01*
X29999890Y-47981306D01*
X30090791Y-48018798D01*
X30171259Y-48052357D01*
X30238691Y-48080880D01*
X30290485Y-48103267D01*
X30324037Y-48118416D01*
X30336745Y-48125224D01*
X30336788Y-48125338D01*
X30326010Y-48133124D01*
X30296678Y-48148230D01*
X30253730Y-48168220D01*
X30218857Y-48183537D01*
X30100600Y-48234332D01*
X29687835Y-48064851D01*
X29591472Y-48025487D01*
X29502529Y-47989545D01*
X29423748Y-47958103D01*
X29357866Y-47932236D01*
X29307625Y-47913022D01*
X29275765Y-47901538D01*
X29265133Y-47898672D01*
X29255875Y-47911094D01*
X29239771Y-47941366D01*
X29219741Y-47983847D01*
X29211887Y-48001601D01*
X29189265Y-48049593D01*
X29167178Y-48089641D01*
X29149476Y-48114947D01*
X29145510Y-48118715D01*
X29113985Y-48133028D01*
X29077164Y-48136904D01*
X29043101Y-48131316D01*
X29019853Y-48117236D01*
X29014329Y-48102877D01*
X29005892Y-48082615D01*
X28984876Y-48055137D01*
X28977150Y-48047002D01*
X28933486Y-48016845D01*
X28885986Y-48011403D01*
X28844030Y-48024214D01*
X28839239Y-48026898D01*
X28835324Y-48029402D01*
X28830889Y-48031187D01*
X28824539Y-48031716D01*
X28814877Y-48030449D01*
X28800508Y-48026848D01*
X28780037Y-48020374D01*
X28752068Y-48010489D01*
X28715205Y-47996655D01*
X28668052Y-47978332D01*
X28609214Y-47954983D01*
X28537295Y-47926069D01*
X28450900Y-47891051D01*
X28348633Y-47849390D01*
X28229098Y-47800549D01*
X28090899Y-47743989D01*
X27932642Y-47679170D01*
X27752929Y-47605556D01*
X27653686Y-47564911D01*
X27487649Y-47496579D01*
X27345016Y-47437147D01*
X27225420Y-47386455D01*
X27128495Y-47344342D01*
X27053876Y-47310648D01*
X27001194Y-47285212D01*
X26970085Y-47267874D01*
X26962511Y-47262196D01*
X26927393Y-47220997D01*
X26898778Y-47173200D01*
X26881413Y-47127721D01*
X26881325Y-47127033D01*
X27151319Y-47127033D01*
X27156989Y-47144353D01*
X27170204Y-47151844D01*
X27204759Y-47167903D01*
X27258398Y-47191601D01*
X27328861Y-47222010D01*
X27413892Y-47258200D01*
X27511231Y-47299244D01*
X27618621Y-47344214D01*
X27733804Y-47392180D01*
X27854521Y-47442213D01*
X27978515Y-47493387D01*
X28103526Y-47544771D01*
X28227299Y-47595439D01*
X28347573Y-47644460D01*
X28462092Y-47690906D01*
X28568596Y-47733850D01*
X28664828Y-47772362D01*
X28748531Y-47805515D01*
X28817445Y-47832379D01*
X28869312Y-47852026D01*
X28901875Y-47863527D01*
X28912576Y-47866231D01*
X28927521Y-47852674D01*
X28931655Y-47832642D01*
X28930473Y-47826371D01*
X28925880Y-47819480D01*
X28916301Y-47811270D01*
X28900161Y-47801041D01*
X28875887Y-47788093D01*
X28841904Y-47771726D01*
X28796638Y-47751240D01*
X28738515Y-47725935D01*
X28665960Y-47695111D01*
X28577399Y-47658069D01*
X28471259Y-47614108D01*
X28345965Y-47562528D01*
X28199942Y-47502630D01*
X28066757Y-47448094D01*
X27925796Y-47390515D01*
X27791415Y-47335844D01*
X27665511Y-47284839D01*
X27549979Y-47238258D01*
X27446716Y-47196857D01*
X27357618Y-47161396D01*
X27284580Y-47132632D01*
X27229498Y-47111322D01*
X27194270Y-47098225D01*
X27180962Y-47094079D01*
X27158704Y-47104022D01*
X27151319Y-47127033D01*
X26881325Y-47127033D01*
X26878389Y-47104095D01*
X26883418Y-47083715D01*
X26896926Y-47044051D01*
X26917375Y-46989206D01*
X26943233Y-46923280D01*
X26972962Y-46850376D01*
X26974411Y-46846893D01*
X27093748Y-46846893D01*
X27101251Y-46871776D01*
X27122386Y-46876482D01*
X27155092Y-46860857D01*
X27166592Y-46852387D01*
X27207484Y-46832680D01*
X27246524Y-46826948D01*
X27260701Y-46829094D01*
X27285057Y-46835800D01*
X27320607Y-46847467D01*
X27368367Y-46864499D01*
X27429353Y-46887297D01*
X27504582Y-46916263D01*
X27595069Y-46951800D01*
X27701830Y-46994310D01*
X27825881Y-47044196D01*
X27968237Y-47101858D01*
X28129916Y-47167700D01*
X28311932Y-47242124D01*
X28515302Y-47325532D01*
X28741042Y-47418326D01*
X28759947Y-47426105D01*
X28838580Y-47458009D01*
X28910021Y-47486137D01*
X28970713Y-47509156D01*
X29017095Y-47525734D01*
X29045607Y-47534539D01*
X29052486Y-47535572D01*
X29067421Y-47522014D01*
X29071565Y-47502132D01*
X29070188Y-47494491D01*
X29064750Y-47486372D01*
X29053284Y-47476862D01*
X29033827Y-47465047D01*
X29004412Y-47450015D01*
X28963077Y-47430852D01*
X28907855Y-47406646D01*
X28836782Y-47376484D01*
X28747893Y-47339451D01*
X28639223Y-47294635D01*
X28518285Y-47245007D01*
X28322536Y-47164797D01*
X28148908Y-47093703D01*
X27995987Y-47031183D01*
X27862358Y-46976697D01*
X27746609Y-46929702D01*
X27647325Y-46889658D01*
X27563094Y-46856023D01*
X27492500Y-46828257D01*
X27434132Y-46805818D01*
X27386574Y-46788165D01*
X27348414Y-46774756D01*
X27318237Y-46765052D01*
X27294630Y-46758509D01*
X27276180Y-46754588D01*
X27261472Y-46752746D01*
X27249094Y-46752443D01*
X27237631Y-46753138D01*
X27234293Y-46753447D01*
X27179196Y-46765464D01*
X27133822Y-46787942D01*
X27103574Y-46817290D01*
X27093748Y-46846893D01*
X26974411Y-46846893D01*
X26976962Y-46840765D01*
X27014557Y-46751752D01*
X27045227Y-46683521D01*
X27071410Y-46633203D01*
X27095544Y-46597930D01*
X27120068Y-46574830D01*
X27147418Y-46561034D01*
X27180032Y-46553673D01*
X27220349Y-46549877D01*
X27224292Y-46549621D01*
X27242657Y-46548681D01*
X27260368Y-46548847D01*
G36*
X31362241Y-48544486D02*
X31397548Y-48558037D01*
X31452252Y-48579606D01*
X31524288Y-48608364D01*
X31611592Y-48643480D01*
X31712099Y-48684123D01*
X31823745Y-48729464D01*
X31944467Y-48778671D01*
X32072200Y-48830914D01*
X32080813Y-48834443D01*
X32229453Y-48895305D01*
X32356521Y-48947180D01*
X32463961Y-48990784D01*
X32553717Y-49026832D01*
X32627731Y-49056038D01*
X32687947Y-49079120D01*
X32736310Y-49096792D01*
X32774762Y-49109769D01*
X32805246Y-49118768D01*
X32829707Y-49124503D01*
X32850088Y-49127691D01*
X32868332Y-49129046D01*
X32881744Y-49129290D01*
X32941903Y-49132646D01*
X33006865Y-49141038D01*
X33041394Y-49147823D01*
X33084170Y-49159589D01*
X33136659Y-49176445D01*
X33192737Y-49196119D01*
X33246282Y-49216336D01*
X33291168Y-49234822D01*
X33321273Y-49249302D01*
X33329341Y-49254764D01*
X33327852Y-49268629D01*
X33318456Y-49300643D01*
X33303165Y-49345528D01*
X33283993Y-49398009D01*
X33262952Y-49452809D01*
X33242055Y-49504651D01*
X33223315Y-49548261D01*
X33208745Y-49578361D01*
X33201932Y-49588739D01*
X33187305Y-49587431D01*
X33154618Y-49577053D01*
X33108826Y-49559366D01*
X33058996Y-49537978D01*
X32947852Y-49484138D01*
X32859314Y-49432026D01*
X32790774Y-49380001D01*
X32759372Y-49349453D01*
X32748438Y-49339735D01*
X32731368Y-49328228D01*
X32706519Y-49314207D01*
X32672249Y-49296947D01*
X32626918Y-49275723D01*
X32568881Y-49249811D01*
X32496499Y-49218486D01*
X32408128Y-49181022D01*
X32302126Y-49136695D01*
X32176853Y-49084780D01*
X32030665Y-49024552D01*
X31926272Y-48981678D01*
X31791125Y-48926237D01*
X31662513Y-48873497D01*
X31542434Y-48824276D01*
X31432882Y-48779392D01*
X31335856Y-48739662D01*
X31253350Y-48705904D01*
X31187363Y-48678935D01*
X31139890Y-48659571D01*
X31112928Y-48648632D01*
X31107704Y-48646554D01*
X31102216Y-48640120D01*
X31113692Y-48629990D01*
X31144400Y-48614866D01*
X31196609Y-48593453D01*
X31209200Y-48588546D01*
X31262300Y-48568435D01*
X31307025Y-48552357D01*
X31337815Y-48542260D01*
X31348393Y-48539784D01*
X31362241Y-48544486D01*
X31362241Y-48544486D01*
G37*
X31362241Y-48544486D02*
X31397548Y-48558037D01*
X31452252Y-48579606D01*
X31524288Y-48608364D01*
X31611592Y-48643480D01*
X31712099Y-48684123D01*
X31823745Y-48729464D01*
X31944467Y-48778671D01*
X32072200Y-48830914D01*
X32080813Y-48834443D01*
X32229453Y-48895305D01*
X32356521Y-48947180D01*
X32463961Y-48990784D01*
X32553717Y-49026832D01*
X32627731Y-49056038D01*
X32687947Y-49079120D01*
X32736310Y-49096792D01*
X32774762Y-49109769D01*
X32805246Y-49118768D01*
X32829707Y-49124503D01*
X32850088Y-49127691D01*
X32868332Y-49129046D01*
X32881744Y-49129290D01*
X32941903Y-49132646D01*
X33006865Y-49141038D01*
X33041394Y-49147823D01*
X33084170Y-49159589D01*
X33136659Y-49176445D01*
X33192737Y-49196119D01*
X33246282Y-49216336D01*
X33291168Y-49234822D01*
X33321273Y-49249302D01*
X33329341Y-49254764D01*
X33327852Y-49268629D01*
X33318456Y-49300643D01*
X33303165Y-49345528D01*
X33283993Y-49398009D01*
X33262952Y-49452809D01*
X33242055Y-49504651D01*
X33223315Y-49548261D01*
X33208745Y-49578361D01*
X33201932Y-49588739D01*
X33187305Y-49587431D01*
X33154618Y-49577053D01*
X33108826Y-49559366D01*
X33058996Y-49537978D01*
X32947852Y-49484138D01*
X32859314Y-49432026D01*
X32790774Y-49380001D01*
X32759372Y-49349453D01*
X32748438Y-49339735D01*
X32731368Y-49328228D01*
X32706519Y-49314207D01*
X32672249Y-49296947D01*
X32626918Y-49275723D01*
X32568881Y-49249811D01*
X32496499Y-49218486D01*
X32408128Y-49181022D01*
X32302126Y-49136695D01*
X32176853Y-49084780D01*
X32030665Y-49024552D01*
X31926272Y-48981678D01*
X31791125Y-48926237D01*
X31662513Y-48873497D01*
X31542434Y-48824276D01*
X31432882Y-48779392D01*
X31335856Y-48739662D01*
X31253350Y-48705904D01*
X31187363Y-48678935D01*
X31139890Y-48659571D01*
X31112928Y-48648632D01*
X31107704Y-48646554D01*
X31102216Y-48640120D01*
X31113692Y-48629990D01*
X31144400Y-48614866D01*
X31196609Y-48593453D01*
X31209200Y-48588546D01*
X31262300Y-48568435D01*
X31307025Y-48552357D01*
X31337815Y-48542260D01*
X31348393Y-48539784D01*
X31362241Y-48544486D01*
G36*
X34676330Y-46618444D02*
X34696970Y-46622638D01*
X34703943Y-46632648D01*
X34703989Y-46642522D01*
X34697614Y-46662242D01*
X34680264Y-46683051D01*
X34649680Y-46706319D01*
X34603603Y-46733418D01*
X34539771Y-46765720D01*
X34455924Y-46804597D01*
X34385227Y-46835968D01*
X34301163Y-46873287D01*
X34238243Y-46902462D01*
X34194001Y-46924821D01*
X34165970Y-46941689D01*
X34151685Y-46954393D01*
X34148533Y-46963266D01*
X34152305Y-46990992D01*
X34158729Y-47028035D01*
X34159377Y-47031420D01*
X34161751Y-47070900D01*
X34149568Y-47095501D01*
X34135277Y-47103343D01*
X34099412Y-47120515D01*
X34043739Y-47146227D01*
X33970023Y-47179690D01*
X33880030Y-47220117D01*
X33775526Y-47266718D01*
X33658276Y-47318705D01*
X33530046Y-47375289D01*
X33392602Y-47435682D01*
X33247709Y-47499095D01*
X33169226Y-47533343D01*
X33021656Y-47597788D01*
X32880986Y-47659445D01*
X32748938Y-47717548D01*
X32627233Y-47771327D01*
X32517594Y-47820014D01*
X32421741Y-47862842D01*
X32341397Y-47899042D01*
X32278283Y-47927846D01*
X32234121Y-47948486D01*
X32210632Y-47960195D01*
X32207150Y-47962545D01*
X32211848Y-47977121D01*
X32225017Y-48010690D01*
X32244900Y-48058955D01*
X32269744Y-48117616D01*
X32283678Y-48149967D01*
X32315491Y-48224463D01*
X32336675Y-48279670D01*
X32346899Y-48319560D01*
X32345828Y-48348105D01*
X32333131Y-48369279D01*
X32308473Y-48387054D01*
X32271522Y-48405402D01*
X32261891Y-48409828D01*
X32199668Y-48436449D01*
X32154914Y-48449462D01*
X32123138Y-48448096D01*
X32099849Y-48431584D01*
X32080557Y-48399157D01*
X32071192Y-48377198D01*
X32055619Y-48345616D01*
X32040482Y-48326026D01*
X32037210Y-48324006D01*
X32018958Y-48320156D01*
X31981423Y-48314274D01*
X31930590Y-48307250D01*
X31887774Y-48301819D01*
X31753340Y-48285389D01*
X31544450Y-48365543D01*
X31383112Y-48428049D01*
X31202697Y-48499020D01*
X31007445Y-48576752D01*
X30801595Y-48659541D01*
X30589386Y-48745684D01*
X30375060Y-48833476D01*
X30197203Y-48906955D01*
X30036798Y-48973541D01*
X29898257Y-49031093D01*
X29779906Y-49080222D01*
X29680071Y-49121540D01*
X29597076Y-49155655D01*
X29529248Y-49183178D01*
X29474911Y-49204721D01*
X29432391Y-49220893D01*
X29400013Y-49232305D01*
X29376103Y-49239567D01*
X29358986Y-49243290D01*
X29346987Y-49244083D01*
X29338432Y-49242559D01*
X29331646Y-49239326D01*
X29324954Y-49234996D01*
X29316682Y-49230179D01*
X29314013Y-49228898D01*
X29289186Y-49208783D01*
X29263895Y-49175031D01*
X29254760Y-49158356D01*
X29237496Y-49126820D01*
X29223488Y-49108407D01*
X29218709Y-49106256D01*
X29153057Y-49134929D01*
X29093265Y-49163281D01*
X29043431Y-49189150D01*
X29007653Y-49210371D01*
X28990028Y-49224784D01*
X28988891Y-49227558D01*
X28980769Y-49259325D01*
X28959333Y-49302302D01*
X28928973Y-49349433D01*
X28894082Y-49393665D01*
X28870074Y-49418426D01*
X28837583Y-49442762D01*
X28785055Y-49475298D01*
X28715888Y-49514339D01*
X28633478Y-49558188D01*
X28541223Y-49605149D01*
X28442521Y-49653526D01*
X28340768Y-49701623D01*
X28239362Y-49747743D01*
X28141700Y-49790191D01*
X28051179Y-49827271D01*
X28051054Y-49827321D01*
X27987298Y-49852451D01*
X27967821Y-49802867D01*
X27956398Y-49771356D01*
X27955799Y-49755537D01*
X27967089Y-49747610D01*
X27975753Y-49744721D01*
X28005139Y-49733717D01*
X28053626Y-49713454D01*
X28117373Y-49685667D01*
X28192541Y-49652089D01*
X28275289Y-49614455D01*
X28361778Y-49574499D01*
X28448168Y-49533955D01*
X28530619Y-49494557D01*
X28543723Y-49488217D01*
X28642001Y-49438364D01*
X28723036Y-49392651D01*
X28785296Y-49352107D01*
X28827253Y-49317762D01*
X28847375Y-49290646D01*
X28848981Y-49282697D01*
X28838115Y-49281525D01*
X28809452Y-49288186D01*
X28768890Y-49301263D01*
X28763308Y-49303266D01*
X28650532Y-49339485D01*
X28555588Y-49359228D01*
X28476736Y-49362268D01*
X28412237Y-49348382D01*
X28360351Y-49317344D01*
X28319340Y-49268929D01*
X28305240Y-49243955D01*
X28280718Y-49171609D01*
X28280346Y-49118244D01*
X28382104Y-49118244D01*
X28386403Y-49167441D01*
X28407791Y-49213534D01*
X28418245Y-49226319D01*
X28457842Y-49249921D01*
X28516122Y-49256424D01*
X28592938Y-49245832D01*
X28684426Y-49219432D01*
X28759598Y-49193276D01*
X28813740Y-49173184D01*
X28850008Y-49157337D01*
X28871559Y-49143917D01*
X28881549Y-49131105D01*
X28883134Y-49117085D01*
X28881080Y-49106167D01*
X28861181Y-49065114D01*
X28825070Y-49022854D01*
X28780165Y-48987597D01*
X28767171Y-48980173D01*
X28719912Y-48966509D01*
X28658381Y-48964032D01*
X28590742Y-48971939D01*
X28525160Y-48989428D01*
X28482668Y-49008115D01*
X28442603Y-49033376D01*
X28409701Y-49060168D01*
X28396276Y-49075447D01*
X28382104Y-49118244D01*
X28280346Y-49118244D01*
X28280234Y-49102242D01*
X28302415Y-49037649D01*
X28345887Y-48979626D01*
X28409279Y-48929968D01*
X28491216Y-48890471D01*
X28590327Y-48862929D01*
X28597680Y-48861531D01*
X28687581Y-48856356D01*
X28773183Y-48872943D01*
X28850306Y-48909185D01*
X28914768Y-48962973D01*
X28962388Y-49032201D01*
X28970213Y-49049351D01*
X28986643Y-49077986D01*
X29002483Y-49087830D01*
X29004720Y-49087295D01*
X29061853Y-49063325D01*
X29112474Y-49040287D01*
X29151853Y-49020506D01*
X29175260Y-49006306D01*
X29179677Y-49001303D01*
X29175023Y-48984697D01*
X29163145Y-48953371D01*
X29154239Y-48931956D01*
X29139198Y-48891016D01*
X29130069Y-48854884D01*
X29128800Y-48842577D01*
X29128708Y-48833322D01*
X29129131Y-48824673D01*
X29131121Y-48816098D01*
X29135728Y-48807063D01*
X29144002Y-48797035D01*
X29156996Y-48785480D01*
X29175758Y-48771866D01*
X29201341Y-48755659D01*
X29234795Y-48736326D01*
X29277170Y-48713333D01*
X29329517Y-48686147D01*
X29392888Y-48654235D01*
X29468333Y-48617063D01*
X29556902Y-48574099D01*
X29659646Y-48524808D01*
X29777616Y-48468658D01*
X29911864Y-48405116D01*
X30063438Y-48333647D01*
X30233392Y-48253719D01*
X30422774Y-48164799D01*
X30632636Y-48066352D01*
X30864028Y-47957847D01*
X30968158Y-47909019D01*
X31491091Y-47663803D01*
X31569134Y-47550423D01*
X31601113Y-47502242D01*
X31626751Y-47460338D01*
X31642993Y-47429908D01*
X31647178Y-47417543D01*
X31641586Y-47393270D01*
X31628029Y-47361035D01*
X31627064Y-47359148D01*
X31612651Y-47321151D01*
X31615303Y-47290586D01*
X31637258Y-47263807D01*
X31680755Y-47237170D01*
X31710677Y-47223036D01*
X31769293Y-47198560D01*
X31810364Y-47186277D01*
X31838300Y-47185536D01*
X31857512Y-47195684D01*
X31862155Y-47200658D01*
X31872320Y-47218170D01*
X31890342Y-47254352D01*
X31913985Y-47304526D01*
X31941014Y-47364011D01*
X31951788Y-47388264D01*
X31979072Y-47448065D01*
X32003679Y-47498270D01*
X32023501Y-47534853D01*
X32036429Y-47553788D01*
X32039368Y-47555497D01*
X32053314Y-47549960D01*
X32088113Y-47535259D01*
X32141322Y-47512452D01*
X32210497Y-47482595D01*
X32293197Y-47446743D01*
X32386978Y-47405952D01*
X32489398Y-47361279D01*
X32558628Y-47331018D01*
X32770031Y-47238530D01*
X32959365Y-47155706D01*
X33127874Y-47082025D01*
X33276799Y-47016967D01*
X33407385Y-46960012D01*
X33520873Y-46910641D01*
X33618507Y-46868334D01*
X33701529Y-46832571D01*
X33771182Y-46802832D01*
X33828709Y-46778597D01*
X33875352Y-46759347D01*
X33912355Y-46744562D01*
X33940959Y-46733721D01*
X33962409Y-46726306D01*
X33977946Y-46721796D01*
X33988813Y-46719672D01*
X33996254Y-46719413D01*
X34001511Y-46720500D01*
X34005826Y-46722413D01*
X34009434Y-46724188D01*
X34034529Y-46744965D01*
X34056143Y-46777686D01*
X34058275Y-46782460D01*
X34072740Y-46811161D01*
X34085178Y-46826267D01*
X34087279Y-46826948D01*
X34101582Y-46822001D01*
X34135427Y-46808200D01*
X34185149Y-46787103D01*
X34247083Y-46760270D01*
X34317562Y-46729260D01*
X34331951Y-46722876D01*
X34415844Y-46686033D01*
X34480716Y-46658760D01*
X34530514Y-46639693D01*
X34569188Y-46627471D01*
X34600686Y-46620733D01*
X34628955Y-46618116D01*
X34636161Y-46617944D01*
X34676330Y-46618444D01*
X34676330Y-46618444D01*
G37*
X34676330Y-46618444D02*
X34696970Y-46622638D01*
X34703943Y-46632648D01*
X34703989Y-46642522D01*
X34697614Y-46662242D01*
X34680264Y-46683051D01*
X34649680Y-46706319D01*
X34603603Y-46733418D01*
X34539771Y-46765720D01*
X34455924Y-46804597D01*
X34385227Y-46835968D01*
X34301163Y-46873287D01*
X34238243Y-46902462D01*
X34194001Y-46924821D01*
X34165970Y-46941689D01*
X34151685Y-46954393D01*
X34148533Y-46963266D01*
X34152305Y-46990992D01*
X34158729Y-47028035D01*
X34159377Y-47031420D01*
X34161751Y-47070900D01*
X34149568Y-47095501D01*
X34135277Y-47103343D01*
X34099412Y-47120515D01*
X34043739Y-47146227D01*
X33970023Y-47179690D01*
X33880030Y-47220117D01*
X33775526Y-47266718D01*
X33658276Y-47318705D01*
X33530046Y-47375289D01*
X33392602Y-47435682D01*
X33247709Y-47499095D01*
X33169226Y-47533343D01*
X33021656Y-47597788D01*
X32880986Y-47659445D01*
X32748938Y-47717548D01*
X32627233Y-47771327D01*
X32517594Y-47820014D01*
X32421741Y-47862842D01*
X32341397Y-47899042D01*
X32278283Y-47927846D01*
X32234121Y-47948486D01*
X32210632Y-47960195D01*
X32207150Y-47962545D01*
X32211848Y-47977121D01*
X32225017Y-48010690D01*
X32244900Y-48058955D01*
X32269744Y-48117616D01*
X32283678Y-48149967D01*
X32315491Y-48224463D01*
X32336675Y-48279670D01*
X32346899Y-48319560D01*
X32345828Y-48348105D01*
X32333131Y-48369279D01*
X32308473Y-48387054D01*
X32271522Y-48405402D01*
X32261891Y-48409828D01*
X32199668Y-48436449D01*
X32154914Y-48449462D01*
X32123138Y-48448096D01*
X32099849Y-48431584D01*
X32080557Y-48399157D01*
X32071192Y-48377198D01*
X32055619Y-48345616D01*
X32040482Y-48326026D01*
X32037210Y-48324006D01*
X32018958Y-48320156D01*
X31981423Y-48314274D01*
X31930590Y-48307250D01*
X31887774Y-48301819D01*
X31753340Y-48285389D01*
X31544450Y-48365543D01*
X31383112Y-48428049D01*
X31202697Y-48499020D01*
X31007445Y-48576752D01*
X30801595Y-48659541D01*
X30589386Y-48745684D01*
X30375060Y-48833476D01*
X30197203Y-48906955D01*
X30036798Y-48973541D01*
X29898257Y-49031093D01*
X29779906Y-49080222D01*
X29680071Y-49121540D01*
X29597076Y-49155655D01*
X29529248Y-49183178D01*
X29474911Y-49204721D01*
X29432391Y-49220893D01*
X29400013Y-49232305D01*
X29376103Y-49239567D01*
X29358986Y-49243290D01*
X29346987Y-49244083D01*
X29338432Y-49242559D01*
X29331646Y-49239326D01*
X29324954Y-49234996D01*
X29316682Y-49230179D01*
X29314013Y-49228898D01*
X29289186Y-49208783D01*
X29263895Y-49175031D01*
X29254760Y-49158356D01*
X29237496Y-49126820D01*
X29223488Y-49108407D01*
X29218709Y-49106256D01*
X29153057Y-49134929D01*
X29093265Y-49163281D01*
X29043431Y-49189150D01*
X29007653Y-49210371D01*
X28990028Y-49224784D01*
X28988891Y-49227558D01*
X28980769Y-49259325D01*
X28959333Y-49302302D01*
X28928973Y-49349433D01*
X28894082Y-49393665D01*
X28870074Y-49418426D01*
X28837583Y-49442762D01*
X28785055Y-49475298D01*
X28715888Y-49514339D01*
X28633478Y-49558188D01*
X28541223Y-49605149D01*
X28442521Y-49653526D01*
X28340768Y-49701623D01*
X28239362Y-49747743D01*
X28141700Y-49790191D01*
X28051179Y-49827271D01*
X28051054Y-49827321D01*
X27987298Y-49852451D01*
X27967821Y-49802867D01*
X27956398Y-49771356D01*
X27955799Y-49755537D01*
X27967089Y-49747610D01*
X27975753Y-49744721D01*
X28005139Y-49733717D01*
X28053626Y-49713454D01*
X28117373Y-49685667D01*
X28192541Y-49652089D01*
X28275289Y-49614455D01*
X28361778Y-49574499D01*
X28448168Y-49533955D01*
X28530619Y-49494557D01*
X28543723Y-49488217D01*
X28642001Y-49438364D01*
X28723036Y-49392651D01*
X28785296Y-49352107D01*
X28827253Y-49317762D01*
X28847375Y-49290646D01*
X28848981Y-49282697D01*
X28838115Y-49281525D01*
X28809452Y-49288186D01*
X28768890Y-49301263D01*
X28763308Y-49303266D01*
X28650532Y-49339485D01*
X28555588Y-49359228D01*
X28476736Y-49362268D01*
X28412237Y-49348382D01*
X28360351Y-49317344D01*
X28319340Y-49268929D01*
X28305240Y-49243955D01*
X28280718Y-49171609D01*
X28280346Y-49118244D01*
X28382104Y-49118244D01*
X28386403Y-49167441D01*
X28407791Y-49213534D01*
X28418245Y-49226319D01*
X28457842Y-49249921D01*
X28516122Y-49256424D01*
X28592938Y-49245832D01*
X28684426Y-49219432D01*
X28759598Y-49193276D01*
X28813740Y-49173184D01*
X28850008Y-49157337D01*
X28871559Y-49143917D01*
X28881549Y-49131105D01*
X28883134Y-49117085D01*
X28881080Y-49106167D01*
X28861181Y-49065114D01*
X28825070Y-49022854D01*
X28780165Y-48987597D01*
X28767171Y-48980173D01*
X28719912Y-48966509D01*
X28658381Y-48964032D01*
X28590742Y-48971939D01*
X28525160Y-48989428D01*
X28482668Y-49008115D01*
X28442603Y-49033376D01*
X28409701Y-49060168D01*
X28396276Y-49075447D01*
X28382104Y-49118244D01*
X28280346Y-49118244D01*
X28280234Y-49102242D01*
X28302415Y-49037649D01*
X28345887Y-48979626D01*
X28409279Y-48929968D01*
X28491216Y-48890471D01*
X28590327Y-48862929D01*
X28597680Y-48861531D01*
X28687581Y-48856356D01*
X28773183Y-48872943D01*
X28850306Y-48909185D01*
X28914768Y-48962973D01*
X28962388Y-49032201D01*
X28970213Y-49049351D01*
X28986643Y-49077986D01*
X29002483Y-49087830D01*
X29004720Y-49087295D01*
X29061853Y-49063325D01*
X29112474Y-49040287D01*
X29151853Y-49020506D01*
X29175260Y-49006306D01*
X29179677Y-49001303D01*
X29175023Y-48984697D01*
X29163145Y-48953371D01*
X29154239Y-48931956D01*
X29139198Y-48891016D01*
X29130069Y-48854884D01*
X29128800Y-48842577D01*
X29128708Y-48833322D01*
X29129131Y-48824673D01*
X29131121Y-48816098D01*
X29135728Y-48807063D01*
X29144002Y-48797035D01*
X29156996Y-48785480D01*
X29175758Y-48771866D01*
X29201341Y-48755659D01*
X29234795Y-48736326D01*
X29277170Y-48713333D01*
X29329517Y-48686147D01*
X29392888Y-48654235D01*
X29468333Y-48617063D01*
X29556902Y-48574099D01*
X29659646Y-48524808D01*
X29777616Y-48468658D01*
X29911864Y-48405116D01*
X30063438Y-48333647D01*
X30233392Y-48253719D01*
X30422774Y-48164799D01*
X30632636Y-48066352D01*
X30864028Y-47957847D01*
X30968158Y-47909019D01*
X31491091Y-47663803D01*
X31569134Y-47550423D01*
X31601113Y-47502242D01*
X31626751Y-47460338D01*
X31642993Y-47429908D01*
X31647178Y-47417543D01*
X31641586Y-47393270D01*
X31628029Y-47361035D01*
X31627064Y-47359148D01*
X31612651Y-47321151D01*
X31615303Y-47290586D01*
X31637258Y-47263807D01*
X31680755Y-47237170D01*
X31710677Y-47223036D01*
X31769293Y-47198560D01*
X31810364Y-47186277D01*
X31838300Y-47185536D01*
X31857512Y-47195684D01*
X31862155Y-47200658D01*
X31872320Y-47218170D01*
X31890342Y-47254352D01*
X31913985Y-47304526D01*
X31941014Y-47364011D01*
X31951788Y-47388264D01*
X31979072Y-47448065D01*
X32003679Y-47498270D01*
X32023501Y-47534853D01*
X32036429Y-47553788D01*
X32039368Y-47555497D01*
X32053314Y-47549960D01*
X32088113Y-47535259D01*
X32141322Y-47512452D01*
X32210497Y-47482595D01*
X32293197Y-47446743D01*
X32386978Y-47405952D01*
X32489398Y-47361279D01*
X32558628Y-47331018D01*
X32770031Y-47238530D01*
X32959365Y-47155706D01*
X33127874Y-47082025D01*
X33276799Y-47016967D01*
X33407385Y-46960012D01*
X33520873Y-46910641D01*
X33618507Y-46868334D01*
X33701529Y-46832571D01*
X33771182Y-46802832D01*
X33828709Y-46778597D01*
X33875352Y-46759347D01*
X33912355Y-46744562D01*
X33940959Y-46733721D01*
X33962409Y-46726306D01*
X33977946Y-46721796D01*
X33988813Y-46719672D01*
X33996254Y-46719413D01*
X34001511Y-46720500D01*
X34005826Y-46722413D01*
X34009434Y-46724188D01*
X34034529Y-46744965D01*
X34056143Y-46777686D01*
X34058275Y-46782460D01*
X34072740Y-46811161D01*
X34085178Y-46826267D01*
X34087279Y-46826948D01*
X34101582Y-46822001D01*
X34135427Y-46808200D01*
X34185149Y-46787103D01*
X34247083Y-46760270D01*
X34317562Y-46729260D01*
X34331951Y-46722876D01*
X34415844Y-46686033D01*
X34480716Y-46658760D01*
X34530514Y-46639693D01*
X34569188Y-46627471D01*
X34600686Y-46620733D01*
X34628955Y-46618116D01*
X34636161Y-46617944D01*
X34676330Y-46618444D01*
D14*
G04 #@! TO.C,C1*
X25790000Y-27669252D02*
X25790000Y-27146748D01*
X24370000Y-27669252D02*
X24370000Y-27146748D01*
G04 #@! TO.C,Q1*
X24770000Y-59410000D02*
X24770000Y-57950000D01*
X27930000Y-59410000D02*
X27930000Y-57250000D01*
X27930000Y-59410000D02*
X27000000Y-59410000D01*
X24770000Y-59410000D02*
X25700000Y-59410000D01*
G04 #@! TO.C,Q2*
X22796000Y-34972000D02*
X24256000Y-34972000D01*
X22796000Y-38132000D02*
X24956000Y-38132000D01*
X22796000Y-38132000D02*
X22796000Y-37202000D01*
X22796000Y-34972000D02*
X22796000Y-35902000D01*
G04 #@! TO.C,Q3*
X57902000Y-19028000D02*
X57902000Y-20488000D01*
X54742000Y-19028000D02*
X54742000Y-21188000D01*
X54742000Y-19028000D02*
X55672000Y-19028000D01*
X57902000Y-19028000D02*
X56972000Y-19028000D01*
G04 #@! TO.C,Q4*
X55250000Y-62458000D02*
X55250000Y-60998000D01*
X58410000Y-62458000D02*
X58410000Y-60298000D01*
X58410000Y-62458000D02*
X57480000Y-62458000D01*
X55250000Y-62458000D02*
X56180000Y-62458000D01*
G04 #@! TO.C,R1*
X29450000Y-58388748D02*
X29450000Y-58911252D01*
X30870000Y-58388748D02*
X30870000Y-58911252D01*
G04 #@! TO.C,R2*
X25326748Y-40564000D02*
X25849252Y-40564000D01*
X25326748Y-39144000D02*
X25849252Y-39144000D01*
G04 #@! TO.C,R3*
X60715000Y-21370052D02*
X60715000Y-20847548D01*
X59295000Y-21370052D02*
X59295000Y-20847548D01*
G04 #@! TO.C,R4*
X57387600Y-57742852D02*
X57387600Y-57220348D01*
X55967600Y-57742852D02*
X55967600Y-57220348D01*
G04 #@! TO.C,R5*
X23250000Y-58911252D02*
X23250000Y-58388748D01*
X21830000Y-58911252D02*
X21830000Y-58388748D01*
G04 #@! TO.C,R6*
X23250000Y-43671252D02*
X23250000Y-43148748D01*
X21830000Y-43671252D02*
X21830000Y-43148748D01*
G04 #@! TO.C,R7*
X23250000Y-28939252D02*
X23250000Y-28416748D01*
X21830000Y-28939252D02*
X21830000Y-28416748D01*
G04 #@! TO.C,R8*
X21830000Y-20796748D02*
X21830000Y-21319252D01*
X23250000Y-20796748D02*
X23250000Y-21319252D01*
G04 #@! TO.C,R9*
X36816000Y-20618948D02*
X36816000Y-21141452D01*
X38236000Y-20618948D02*
X38236000Y-21141452D01*
G04 #@! TO.C,R10*
X38236000Y-28939252D02*
X38236000Y-28416748D01*
X36816000Y-28939252D02*
X36816000Y-28416748D01*
G04 #@! TO.C,R11*
X38236000Y-43671252D02*
X38236000Y-43148748D01*
X36816000Y-43671252D02*
X36816000Y-43148748D01*
G04 #@! TO.C,R12*
X38236000Y-58657252D02*
X38236000Y-58134748D01*
X36816000Y-58657252D02*
X36816000Y-58134748D01*
G04 #@! TO.C,R13*
X53222000Y-58611252D02*
X53222000Y-58088748D01*
X51802000Y-58611252D02*
X51802000Y-58088748D01*
G04 #@! TO.C,R14*
X53222000Y-43671252D02*
X53222000Y-43148748D01*
X51802000Y-43671252D02*
X51802000Y-43148748D01*
G04 #@! TO.C,R15*
X53222000Y-28939252D02*
X53222000Y-28416748D01*
X51802000Y-28939252D02*
X51802000Y-28416748D01*
G04 #@! TO.C,R16*
X51802000Y-20796748D02*
X51802000Y-21319252D01*
X53222000Y-20796748D02*
X53222000Y-21319252D01*
G04 #@! TO.C,R17*
X66788000Y-20796748D02*
X66788000Y-21319252D01*
X68208000Y-20796748D02*
X68208000Y-21319252D01*
G04 #@! TO.C,R18*
X68208000Y-28939252D02*
X68208000Y-28416748D01*
X66788000Y-28939252D02*
X66788000Y-28416748D01*
G04 #@! TO.C,R19*
X68208000Y-43671252D02*
X68208000Y-43148748D01*
X66788000Y-43671252D02*
X66788000Y-43148748D01*
G04 #@! TO.C,R20*
X68208000Y-58657252D02*
X68208000Y-58134748D01*
X66788000Y-58657252D02*
X66788000Y-58134748D01*
G04 #@! TO.C,SW1*
X20956000Y-49700000D02*
X22286000Y-49700000D01*
X20956000Y-51030000D02*
X20956000Y-49700000D01*
X23556000Y-49700000D02*
X26156000Y-49700000D01*
X23556000Y-52300000D02*
X23556000Y-49700000D01*
X20956000Y-52300000D02*
X23556000Y-52300000D01*
X26156000Y-49700000D02*
X26156000Y-52360000D01*
X20956000Y-52300000D02*
X20956000Y-52360000D01*
X20956000Y-52360000D02*
X26156000Y-52360000D01*
G04 #@! TO.C,SW2*
X20956000Y-53256000D02*
X22286000Y-53256000D01*
X20956000Y-54586000D02*
X20956000Y-53256000D01*
X23556000Y-53256000D02*
X26156000Y-53256000D01*
X23556000Y-55856000D02*
X23556000Y-53256000D01*
X20956000Y-55856000D02*
X23556000Y-55856000D01*
X26156000Y-53256000D02*
X26156000Y-55916000D01*
X20956000Y-55856000D02*
X20956000Y-55916000D01*
X20956000Y-55916000D02*
X26156000Y-55916000D01*
D10*
G04 #@! TO.C,U1*
X32235000Y-27378000D02*
X33610000Y-27378000D01*
X32235000Y-17253000D02*
X28085000Y-17253000D01*
X32235000Y-27403000D02*
X28085000Y-27403000D01*
X32235000Y-17253000D02*
X32235000Y-17358000D01*
X28085000Y-17253000D02*
X28085000Y-17358000D01*
X28085000Y-27403000D02*
X28085000Y-27298000D01*
X32235000Y-27403000D02*
X32235000Y-27378000D01*
G04 #@! TO.C,U2*
X32235000Y-38046000D02*
X33610000Y-38046000D01*
X32235000Y-27921000D02*
X28085000Y-27921000D01*
X32235000Y-38071000D02*
X28085000Y-38071000D01*
X32235000Y-27921000D02*
X32235000Y-28026000D01*
X28085000Y-27921000D02*
X28085000Y-28026000D01*
X28085000Y-38071000D02*
X28085000Y-37966000D01*
X32235000Y-38071000D02*
X32235000Y-38046000D01*
D14*
G04 #@! TO.C,A1*
X61532000Y-21360000D02*
X43492000Y-21360000D01*
X61532000Y-64800000D02*
X61532000Y-21360000D01*
X43492000Y-64800000D02*
X61532000Y-64800000D01*
X43492000Y-21360000D02*
X43492000Y-24030000D01*
X43492000Y-26570000D02*
X43492000Y-64800000D01*
G04 #@! TO.C,C1*
D11*
X25294285Y-24841000D02*
X25322857Y-24869571D01*
X25351428Y-24955285D01*
X25351428Y-25012428D01*
X25322857Y-25098142D01*
X25265714Y-25155285D01*
X25208571Y-25183857D01*
X25094285Y-25212428D01*
X25008571Y-25212428D01*
X24894285Y-25183857D01*
X24837142Y-25155285D01*
X24780000Y-25098142D01*
X24751428Y-25012428D01*
X24751428Y-24955285D01*
X24780000Y-24869571D01*
X24808571Y-24841000D01*
X25351428Y-24269571D02*
X25351428Y-24612428D01*
X25351428Y-24441000D02*
X24751428Y-24441000D01*
X24837142Y-24498142D01*
X24894285Y-24555285D01*
X24922857Y-24612428D01*
G04 #@! TO.C,Q1*
X26292857Y-61264571D02*
X26235714Y-61236000D01*
X26178571Y-61178857D01*
X26092857Y-61093142D01*
X26035714Y-61064571D01*
X25978571Y-61064571D01*
X26007142Y-61207428D02*
X25950000Y-61178857D01*
X25892857Y-61121714D01*
X25864285Y-61007428D01*
X25864285Y-60807428D01*
X25892857Y-60693142D01*
X25950000Y-60636000D01*
X26007142Y-60607428D01*
X26121428Y-60607428D01*
X26178571Y-60636000D01*
X26235714Y-60693142D01*
X26264285Y-60807428D01*
X26264285Y-61007428D01*
X26235714Y-61121714D01*
X26178571Y-61178857D01*
X26121428Y-61207428D01*
X26007142Y-61207428D01*
X26835714Y-61207428D02*
X26492857Y-61207428D01*
X26664285Y-61207428D02*
X26664285Y-60607428D01*
X26607142Y-60693142D01*
X26550000Y-60750285D01*
X26492857Y-60778857D01*
G04 #@! TO.C,Q2*
X21598571Y-36609142D02*
X21570000Y-36666285D01*
X21512857Y-36723428D01*
X21427142Y-36809142D01*
X21398571Y-36866285D01*
X21398571Y-36923428D01*
X21541428Y-36894857D02*
X21512857Y-36952000D01*
X21455714Y-37009142D01*
X21341428Y-37037714D01*
X21141428Y-37037714D01*
X21027142Y-37009142D01*
X20970000Y-36952000D01*
X20941428Y-36894857D01*
X20941428Y-36780571D01*
X20970000Y-36723428D01*
X21027142Y-36666285D01*
X21141428Y-36637714D01*
X21341428Y-36637714D01*
X21455714Y-36666285D01*
X21512857Y-36723428D01*
X21541428Y-36780571D01*
X21541428Y-36894857D01*
X20998571Y-36409142D02*
X20970000Y-36380571D01*
X20941428Y-36323428D01*
X20941428Y-36180571D01*
X20970000Y-36123428D01*
X20998571Y-36094857D01*
X21055714Y-36066285D01*
X21112857Y-36066285D01*
X21198571Y-36094857D01*
X21541428Y-36437714D01*
X21541428Y-36066285D01*
G04 #@! TO.C,Q3*
X56328357Y-17894071D02*
X56271214Y-17865500D01*
X56214071Y-17808357D01*
X56128357Y-17722642D01*
X56071214Y-17694071D01*
X56014071Y-17694071D01*
X56042642Y-17836928D02*
X55985500Y-17808357D01*
X55928357Y-17751214D01*
X55899785Y-17636928D01*
X55899785Y-17436928D01*
X55928357Y-17322642D01*
X55985500Y-17265500D01*
X56042642Y-17236928D01*
X56156928Y-17236928D01*
X56214071Y-17265500D01*
X56271214Y-17322642D01*
X56299785Y-17436928D01*
X56299785Y-17636928D01*
X56271214Y-17751214D01*
X56214071Y-17808357D01*
X56156928Y-17836928D01*
X56042642Y-17836928D01*
X56499785Y-17236928D02*
X56871214Y-17236928D01*
X56671214Y-17465500D01*
X56756928Y-17465500D01*
X56814071Y-17494071D01*
X56842642Y-17522642D01*
X56871214Y-17579785D01*
X56871214Y-17722642D01*
X56842642Y-17779785D01*
X56814071Y-17808357D01*
X56756928Y-17836928D01*
X56585500Y-17836928D01*
X56528357Y-17808357D01*
X56499785Y-17779785D01*
G04 #@! TO.C,Q4*
X56772857Y-64249071D02*
X56715714Y-64220500D01*
X56658571Y-64163357D01*
X56572857Y-64077642D01*
X56515714Y-64049071D01*
X56458571Y-64049071D01*
X56487142Y-64191928D02*
X56430000Y-64163357D01*
X56372857Y-64106214D01*
X56344285Y-63991928D01*
X56344285Y-63791928D01*
X56372857Y-63677642D01*
X56430000Y-63620500D01*
X56487142Y-63591928D01*
X56601428Y-63591928D01*
X56658571Y-63620500D01*
X56715714Y-63677642D01*
X56744285Y-63791928D01*
X56744285Y-63991928D01*
X56715714Y-64106214D01*
X56658571Y-64163357D01*
X56601428Y-64191928D01*
X56487142Y-64191928D01*
X57258571Y-63791928D02*
X57258571Y-64191928D01*
X57115714Y-63563357D02*
X56972857Y-63991928D01*
X57344285Y-63991928D01*
G04 #@! TO.C,R1*
X32081428Y-58750000D02*
X31795714Y-58950000D01*
X32081428Y-59092857D02*
X31481428Y-59092857D01*
X31481428Y-58864285D01*
X31510000Y-58807142D01*
X31538571Y-58778571D01*
X31595714Y-58750000D01*
X31681428Y-58750000D01*
X31738571Y-58778571D01*
X31767142Y-58807142D01*
X31795714Y-58864285D01*
X31795714Y-59092857D01*
X32081428Y-58178571D02*
X32081428Y-58521428D01*
X32081428Y-58350000D02*
X31481428Y-58350000D01*
X31567142Y-58407142D01*
X31624285Y-58464285D01*
X31652857Y-58521428D01*
G04 #@! TO.C,R2*
X25488000Y-41712928D02*
X25288000Y-41427214D01*
X25145142Y-41712928D02*
X25145142Y-41112928D01*
X25373714Y-41112928D01*
X25430857Y-41141500D01*
X25459428Y-41170071D01*
X25488000Y-41227214D01*
X25488000Y-41312928D01*
X25459428Y-41370071D01*
X25430857Y-41398642D01*
X25373714Y-41427214D01*
X25145142Y-41427214D01*
X25716571Y-41170071D02*
X25745142Y-41141500D01*
X25802285Y-41112928D01*
X25945142Y-41112928D01*
X26002285Y-41141500D01*
X26030857Y-41170071D01*
X26059428Y-41227214D01*
X26059428Y-41284357D01*
X26030857Y-41370071D01*
X25688000Y-41712928D01*
X26059428Y-41712928D01*
G04 #@! TO.C,R3*
X58879428Y-19888000D02*
X58593714Y-20088000D01*
X58879428Y-20230857D02*
X58279428Y-20230857D01*
X58279428Y-20002285D01*
X58308000Y-19945142D01*
X58336571Y-19916571D01*
X58393714Y-19888000D01*
X58479428Y-19888000D01*
X58536571Y-19916571D01*
X58565142Y-19945142D01*
X58593714Y-20002285D01*
X58593714Y-20230857D01*
X58279428Y-19688000D02*
X58279428Y-19316571D01*
X58508000Y-19516571D01*
X58508000Y-19430857D01*
X58536571Y-19373714D01*
X58565142Y-19345142D01*
X58622285Y-19316571D01*
X58765142Y-19316571D01*
X58822285Y-19345142D01*
X58850857Y-19373714D01*
X58879428Y-19430857D01*
X58879428Y-19602285D01*
X58850857Y-19659428D01*
X58822285Y-19688000D01*
G04 #@! TO.C,R4*
X55299028Y-57581600D02*
X55013314Y-57781600D01*
X55299028Y-57924457D02*
X54699028Y-57924457D01*
X54699028Y-57695885D01*
X54727600Y-57638742D01*
X54756171Y-57610171D01*
X54813314Y-57581600D01*
X54899028Y-57581600D01*
X54956171Y-57610171D01*
X54984742Y-57638742D01*
X55013314Y-57695885D01*
X55013314Y-57924457D01*
X54899028Y-57067314D02*
X55299028Y-57067314D01*
X54670457Y-57210171D02*
X55099028Y-57353028D01*
X55099028Y-56981600D01*
G04 #@! TO.C,R5*
X21161428Y-58750000D02*
X20875714Y-58950000D01*
X21161428Y-59092857D02*
X20561428Y-59092857D01*
X20561428Y-58864285D01*
X20590000Y-58807142D01*
X20618571Y-58778571D01*
X20675714Y-58750000D01*
X20761428Y-58750000D01*
X20818571Y-58778571D01*
X20847142Y-58807142D01*
X20875714Y-58864285D01*
X20875714Y-59092857D01*
X20561428Y-58207142D02*
X20561428Y-58492857D01*
X20847142Y-58521428D01*
X20818571Y-58492857D01*
X20790000Y-58435714D01*
X20790000Y-58292857D01*
X20818571Y-58235714D01*
X20847142Y-58207142D01*
X20904285Y-58178571D01*
X21047142Y-58178571D01*
X21104285Y-58207142D01*
X21132857Y-58235714D01*
X21161428Y-58292857D01*
X21161428Y-58435714D01*
X21132857Y-58492857D01*
X21104285Y-58521428D01*
G04 #@! TO.C,R6*
X21161428Y-43510000D02*
X20875714Y-43710000D01*
X21161428Y-43852857D02*
X20561428Y-43852857D01*
X20561428Y-43624285D01*
X20590000Y-43567142D01*
X20618571Y-43538571D01*
X20675714Y-43510000D01*
X20761428Y-43510000D01*
X20818571Y-43538571D01*
X20847142Y-43567142D01*
X20875714Y-43624285D01*
X20875714Y-43852857D01*
X20561428Y-42995714D02*
X20561428Y-43110000D01*
X20590000Y-43167142D01*
X20618571Y-43195714D01*
X20704285Y-43252857D01*
X20818571Y-43281428D01*
X21047142Y-43281428D01*
X21104285Y-43252857D01*
X21132857Y-43224285D01*
X21161428Y-43167142D01*
X21161428Y-43052857D01*
X21132857Y-42995714D01*
X21104285Y-42967142D01*
X21047142Y-42938571D01*
X20904285Y-42938571D01*
X20847142Y-42967142D01*
X20818571Y-42995714D01*
X20790000Y-43052857D01*
X20790000Y-43167142D01*
X20818571Y-43224285D01*
X20847142Y-43252857D01*
X20904285Y-43281428D01*
G04 #@! TO.C,R7*
X21161428Y-28778000D02*
X20875714Y-28978000D01*
X21161428Y-29120857D02*
X20561428Y-29120857D01*
X20561428Y-28892285D01*
X20590000Y-28835142D01*
X20618571Y-28806571D01*
X20675714Y-28778000D01*
X20761428Y-28778000D01*
X20818571Y-28806571D01*
X20847142Y-28835142D01*
X20875714Y-28892285D01*
X20875714Y-29120857D01*
X20561428Y-28578000D02*
X20561428Y-28178000D01*
X21161428Y-28435142D01*
G04 #@! TO.C,R8*
X24461428Y-21158000D02*
X24175714Y-21358000D01*
X24461428Y-21500857D02*
X23861428Y-21500857D01*
X23861428Y-21272285D01*
X23890000Y-21215142D01*
X23918571Y-21186571D01*
X23975714Y-21158000D01*
X24061428Y-21158000D01*
X24118571Y-21186571D01*
X24147142Y-21215142D01*
X24175714Y-21272285D01*
X24175714Y-21500857D01*
X24118571Y-20815142D02*
X24090000Y-20872285D01*
X24061428Y-20900857D01*
X24004285Y-20929428D01*
X23975714Y-20929428D01*
X23918571Y-20900857D01*
X23890000Y-20872285D01*
X23861428Y-20815142D01*
X23861428Y-20700857D01*
X23890000Y-20643714D01*
X23918571Y-20615142D01*
X23975714Y-20586571D01*
X24004285Y-20586571D01*
X24061428Y-20615142D01*
X24090000Y-20643714D01*
X24118571Y-20700857D01*
X24118571Y-20815142D01*
X24147142Y-20872285D01*
X24175714Y-20900857D01*
X24232857Y-20929428D01*
X24347142Y-20929428D01*
X24404285Y-20900857D01*
X24432857Y-20872285D01*
X24461428Y-20815142D01*
X24461428Y-20700857D01*
X24432857Y-20643714D01*
X24404285Y-20615142D01*
X24347142Y-20586571D01*
X24232857Y-20586571D01*
X24175714Y-20615142D01*
X24147142Y-20643714D01*
X24118571Y-20700857D01*
G04 #@! TO.C,R9*
X39447428Y-20980200D02*
X39161714Y-21180200D01*
X39447428Y-21323057D02*
X38847428Y-21323057D01*
X38847428Y-21094485D01*
X38876000Y-21037342D01*
X38904571Y-21008771D01*
X38961714Y-20980200D01*
X39047428Y-20980200D01*
X39104571Y-21008771D01*
X39133142Y-21037342D01*
X39161714Y-21094485D01*
X39161714Y-21323057D01*
X39447428Y-20694485D02*
X39447428Y-20580200D01*
X39418857Y-20523057D01*
X39390285Y-20494485D01*
X39304571Y-20437342D01*
X39190285Y-20408771D01*
X38961714Y-20408771D01*
X38904571Y-20437342D01*
X38876000Y-20465914D01*
X38847428Y-20523057D01*
X38847428Y-20637342D01*
X38876000Y-20694485D01*
X38904571Y-20723057D01*
X38961714Y-20751628D01*
X39104571Y-20751628D01*
X39161714Y-20723057D01*
X39190285Y-20694485D01*
X39218857Y-20637342D01*
X39218857Y-20523057D01*
X39190285Y-20465914D01*
X39161714Y-20437342D01*
X39104571Y-20408771D01*
G04 #@! TO.C,R10*
X36147428Y-29063714D02*
X35861714Y-29263714D01*
X36147428Y-29406571D02*
X35547428Y-29406571D01*
X35547428Y-29178000D01*
X35576000Y-29120857D01*
X35604571Y-29092285D01*
X35661714Y-29063714D01*
X35747428Y-29063714D01*
X35804571Y-29092285D01*
X35833142Y-29120857D01*
X35861714Y-29178000D01*
X35861714Y-29406571D01*
X36147428Y-28492285D02*
X36147428Y-28835142D01*
X36147428Y-28663714D02*
X35547428Y-28663714D01*
X35633142Y-28720857D01*
X35690285Y-28778000D01*
X35718857Y-28835142D01*
X35547428Y-28120857D02*
X35547428Y-28063714D01*
X35576000Y-28006571D01*
X35604571Y-27978000D01*
X35661714Y-27949428D01*
X35776000Y-27920857D01*
X35918857Y-27920857D01*
X36033142Y-27949428D01*
X36090285Y-27978000D01*
X36118857Y-28006571D01*
X36147428Y-28063714D01*
X36147428Y-28120857D01*
X36118857Y-28178000D01*
X36090285Y-28206571D01*
X36033142Y-28235142D01*
X35918857Y-28263714D01*
X35776000Y-28263714D01*
X35661714Y-28235142D01*
X35604571Y-28206571D01*
X35576000Y-28178000D01*
X35547428Y-28120857D01*
G04 #@! TO.C,R11*
X36147428Y-43795714D02*
X35861714Y-43995714D01*
X36147428Y-44138571D02*
X35547428Y-44138571D01*
X35547428Y-43910000D01*
X35576000Y-43852857D01*
X35604571Y-43824285D01*
X35661714Y-43795714D01*
X35747428Y-43795714D01*
X35804571Y-43824285D01*
X35833142Y-43852857D01*
X35861714Y-43910000D01*
X35861714Y-44138571D01*
X36147428Y-43224285D02*
X36147428Y-43567142D01*
X36147428Y-43395714D02*
X35547428Y-43395714D01*
X35633142Y-43452857D01*
X35690285Y-43510000D01*
X35718857Y-43567142D01*
X36147428Y-42652857D02*
X36147428Y-42995714D01*
X36147428Y-42824285D02*
X35547428Y-42824285D01*
X35633142Y-42881428D01*
X35690285Y-42938571D01*
X35718857Y-42995714D01*
G04 #@! TO.C,R12*
X36147428Y-58781714D02*
X35861714Y-58981714D01*
X36147428Y-59124571D02*
X35547428Y-59124571D01*
X35547428Y-58896000D01*
X35576000Y-58838857D01*
X35604571Y-58810285D01*
X35661714Y-58781714D01*
X35747428Y-58781714D01*
X35804571Y-58810285D01*
X35833142Y-58838857D01*
X35861714Y-58896000D01*
X35861714Y-59124571D01*
X36147428Y-58210285D02*
X36147428Y-58553142D01*
X36147428Y-58381714D02*
X35547428Y-58381714D01*
X35633142Y-58438857D01*
X35690285Y-58496000D01*
X35718857Y-58553142D01*
X35604571Y-57981714D02*
X35576000Y-57953142D01*
X35547428Y-57896000D01*
X35547428Y-57753142D01*
X35576000Y-57696000D01*
X35604571Y-57667428D01*
X35661714Y-57638857D01*
X35718857Y-57638857D01*
X35804571Y-57667428D01*
X36147428Y-58010285D01*
X36147428Y-57638857D01*
G04 #@! TO.C,R13*
X51133428Y-58735714D02*
X50847714Y-58935714D01*
X51133428Y-59078571D02*
X50533428Y-59078571D01*
X50533428Y-58850000D01*
X50562000Y-58792857D01*
X50590571Y-58764285D01*
X50647714Y-58735714D01*
X50733428Y-58735714D01*
X50790571Y-58764285D01*
X50819142Y-58792857D01*
X50847714Y-58850000D01*
X50847714Y-59078571D01*
X51133428Y-58164285D02*
X51133428Y-58507142D01*
X51133428Y-58335714D02*
X50533428Y-58335714D01*
X50619142Y-58392857D01*
X50676285Y-58450000D01*
X50704857Y-58507142D01*
X50533428Y-57964285D02*
X50533428Y-57592857D01*
X50762000Y-57792857D01*
X50762000Y-57707142D01*
X50790571Y-57650000D01*
X50819142Y-57621428D01*
X50876285Y-57592857D01*
X51019142Y-57592857D01*
X51076285Y-57621428D01*
X51104857Y-57650000D01*
X51133428Y-57707142D01*
X51133428Y-57878571D01*
X51104857Y-57935714D01*
X51076285Y-57964285D01*
G04 #@! TO.C,R14*
X51133428Y-43795714D02*
X50847714Y-43995714D01*
X51133428Y-44138571D02*
X50533428Y-44138571D01*
X50533428Y-43910000D01*
X50562000Y-43852857D01*
X50590571Y-43824285D01*
X50647714Y-43795714D01*
X50733428Y-43795714D01*
X50790571Y-43824285D01*
X50819142Y-43852857D01*
X50847714Y-43910000D01*
X50847714Y-44138571D01*
X51133428Y-43224285D02*
X51133428Y-43567142D01*
X51133428Y-43395714D02*
X50533428Y-43395714D01*
X50619142Y-43452857D01*
X50676285Y-43510000D01*
X50704857Y-43567142D01*
X50733428Y-42710000D02*
X51133428Y-42710000D01*
X50504857Y-42852857D02*
X50933428Y-42995714D01*
X50933428Y-42624285D01*
G04 #@! TO.C,R15*
X51133428Y-29063714D02*
X50847714Y-29263714D01*
X51133428Y-29406571D02*
X50533428Y-29406571D01*
X50533428Y-29178000D01*
X50562000Y-29120857D01*
X50590571Y-29092285D01*
X50647714Y-29063714D01*
X50733428Y-29063714D01*
X50790571Y-29092285D01*
X50819142Y-29120857D01*
X50847714Y-29178000D01*
X50847714Y-29406571D01*
X51133428Y-28492285D02*
X51133428Y-28835142D01*
X51133428Y-28663714D02*
X50533428Y-28663714D01*
X50619142Y-28720857D01*
X50676285Y-28778000D01*
X50704857Y-28835142D01*
X50533428Y-27949428D02*
X50533428Y-28235142D01*
X50819142Y-28263714D01*
X50790571Y-28235142D01*
X50762000Y-28178000D01*
X50762000Y-28035142D01*
X50790571Y-27978000D01*
X50819142Y-27949428D01*
X50876285Y-27920857D01*
X51019142Y-27920857D01*
X51076285Y-27949428D01*
X51104857Y-27978000D01*
X51133428Y-28035142D01*
X51133428Y-28178000D01*
X51104857Y-28235142D01*
X51076285Y-28263714D01*
G04 #@! TO.C,R16*
X51259428Y-20364214D02*
X50973714Y-20564214D01*
X51259428Y-20707071D02*
X50659428Y-20707071D01*
X50659428Y-20478500D01*
X50688000Y-20421357D01*
X50716571Y-20392785D01*
X50773714Y-20364214D01*
X50859428Y-20364214D01*
X50916571Y-20392785D01*
X50945142Y-20421357D01*
X50973714Y-20478500D01*
X50973714Y-20707071D01*
X51259428Y-19792785D02*
X51259428Y-20135642D01*
X51259428Y-19964214D02*
X50659428Y-19964214D01*
X50745142Y-20021357D01*
X50802285Y-20078500D01*
X50830857Y-20135642D01*
X50659428Y-19278500D02*
X50659428Y-19392785D01*
X50688000Y-19449928D01*
X50716571Y-19478500D01*
X50802285Y-19535642D01*
X50916571Y-19564214D01*
X51145142Y-19564214D01*
X51202285Y-19535642D01*
X51230857Y-19507071D01*
X51259428Y-19449928D01*
X51259428Y-19335642D01*
X51230857Y-19278500D01*
X51202285Y-19249928D01*
X51145142Y-19221357D01*
X51002285Y-19221357D01*
X50945142Y-19249928D01*
X50916571Y-19278500D01*
X50888000Y-19335642D01*
X50888000Y-19449928D01*
X50916571Y-19507071D01*
X50945142Y-19535642D01*
X51002285Y-19564214D01*
G04 #@! TO.C,R17*
X69419428Y-21443714D02*
X69133714Y-21643714D01*
X69419428Y-21786571D02*
X68819428Y-21786571D01*
X68819428Y-21558000D01*
X68848000Y-21500857D01*
X68876571Y-21472285D01*
X68933714Y-21443714D01*
X69019428Y-21443714D01*
X69076571Y-21472285D01*
X69105142Y-21500857D01*
X69133714Y-21558000D01*
X69133714Y-21786571D01*
X69419428Y-20872285D02*
X69419428Y-21215142D01*
X69419428Y-21043714D02*
X68819428Y-21043714D01*
X68905142Y-21100857D01*
X68962285Y-21158000D01*
X68990857Y-21215142D01*
X68819428Y-20672285D02*
X68819428Y-20272285D01*
X69419428Y-20529428D01*
G04 #@! TO.C,R18*
X69356928Y-29127214D02*
X69071214Y-29327214D01*
X69356928Y-29470071D02*
X68756928Y-29470071D01*
X68756928Y-29241500D01*
X68785500Y-29184357D01*
X68814071Y-29155785D01*
X68871214Y-29127214D01*
X68956928Y-29127214D01*
X69014071Y-29155785D01*
X69042642Y-29184357D01*
X69071214Y-29241500D01*
X69071214Y-29470071D01*
X69356928Y-28555785D02*
X69356928Y-28898642D01*
X69356928Y-28727214D02*
X68756928Y-28727214D01*
X68842642Y-28784357D01*
X68899785Y-28841500D01*
X68928357Y-28898642D01*
X69014071Y-28212928D02*
X68985500Y-28270071D01*
X68956928Y-28298642D01*
X68899785Y-28327214D01*
X68871214Y-28327214D01*
X68814071Y-28298642D01*
X68785500Y-28270071D01*
X68756928Y-28212928D01*
X68756928Y-28098642D01*
X68785500Y-28041500D01*
X68814071Y-28012928D01*
X68871214Y-27984357D01*
X68899785Y-27984357D01*
X68956928Y-28012928D01*
X68985500Y-28041500D01*
X69014071Y-28098642D01*
X69014071Y-28212928D01*
X69042642Y-28270071D01*
X69071214Y-28298642D01*
X69128357Y-28327214D01*
X69242642Y-28327214D01*
X69299785Y-28298642D01*
X69328357Y-28270071D01*
X69356928Y-28212928D01*
X69356928Y-28098642D01*
X69328357Y-28041500D01*
X69299785Y-28012928D01*
X69242642Y-27984357D01*
X69128357Y-27984357D01*
X69071214Y-28012928D01*
X69042642Y-28041500D01*
X69014071Y-28098642D01*
G04 #@! TO.C,R19*
X69293428Y-43732214D02*
X69007714Y-43932214D01*
X69293428Y-44075071D02*
X68693428Y-44075071D01*
X68693428Y-43846500D01*
X68722000Y-43789357D01*
X68750571Y-43760785D01*
X68807714Y-43732214D01*
X68893428Y-43732214D01*
X68950571Y-43760785D01*
X68979142Y-43789357D01*
X69007714Y-43846500D01*
X69007714Y-44075071D01*
X69293428Y-43160785D02*
X69293428Y-43503642D01*
X69293428Y-43332214D02*
X68693428Y-43332214D01*
X68779142Y-43389357D01*
X68836285Y-43446500D01*
X68864857Y-43503642D01*
X69293428Y-42875071D02*
X69293428Y-42760785D01*
X69264857Y-42703642D01*
X69236285Y-42675071D01*
X69150571Y-42617928D01*
X69036285Y-42589357D01*
X68807714Y-42589357D01*
X68750571Y-42617928D01*
X68722000Y-42646500D01*
X68693428Y-42703642D01*
X68693428Y-42817928D01*
X68722000Y-42875071D01*
X68750571Y-42903642D01*
X68807714Y-42932214D01*
X68950571Y-42932214D01*
X69007714Y-42903642D01*
X69036285Y-42875071D01*
X69064857Y-42817928D01*
X69064857Y-42703642D01*
X69036285Y-42646500D01*
X69007714Y-42617928D01*
X68950571Y-42589357D01*
G04 #@! TO.C,R20*
X69293428Y-58845214D02*
X69007714Y-59045214D01*
X69293428Y-59188071D02*
X68693428Y-59188071D01*
X68693428Y-58959500D01*
X68722000Y-58902357D01*
X68750571Y-58873785D01*
X68807714Y-58845214D01*
X68893428Y-58845214D01*
X68950571Y-58873785D01*
X68979142Y-58902357D01*
X69007714Y-58959500D01*
X69007714Y-59188071D01*
X68750571Y-58616642D02*
X68722000Y-58588071D01*
X68693428Y-58530928D01*
X68693428Y-58388071D01*
X68722000Y-58330928D01*
X68750571Y-58302357D01*
X68807714Y-58273785D01*
X68864857Y-58273785D01*
X68950571Y-58302357D01*
X69293428Y-58645214D01*
X69293428Y-58273785D01*
X68693428Y-57902357D02*
X68693428Y-57845214D01*
X68722000Y-57788071D01*
X68750571Y-57759500D01*
X68807714Y-57730928D01*
X68922000Y-57702357D01*
X69064857Y-57702357D01*
X69179142Y-57730928D01*
X69236285Y-57759500D01*
X69264857Y-57788071D01*
X69293428Y-57845214D01*
X69293428Y-57902357D01*
X69264857Y-57959500D01*
X69236285Y-57988071D01*
X69179142Y-58016642D01*
X69064857Y-58045214D01*
X68922000Y-58045214D01*
X68807714Y-58016642D01*
X68750571Y-57988071D01*
X68722000Y-57959500D01*
X68693428Y-57902357D01*
G04 #@! TO.C,SW1*
X22756000Y-49304357D02*
X22841714Y-49332928D01*
X22984571Y-49332928D01*
X23041714Y-49304357D01*
X23070285Y-49275785D01*
X23098857Y-49218642D01*
X23098857Y-49161500D01*
X23070285Y-49104357D01*
X23041714Y-49075785D01*
X22984571Y-49047214D01*
X22870285Y-49018642D01*
X22813142Y-48990071D01*
X22784571Y-48961500D01*
X22756000Y-48904357D01*
X22756000Y-48847214D01*
X22784571Y-48790071D01*
X22813142Y-48761500D01*
X22870285Y-48732928D01*
X23013142Y-48732928D01*
X23098857Y-48761500D01*
X23298857Y-48732928D02*
X23441714Y-49332928D01*
X23556000Y-48904357D01*
X23670285Y-49332928D01*
X23813142Y-48732928D01*
X24356000Y-49332928D02*
X24013142Y-49332928D01*
X24184571Y-49332928D02*
X24184571Y-48732928D01*
X24127428Y-48818642D01*
X24070285Y-48875785D01*
X24013142Y-48904357D01*
G04 #@! TO.C,SW2*
X22756000Y-56670357D02*
X22841714Y-56698928D01*
X22984571Y-56698928D01*
X23041714Y-56670357D01*
X23070285Y-56641785D01*
X23098857Y-56584642D01*
X23098857Y-56527500D01*
X23070285Y-56470357D01*
X23041714Y-56441785D01*
X22984571Y-56413214D01*
X22870285Y-56384642D01*
X22813142Y-56356071D01*
X22784571Y-56327500D01*
X22756000Y-56270357D01*
X22756000Y-56213214D01*
X22784571Y-56156071D01*
X22813142Y-56127500D01*
X22870285Y-56098928D01*
X23013142Y-56098928D01*
X23098857Y-56127500D01*
X23298857Y-56098928D02*
X23441714Y-56698928D01*
X23556000Y-56270357D01*
X23670285Y-56698928D01*
X23813142Y-56098928D01*
X24013142Y-56156071D02*
X24041714Y-56127500D01*
X24098857Y-56098928D01*
X24241714Y-56098928D01*
X24298857Y-56127500D01*
X24327428Y-56156071D01*
X24356000Y-56213214D01*
X24356000Y-56270357D01*
X24327428Y-56356071D01*
X23984571Y-56698928D01*
X24356000Y-56698928D01*
G04 #@! TO.C,U1*
X29702857Y-21999428D02*
X29702857Y-22485142D01*
X29731428Y-22542285D01*
X29760000Y-22570857D01*
X29817142Y-22599428D01*
X29931428Y-22599428D01*
X29988571Y-22570857D01*
X30017142Y-22542285D01*
X30045714Y-22485142D01*
X30045714Y-21999428D01*
X30645714Y-22599428D02*
X30302857Y-22599428D01*
X30474285Y-22599428D02*
X30474285Y-21999428D01*
X30417142Y-22085142D01*
X30360000Y-22142285D01*
X30302857Y-22170857D01*
G04 #@! TO.C,U2*
X29702857Y-32857928D02*
X29702857Y-33343642D01*
X29731428Y-33400785D01*
X29760000Y-33429357D01*
X29817142Y-33457928D01*
X29931428Y-33457928D01*
X29988571Y-33429357D01*
X30017142Y-33400785D01*
X30045714Y-33343642D01*
X30045714Y-32857928D01*
X30302857Y-32915071D02*
X30331428Y-32886500D01*
X30388571Y-32857928D01*
X30531428Y-32857928D01*
X30588571Y-32886500D01*
X30617142Y-32915071D01*
X30645714Y-32972214D01*
X30645714Y-33029357D01*
X30617142Y-33115071D01*
X30274285Y-33457928D01*
X30645714Y-33457928D01*
G04 #@! TD*
M02*
