G04 #@! TF.GenerationSoftware,KiCad,Pcbnew,5.0.1*
G04 #@! TF.CreationDate,2018-11-18T18:28:25+01:00*
G04 #@! TF.ProjectId,LED-Cube_MK3,4C45442D437562655F4D4B332E6B6963,rev?*
G04 #@! TF.SameCoordinates,Original*
G04 #@! TF.FileFunction,Soldermask,Top*
G04 #@! TF.FilePolarity,Negative*
%FSLAX46Y46*%
G04 Gerber Fmt 4.6, Leading zero omitted, Abs format (unit mm)*
G04 Created by KiCad (PCBNEW 5.0.1) date So 18 Nov 2018 18:28:25 CET*
%MOMM*%
%LPD*%
G01*
G04 APERTURE LIST*
%ADD10C,0.100000*%
G04 APERTURE END LIST*
D10*
G36*
X37791981Y-61537468D02*
X37974150Y-61612925D01*
X38138103Y-61722475D01*
X38277525Y-61861897D01*
X38387075Y-62025850D01*
X38462532Y-62208019D01*
X38501000Y-62401410D01*
X38501000Y-62598590D01*
X38462532Y-62791981D01*
X38387075Y-62974150D01*
X38277525Y-63138103D01*
X38138103Y-63277525D01*
X37974150Y-63387075D01*
X37791981Y-63462532D01*
X37598590Y-63501000D01*
X37401410Y-63501000D01*
X37208019Y-63462532D01*
X37025850Y-63387075D01*
X36861897Y-63277525D01*
X36722475Y-63138103D01*
X36612925Y-62974150D01*
X36537468Y-62791981D01*
X36499000Y-62598590D01*
X36499000Y-62401410D01*
X36537468Y-62208019D01*
X36612925Y-62025850D01*
X36722475Y-61861897D01*
X36861897Y-61722475D01*
X37025850Y-61612925D01*
X37208019Y-61537468D01*
X37401410Y-61499000D01*
X37598590Y-61499000D01*
X37791981Y-61537468D01*
X37791981Y-61537468D01*
G37*
G36*
X52791981Y-61537468D02*
X52974150Y-61612925D01*
X53138103Y-61722475D01*
X53277525Y-61861897D01*
X53387075Y-62025850D01*
X53462532Y-62208019D01*
X53501000Y-62401410D01*
X53501000Y-62598590D01*
X53462532Y-62791981D01*
X53387075Y-62974150D01*
X53277525Y-63138103D01*
X53138103Y-63277525D01*
X52974150Y-63387075D01*
X52791981Y-63462532D01*
X52598590Y-63501000D01*
X52401410Y-63501000D01*
X52208019Y-63462532D01*
X52025850Y-63387075D01*
X51861897Y-63277525D01*
X51722475Y-63138103D01*
X51612925Y-62974150D01*
X51537468Y-62791981D01*
X51499000Y-62598590D01*
X51499000Y-62401410D01*
X51537468Y-62208019D01*
X51612925Y-62025850D01*
X51722475Y-61861897D01*
X51861897Y-61722475D01*
X52025850Y-61612925D01*
X52208019Y-61537468D01*
X52401410Y-61499000D01*
X52598590Y-61499000D01*
X52791981Y-61537468D01*
X52791981Y-61537468D01*
G37*
G36*
X67791981Y-61537468D02*
X67974150Y-61612925D01*
X68138103Y-61722475D01*
X68277525Y-61861897D01*
X68387075Y-62025850D01*
X68462532Y-62208019D01*
X68501000Y-62401410D01*
X68501000Y-62598590D01*
X68462532Y-62791981D01*
X68387075Y-62974150D01*
X68277525Y-63138103D01*
X68138103Y-63277525D01*
X67974150Y-63387075D01*
X67791981Y-63462532D01*
X67598590Y-63501000D01*
X67401410Y-63501000D01*
X67208019Y-63462532D01*
X67025850Y-63387075D01*
X66861897Y-63277525D01*
X66722475Y-63138103D01*
X66612925Y-62974150D01*
X66537468Y-62791981D01*
X66499000Y-62598590D01*
X66499000Y-62401410D01*
X66537468Y-62208019D01*
X66612925Y-62025850D01*
X66722475Y-61861897D01*
X66861897Y-61722475D01*
X67025850Y-61612925D01*
X67208019Y-61537468D01*
X67401410Y-61499000D01*
X67598590Y-61499000D01*
X67791981Y-61537468D01*
X67791981Y-61537468D01*
G37*
G36*
X30291981Y-61537468D02*
X30474150Y-61612925D01*
X30638103Y-61722475D01*
X30777525Y-61861897D01*
X30887075Y-62025850D01*
X30962532Y-62208019D01*
X31001000Y-62401410D01*
X31001000Y-62598590D01*
X30962532Y-62791981D01*
X30887075Y-62974150D01*
X30777525Y-63138103D01*
X30638103Y-63277525D01*
X30474150Y-63387075D01*
X30291981Y-63462532D01*
X30098590Y-63501000D01*
X29901410Y-63501000D01*
X29708019Y-63462532D01*
X29525850Y-63387075D01*
X29361897Y-63277525D01*
X29222475Y-63138103D01*
X29112925Y-62974150D01*
X29037468Y-62791981D01*
X28999000Y-62598590D01*
X28999000Y-62401410D01*
X29037468Y-62208019D01*
X29112925Y-62025850D01*
X29222475Y-61861897D01*
X29361897Y-61722475D01*
X29525850Y-61612925D01*
X29708019Y-61537468D01*
X29901410Y-61499000D01*
X30098590Y-61499000D01*
X30291981Y-61537468D01*
X30291981Y-61537468D01*
G37*
G36*
X22791981Y-61537468D02*
X22974150Y-61612925D01*
X23138103Y-61722475D01*
X23277525Y-61861897D01*
X23387075Y-62025850D01*
X23462532Y-62208019D01*
X23501000Y-62401410D01*
X23501000Y-62598590D01*
X23462532Y-62791981D01*
X23387075Y-62974150D01*
X23277525Y-63138103D01*
X23138103Y-63277525D01*
X22974150Y-63387075D01*
X22791981Y-63462532D01*
X22598590Y-63501000D01*
X22401410Y-63501000D01*
X22208019Y-63462532D01*
X22025850Y-63387075D01*
X21861897Y-63277525D01*
X21722475Y-63138103D01*
X21612925Y-62974150D01*
X21537468Y-62791981D01*
X21499000Y-62598590D01*
X21499000Y-62401410D01*
X21537468Y-62208019D01*
X21612925Y-62025850D01*
X21722475Y-61861897D01*
X21861897Y-61722475D01*
X22025850Y-61612925D01*
X22208019Y-61537468D01*
X22401410Y-61499000D01*
X22598590Y-61499000D01*
X22791981Y-61537468D01*
X22791981Y-61537468D01*
G37*
G36*
X57281000Y-63199000D02*
X56379000Y-63199000D01*
X56379000Y-62197000D01*
X57281000Y-62197000D01*
X57281000Y-63199000D01*
X57281000Y-63199000D01*
G37*
G36*
X45180822Y-60066087D02*
X45244114Y-60085287D01*
X45302448Y-60116467D01*
X45353574Y-60158426D01*
X45395533Y-60209552D01*
X45426713Y-60267886D01*
X45445913Y-60331178D01*
X45453000Y-60403139D01*
X45453000Y-61316861D01*
X45445913Y-61388822D01*
X45426713Y-61452114D01*
X45395533Y-61510448D01*
X45353574Y-61561574D01*
X45302448Y-61603533D01*
X45244114Y-61634713D01*
X45180822Y-61653913D01*
X45108861Y-61661000D01*
X39595139Y-61661000D01*
X39523178Y-61653913D01*
X39459886Y-61634713D01*
X39401552Y-61603533D01*
X39350426Y-61561574D01*
X39308467Y-61510448D01*
X39277287Y-61452114D01*
X39258087Y-61388822D01*
X39251000Y-61316861D01*
X39251000Y-60403139D01*
X39258087Y-60331178D01*
X39277287Y-60267886D01*
X39308467Y-60209552D01*
X39350426Y-60158426D01*
X39401552Y-60116467D01*
X39459886Y-60085287D01*
X39523178Y-60066087D01*
X39595139Y-60059000D01*
X45108861Y-60059000D01*
X45180822Y-60066087D01*
X45180822Y-60066087D01*
G37*
G36*
X65500822Y-60066087D02*
X65564114Y-60085287D01*
X65622448Y-60116467D01*
X65673574Y-60158426D01*
X65715533Y-60209552D01*
X65746713Y-60267886D01*
X65765913Y-60331178D01*
X65773000Y-60403139D01*
X65773000Y-61316861D01*
X65765913Y-61388822D01*
X65746713Y-61452114D01*
X65715533Y-61510448D01*
X65673574Y-61561574D01*
X65622448Y-61603533D01*
X65564114Y-61634713D01*
X65500822Y-61653913D01*
X65428861Y-61661000D01*
X59915139Y-61661000D01*
X59843178Y-61653913D01*
X59779886Y-61634713D01*
X59721552Y-61603533D01*
X59670426Y-61561574D01*
X59628467Y-61510448D01*
X59597287Y-61452114D01*
X59578087Y-61388822D01*
X59571000Y-61316861D01*
X59571000Y-60403139D01*
X59578087Y-60331178D01*
X59597287Y-60267886D01*
X59628467Y-60209552D01*
X59670426Y-60158426D01*
X59721552Y-60116467D01*
X59779886Y-60085287D01*
X59843178Y-60066087D01*
X59915139Y-60059000D01*
X65428861Y-60059000D01*
X65500822Y-60066087D01*
X65500822Y-60066087D01*
G37*
G36*
X56331000Y-61199000D02*
X55429000Y-61199000D01*
X55429000Y-60197000D01*
X56331000Y-60197000D01*
X56331000Y-61199000D01*
X56331000Y-61199000D01*
G37*
G36*
X58231000Y-61199000D02*
X57329000Y-61199000D01*
X57329000Y-60197000D01*
X58231000Y-60197000D01*
X58231000Y-61199000D01*
X58231000Y-61199000D01*
G37*
G36*
X23128677Y-59053465D02*
X23166364Y-59064898D01*
X23201103Y-59083466D01*
X23231548Y-59108452D01*
X23256534Y-59138897D01*
X23275102Y-59173636D01*
X23286535Y-59211323D01*
X23291000Y-59256661D01*
X23291000Y-60093339D01*
X23286535Y-60138677D01*
X23275102Y-60176364D01*
X23256534Y-60211103D01*
X23231548Y-60241548D01*
X23201103Y-60266534D01*
X23166364Y-60285102D01*
X23128677Y-60296535D01*
X23083339Y-60301000D01*
X21996661Y-60301000D01*
X21951323Y-60296535D01*
X21913636Y-60285102D01*
X21878897Y-60266534D01*
X21848452Y-60241548D01*
X21823466Y-60211103D01*
X21804898Y-60176364D01*
X21793465Y-60138677D01*
X21789000Y-60093339D01*
X21789000Y-59256661D01*
X21793465Y-59211323D01*
X21804898Y-59173636D01*
X21823466Y-59138897D01*
X21848452Y-59108452D01*
X21878897Y-59083466D01*
X21913636Y-59064898D01*
X21951323Y-59053465D01*
X21996661Y-59049000D01*
X23083339Y-59049000D01*
X23128677Y-59053465D01*
X23128677Y-59053465D01*
G37*
G36*
X30748677Y-59053465D02*
X30786364Y-59064898D01*
X30821103Y-59083466D01*
X30851548Y-59108452D01*
X30876534Y-59138897D01*
X30895102Y-59173636D01*
X30906535Y-59211323D01*
X30911000Y-59256661D01*
X30911000Y-60093339D01*
X30906535Y-60138677D01*
X30895102Y-60176364D01*
X30876534Y-60211103D01*
X30851548Y-60241548D01*
X30821103Y-60266534D01*
X30786364Y-60285102D01*
X30748677Y-60296535D01*
X30703339Y-60301000D01*
X29616661Y-60301000D01*
X29571323Y-60296535D01*
X29533636Y-60285102D01*
X29498897Y-60266534D01*
X29468452Y-60241548D01*
X29443466Y-60211103D01*
X29424898Y-60176364D01*
X29413465Y-60138677D01*
X29409000Y-60093339D01*
X29409000Y-59256661D01*
X29413465Y-59211323D01*
X29424898Y-59173636D01*
X29443466Y-59138897D01*
X29468452Y-59108452D01*
X29498897Y-59083466D01*
X29533636Y-59064898D01*
X29571323Y-59053465D01*
X29616661Y-59049000D01*
X30703339Y-59049000D01*
X30748677Y-59053465D01*
X30748677Y-59053465D01*
G37*
G36*
X26801000Y-60151000D02*
X25899000Y-60151000D01*
X25899000Y-59149000D01*
X26801000Y-59149000D01*
X26801000Y-60151000D01*
X26801000Y-60151000D01*
G37*
G36*
X68086677Y-58799465D02*
X68124364Y-58810898D01*
X68159103Y-58829466D01*
X68189548Y-58854452D01*
X68214534Y-58884897D01*
X68233102Y-58919636D01*
X68244535Y-58957323D01*
X68249000Y-59002661D01*
X68249000Y-59839339D01*
X68244535Y-59884677D01*
X68233102Y-59922364D01*
X68214534Y-59957103D01*
X68189548Y-59987548D01*
X68159103Y-60012534D01*
X68124364Y-60031102D01*
X68086677Y-60042535D01*
X68041339Y-60047000D01*
X66954661Y-60047000D01*
X66909323Y-60042535D01*
X66871636Y-60031102D01*
X66836897Y-60012534D01*
X66806452Y-59987548D01*
X66781466Y-59957103D01*
X66762898Y-59922364D01*
X66751465Y-59884677D01*
X66747000Y-59839339D01*
X66747000Y-59002661D01*
X66751465Y-58957323D01*
X66762898Y-58919636D01*
X66781466Y-58884897D01*
X66806452Y-58854452D01*
X66836897Y-58829466D01*
X66871636Y-58810898D01*
X66909323Y-58799465D01*
X66954661Y-58795000D01*
X68041339Y-58795000D01*
X68086677Y-58799465D01*
X68086677Y-58799465D01*
G37*
G36*
X38114677Y-58799465D02*
X38152364Y-58810898D01*
X38187103Y-58829466D01*
X38217548Y-58854452D01*
X38242534Y-58884897D01*
X38261102Y-58919636D01*
X38272535Y-58957323D01*
X38277000Y-59002661D01*
X38277000Y-59839339D01*
X38272535Y-59884677D01*
X38261102Y-59922364D01*
X38242534Y-59957103D01*
X38217548Y-59987548D01*
X38187103Y-60012534D01*
X38152364Y-60031102D01*
X38114677Y-60042535D01*
X38069339Y-60047000D01*
X36982661Y-60047000D01*
X36937323Y-60042535D01*
X36899636Y-60031102D01*
X36864897Y-60012534D01*
X36834452Y-59987548D01*
X36809466Y-59957103D01*
X36790898Y-59922364D01*
X36779465Y-59884677D01*
X36775000Y-59839339D01*
X36775000Y-59002661D01*
X36779465Y-58957323D01*
X36790898Y-58919636D01*
X36809466Y-58884897D01*
X36834452Y-58854452D01*
X36864897Y-58829466D01*
X36899636Y-58810898D01*
X36937323Y-58799465D01*
X36982661Y-58795000D01*
X38069339Y-58795000D01*
X38114677Y-58799465D01*
X38114677Y-58799465D01*
G37*
G36*
X53100677Y-58753465D02*
X53138364Y-58764898D01*
X53173103Y-58783466D01*
X53203548Y-58808452D01*
X53228534Y-58838897D01*
X53247102Y-58873636D01*
X53258535Y-58911323D01*
X53263000Y-58956661D01*
X53263000Y-59793339D01*
X53258535Y-59838677D01*
X53247102Y-59876364D01*
X53228534Y-59911103D01*
X53203548Y-59941548D01*
X53173103Y-59966534D01*
X53138364Y-59985102D01*
X53100677Y-59996535D01*
X53055339Y-60001000D01*
X51968661Y-60001000D01*
X51923323Y-59996535D01*
X51885636Y-59985102D01*
X51850897Y-59966534D01*
X51820452Y-59941548D01*
X51795466Y-59911103D01*
X51776898Y-59876364D01*
X51765465Y-59838677D01*
X51761000Y-59793339D01*
X51761000Y-58956661D01*
X51765465Y-58911323D01*
X51776898Y-58873636D01*
X51795466Y-58838897D01*
X51820452Y-58808452D01*
X51850897Y-58783466D01*
X51885636Y-58764898D01*
X51923323Y-58753465D01*
X51968661Y-58749000D01*
X53055339Y-58749000D01*
X53100677Y-58753465D01*
X53100677Y-58753465D01*
G37*
G36*
X57266277Y-57885065D02*
X57303964Y-57896498D01*
X57338703Y-57915066D01*
X57369148Y-57940052D01*
X57394134Y-57970497D01*
X57412702Y-58005236D01*
X57424135Y-58042923D01*
X57428600Y-58088261D01*
X57428600Y-58924939D01*
X57424135Y-58970277D01*
X57412702Y-59007964D01*
X57394134Y-59042703D01*
X57369148Y-59073148D01*
X57338703Y-59098134D01*
X57303964Y-59116702D01*
X57266277Y-59128135D01*
X57220939Y-59132600D01*
X56134261Y-59132600D01*
X56088923Y-59128135D01*
X56051236Y-59116702D01*
X56016497Y-59098134D01*
X55986052Y-59073148D01*
X55961066Y-59042703D01*
X55942498Y-59007964D01*
X55931065Y-58970277D01*
X55926600Y-58924939D01*
X55926600Y-58088261D01*
X55931065Y-58042923D01*
X55942498Y-58005236D01*
X55961066Y-57970497D01*
X55986052Y-57940052D01*
X56016497Y-57915066D01*
X56051236Y-57896498D01*
X56088923Y-57885065D01*
X56134261Y-57880600D01*
X57220939Y-57880600D01*
X57266277Y-57885065D01*
X57266277Y-57885065D01*
G37*
G36*
X45180822Y-57526087D02*
X45244114Y-57545287D01*
X45302448Y-57576467D01*
X45353574Y-57618426D01*
X45395533Y-57669552D01*
X45426713Y-57727886D01*
X45445913Y-57791178D01*
X45453000Y-57863139D01*
X45453000Y-58776861D01*
X45445913Y-58848822D01*
X45426713Y-58912114D01*
X45395533Y-58970448D01*
X45353574Y-59021574D01*
X45302448Y-59063533D01*
X45244114Y-59094713D01*
X45180822Y-59113913D01*
X45108861Y-59121000D01*
X39595139Y-59121000D01*
X39523178Y-59113913D01*
X39459886Y-59094713D01*
X39401552Y-59063533D01*
X39350426Y-59021574D01*
X39308467Y-58970448D01*
X39277287Y-58912114D01*
X39258087Y-58848822D01*
X39251000Y-58776861D01*
X39251000Y-57863139D01*
X39258087Y-57791178D01*
X39277287Y-57727886D01*
X39308467Y-57669552D01*
X39350426Y-57618426D01*
X39401552Y-57576467D01*
X39459886Y-57545287D01*
X39523178Y-57526087D01*
X39595139Y-57519000D01*
X45108861Y-57519000D01*
X45180822Y-57526087D01*
X45180822Y-57526087D01*
G37*
G36*
X65500822Y-57526087D02*
X65564114Y-57545287D01*
X65622448Y-57576467D01*
X65673574Y-57618426D01*
X65715533Y-57669552D01*
X65746713Y-57727886D01*
X65765913Y-57791178D01*
X65773000Y-57863139D01*
X65773000Y-58776861D01*
X65765913Y-58848822D01*
X65746713Y-58912114D01*
X65715533Y-58970448D01*
X65673574Y-59021574D01*
X65622448Y-59063533D01*
X65564114Y-59094713D01*
X65500822Y-59113913D01*
X65428861Y-59121000D01*
X59915139Y-59121000D01*
X59843178Y-59113913D01*
X59779886Y-59094713D01*
X59721552Y-59063533D01*
X59670426Y-59021574D01*
X59628467Y-58970448D01*
X59597287Y-58912114D01*
X59578087Y-58848822D01*
X59571000Y-58776861D01*
X59571000Y-57863139D01*
X59578087Y-57791178D01*
X59597287Y-57727886D01*
X59628467Y-57669552D01*
X59670426Y-57618426D01*
X59721552Y-57576467D01*
X59779886Y-57545287D01*
X59843178Y-57526087D01*
X59915139Y-57519000D01*
X65428861Y-57519000D01*
X65500822Y-57526087D01*
X65500822Y-57526087D01*
G37*
G36*
X30748677Y-57003465D02*
X30786364Y-57014898D01*
X30821103Y-57033466D01*
X30851548Y-57058452D01*
X30876534Y-57088897D01*
X30895102Y-57123636D01*
X30906535Y-57161323D01*
X30911000Y-57206661D01*
X30911000Y-58043339D01*
X30906535Y-58088677D01*
X30895102Y-58126364D01*
X30876534Y-58161103D01*
X30851548Y-58191548D01*
X30821103Y-58216534D01*
X30786364Y-58235102D01*
X30748677Y-58246535D01*
X30703339Y-58251000D01*
X29616661Y-58251000D01*
X29571323Y-58246535D01*
X29533636Y-58235102D01*
X29498897Y-58216534D01*
X29468452Y-58191548D01*
X29443466Y-58161103D01*
X29424898Y-58126364D01*
X29413465Y-58088677D01*
X29409000Y-58043339D01*
X29409000Y-57206661D01*
X29413465Y-57161323D01*
X29424898Y-57123636D01*
X29443466Y-57088897D01*
X29468452Y-57058452D01*
X29498897Y-57033466D01*
X29533636Y-57014898D01*
X29571323Y-57003465D01*
X29616661Y-56999000D01*
X30703339Y-56999000D01*
X30748677Y-57003465D01*
X30748677Y-57003465D01*
G37*
G36*
X23128677Y-57003465D02*
X23166364Y-57014898D01*
X23201103Y-57033466D01*
X23231548Y-57058452D01*
X23256534Y-57088897D01*
X23275102Y-57123636D01*
X23286535Y-57161323D01*
X23291000Y-57206661D01*
X23291000Y-58043339D01*
X23286535Y-58088677D01*
X23275102Y-58126364D01*
X23256534Y-58161103D01*
X23231548Y-58191548D01*
X23201103Y-58216534D01*
X23166364Y-58235102D01*
X23128677Y-58246535D01*
X23083339Y-58251000D01*
X21996661Y-58251000D01*
X21951323Y-58246535D01*
X21913636Y-58235102D01*
X21878897Y-58216534D01*
X21848452Y-58191548D01*
X21823466Y-58161103D01*
X21804898Y-58126364D01*
X21793465Y-58088677D01*
X21789000Y-58043339D01*
X21789000Y-57206661D01*
X21793465Y-57161323D01*
X21804898Y-57123636D01*
X21823466Y-57088897D01*
X21848452Y-57058452D01*
X21878897Y-57033466D01*
X21913636Y-57014898D01*
X21951323Y-57003465D01*
X21996661Y-56999000D01*
X23083339Y-56999000D01*
X23128677Y-57003465D01*
X23128677Y-57003465D01*
G37*
G36*
X27751000Y-58151000D02*
X26849000Y-58151000D01*
X26849000Y-57149000D01*
X27751000Y-57149000D01*
X27751000Y-58151000D01*
X27751000Y-58151000D01*
G37*
G36*
X25851000Y-58151000D02*
X24949000Y-58151000D01*
X24949000Y-57149000D01*
X25851000Y-57149000D01*
X25851000Y-58151000D01*
X25851000Y-58151000D01*
G37*
G36*
X68086677Y-56749465D02*
X68124364Y-56760898D01*
X68159103Y-56779466D01*
X68189548Y-56804452D01*
X68214534Y-56834897D01*
X68233102Y-56869636D01*
X68244535Y-56907323D01*
X68249000Y-56952661D01*
X68249000Y-57789339D01*
X68244535Y-57834677D01*
X68233102Y-57872364D01*
X68214534Y-57907103D01*
X68189548Y-57937548D01*
X68159103Y-57962534D01*
X68124364Y-57981102D01*
X68086677Y-57992535D01*
X68041339Y-57997000D01*
X66954661Y-57997000D01*
X66909323Y-57992535D01*
X66871636Y-57981102D01*
X66836897Y-57962534D01*
X66806452Y-57937548D01*
X66781466Y-57907103D01*
X66762898Y-57872364D01*
X66751465Y-57834677D01*
X66747000Y-57789339D01*
X66747000Y-56952661D01*
X66751465Y-56907323D01*
X66762898Y-56869636D01*
X66781466Y-56834897D01*
X66806452Y-56804452D01*
X66836897Y-56779466D01*
X66871636Y-56760898D01*
X66909323Y-56749465D01*
X66954661Y-56745000D01*
X68041339Y-56745000D01*
X68086677Y-56749465D01*
X68086677Y-56749465D01*
G37*
G36*
X38114677Y-56749465D02*
X38152364Y-56760898D01*
X38187103Y-56779466D01*
X38217548Y-56804452D01*
X38242534Y-56834897D01*
X38261102Y-56869636D01*
X38272535Y-56907323D01*
X38277000Y-56952661D01*
X38277000Y-57789339D01*
X38272535Y-57834677D01*
X38261102Y-57872364D01*
X38242534Y-57907103D01*
X38217548Y-57937548D01*
X38187103Y-57962534D01*
X38152364Y-57981102D01*
X38114677Y-57992535D01*
X38069339Y-57997000D01*
X36982661Y-57997000D01*
X36937323Y-57992535D01*
X36899636Y-57981102D01*
X36864897Y-57962534D01*
X36834452Y-57937548D01*
X36809466Y-57907103D01*
X36790898Y-57872364D01*
X36779465Y-57834677D01*
X36775000Y-57789339D01*
X36775000Y-56952661D01*
X36779465Y-56907323D01*
X36790898Y-56869636D01*
X36809466Y-56834897D01*
X36834452Y-56804452D01*
X36864897Y-56779466D01*
X36899636Y-56760898D01*
X36937323Y-56749465D01*
X36982661Y-56745000D01*
X38069339Y-56745000D01*
X38114677Y-56749465D01*
X38114677Y-56749465D01*
G37*
G36*
X53100677Y-56703465D02*
X53138364Y-56714898D01*
X53173103Y-56733466D01*
X53203548Y-56758452D01*
X53228534Y-56788897D01*
X53247102Y-56823636D01*
X53258535Y-56861323D01*
X53263000Y-56906661D01*
X53263000Y-57743339D01*
X53258535Y-57788677D01*
X53247102Y-57826364D01*
X53228534Y-57861103D01*
X53203548Y-57891548D01*
X53173103Y-57916534D01*
X53138364Y-57935102D01*
X53100677Y-57946535D01*
X53055339Y-57951000D01*
X51968661Y-57951000D01*
X51923323Y-57946535D01*
X51885636Y-57935102D01*
X51850897Y-57916534D01*
X51820452Y-57891548D01*
X51795466Y-57861103D01*
X51776898Y-57826364D01*
X51765465Y-57788677D01*
X51761000Y-57743339D01*
X51761000Y-56906661D01*
X51765465Y-56861323D01*
X51776898Y-56823636D01*
X51795466Y-56788897D01*
X51820452Y-56758452D01*
X51850897Y-56733466D01*
X51885636Y-56714898D01*
X51923323Y-56703465D01*
X51968661Y-56699000D01*
X53055339Y-56699000D01*
X53100677Y-56703465D01*
X53100677Y-56703465D01*
G37*
G36*
X57266277Y-55835065D02*
X57303964Y-55846498D01*
X57338703Y-55865066D01*
X57369148Y-55890052D01*
X57394134Y-55920497D01*
X57412702Y-55955236D01*
X57424135Y-55992923D01*
X57428600Y-56038261D01*
X57428600Y-56874939D01*
X57424135Y-56920277D01*
X57412702Y-56957964D01*
X57394134Y-56992703D01*
X57369148Y-57023148D01*
X57338703Y-57048134D01*
X57303964Y-57066702D01*
X57266277Y-57078135D01*
X57220939Y-57082600D01*
X56134261Y-57082600D01*
X56088923Y-57078135D01*
X56051236Y-57066702D01*
X56016497Y-57048134D01*
X55986052Y-57023148D01*
X55961066Y-56992703D01*
X55942498Y-56957964D01*
X55931065Y-56920277D01*
X55926600Y-56874939D01*
X55926600Y-56038261D01*
X55931065Y-55992923D01*
X55942498Y-55955236D01*
X55961066Y-55920497D01*
X55986052Y-55890052D01*
X56016497Y-55865066D01*
X56051236Y-55846498D01*
X56088923Y-55835065D01*
X56134261Y-55830600D01*
X57220939Y-55830600D01*
X57266277Y-55835065D01*
X57266277Y-55835065D01*
G37*
G36*
X65500822Y-54986087D02*
X65564114Y-55005287D01*
X65622448Y-55036467D01*
X65673574Y-55078426D01*
X65715533Y-55129552D01*
X65746713Y-55187886D01*
X65765913Y-55251178D01*
X65773000Y-55323139D01*
X65773000Y-56236861D01*
X65765913Y-56308822D01*
X65746713Y-56372114D01*
X65715533Y-56430448D01*
X65673574Y-56481574D01*
X65622448Y-56523533D01*
X65564114Y-56554713D01*
X65500822Y-56573913D01*
X65428861Y-56581000D01*
X59915139Y-56581000D01*
X59843178Y-56573913D01*
X59779886Y-56554713D01*
X59721552Y-56523533D01*
X59670426Y-56481574D01*
X59628467Y-56430448D01*
X59597287Y-56372114D01*
X59578087Y-56308822D01*
X59571000Y-56236861D01*
X59571000Y-55323139D01*
X59578087Y-55251178D01*
X59597287Y-55187886D01*
X59628467Y-55129552D01*
X59670426Y-55078426D01*
X59721552Y-55036467D01*
X59779886Y-55005287D01*
X59843178Y-54986087D01*
X59915139Y-54979000D01*
X65428861Y-54979000D01*
X65500822Y-54986087D01*
X65500822Y-54986087D01*
G37*
G36*
X45180822Y-54986087D02*
X45244114Y-55005287D01*
X45302448Y-55036467D01*
X45353574Y-55078426D01*
X45395533Y-55129552D01*
X45426713Y-55187886D01*
X45445913Y-55251178D01*
X45453000Y-55323139D01*
X45453000Y-56236861D01*
X45445913Y-56308822D01*
X45426713Y-56372114D01*
X45395533Y-56430448D01*
X45353574Y-56481574D01*
X45302448Y-56523533D01*
X45244114Y-56554713D01*
X45180822Y-56573913D01*
X45108861Y-56581000D01*
X39595139Y-56581000D01*
X39523178Y-56573913D01*
X39459886Y-56554713D01*
X39401552Y-56523533D01*
X39350426Y-56481574D01*
X39308467Y-56430448D01*
X39277287Y-56372114D01*
X39258087Y-56308822D01*
X39251000Y-56236861D01*
X39251000Y-55323139D01*
X39258087Y-55251178D01*
X39277287Y-55187886D01*
X39308467Y-55129552D01*
X39350426Y-55078426D01*
X39401552Y-55036467D01*
X39459886Y-55005287D01*
X39523178Y-54986087D01*
X39595139Y-54979000D01*
X45108861Y-54979000D01*
X45180822Y-54986087D01*
X45180822Y-54986087D01*
G37*
G36*
X67791981Y-54037468D02*
X67974150Y-54112925D01*
X68138103Y-54222475D01*
X68277525Y-54361897D01*
X68387075Y-54525850D01*
X68462532Y-54708019D01*
X68501000Y-54901410D01*
X68501000Y-55098590D01*
X68462532Y-55291981D01*
X68387075Y-55474150D01*
X68277525Y-55638103D01*
X68138103Y-55777525D01*
X67974150Y-55887075D01*
X67893462Y-55920497D01*
X67791981Y-55962532D01*
X67598590Y-56001000D01*
X67401410Y-56001000D01*
X67208019Y-55962532D01*
X67106538Y-55920497D01*
X67025850Y-55887075D01*
X66861897Y-55777525D01*
X66722475Y-55638103D01*
X66612925Y-55474150D01*
X66537468Y-55291981D01*
X66499000Y-55098590D01*
X66499000Y-54901410D01*
X66537468Y-54708019D01*
X66612925Y-54525850D01*
X66722475Y-54361897D01*
X66861897Y-54222475D01*
X67025850Y-54112925D01*
X67208019Y-54037468D01*
X67401410Y-53999000D01*
X67598590Y-53999000D01*
X67791981Y-54037468D01*
X67791981Y-54037468D01*
G37*
G36*
X24936443Y-53691519D02*
X25002627Y-53698037D01*
X25070526Y-53718634D01*
X25172467Y-53749557D01*
X25255173Y-53793765D01*
X25328991Y-53833222D01*
X25364729Y-53862552D01*
X25466186Y-53945814D01*
X25522729Y-54014713D01*
X25578778Y-54083009D01*
X25578779Y-54083011D01*
X25662443Y-54239533D01*
X25662443Y-54239534D01*
X25713963Y-54409373D01*
X25731359Y-54586000D01*
X25713963Y-54762627D01*
X25679616Y-54875853D01*
X25662443Y-54932467D01*
X25637570Y-54979000D01*
X25578778Y-55088991D01*
X25572776Y-55096304D01*
X25466186Y-55226186D01*
X25364729Y-55309448D01*
X25328991Y-55338778D01*
X25328989Y-55338779D01*
X25172467Y-55422443D01*
X25115853Y-55439616D01*
X25002627Y-55473963D01*
X24936443Y-55480481D01*
X24870260Y-55487000D01*
X24781740Y-55487000D01*
X24715557Y-55480481D01*
X24649373Y-55473963D01*
X24536147Y-55439616D01*
X24479533Y-55422443D01*
X24323011Y-55338779D01*
X24323009Y-55338778D01*
X24287271Y-55309448D01*
X24185814Y-55226186D01*
X24079224Y-55096304D01*
X24073222Y-55088991D01*
X24014430Y-54979000D01*
X23989557Y-54932467D01*
X23972384Y-54875853D01*
X23938037Y-54762627D01*
X23920641Y-54586000D01*
X23938037Y-54409373D01*
X23989557Y-54239534D01*
X23989557Y-54239533D01*
X24073221Y-54083011D01*
X24073222Y-54083009D01*
X24129271Y-54014713D01*
X24185814Y-53945814D01*
X24287271Y-53862552D01*
X24323009Y-53833222D01*
X24396827Y-53793765D01*
X24479533Y-53749557D01*
X24581474Y-53718634D01*
X24649373Y-53698037D01*
X24715557Y-53691519D01*
X24781740Y-53685000D01*
X24870260Y-53685000D01*
X24936443Y-53691519D01*
X24936443Y-53691519D01*
G37*
G36*
X23187000Y-55487000D02*
X21385000Y-55487000D01*
X21385000Y-53685000D01*
X23187000Y-53685000D01*
X23187000Y-55487000D01*
X23187000Y-55487000D01*
G37*
G36*
X45180822Y-52446087D02*
X45244114Y-52465287D01*
X45302448Y-52496467D01*
X45353574Y-52538426D01*
X45395533Y-52589552D01*
X45426713Y-52647886D01*
X45445913Y-52711178D01*
X45453000Y-52783139D01*
X45453000Y-53696861D01*
X45445913Y-53768822D01*
X45426713Y-53832114D01*
X45395533Y-53890448D01*
X45353574Y-53941574D01*
X45302448Y-53983533D01*
X45244114Y-54014713D01*
X45180822Y-54033913D01*
X45108861Y-54041000D01*
X39595139Y-54041000D01*
X39523178Y-54033913D01*
X39459886Y-54014713D01*
X39401552Y-53983533D01*
X39350426Y-53941574D01*
X39308467Y-53890448D01*
X39277287Y-53832114D01*
X39258087Y-53768822D01*
X39251000Y-53696861D01*
X39251000Y-52783139D01*
X39258087Y-52711178D01*
X39277287Y-52647886D01*
X39308467Y-52589552D01*
X39350426Y-52538426D01*
X39401552Y-52496467D01*
X39459886Y-52465287D01*
X39523178Y-52446087D01*
X39595139Y-52439000D01*
X45108861Y-52439000D01*
X45180822Y-52446087D01*
X45180822Y-52446087D01*
G37*
G36*
X65500822Y-52446087D02*
X65564114Y-52465287D01*
X65622448Y-52496467D01*
X65673574Y-52538426D01*
X65715533Y-52589552D01*
X65746713Y-52647886D01*
X65765913Y-52711178D01*
X65773000Y-52783139D01*
X65773000Y-53696861D01*
X65765913Y-53768822D01*
X65746713Y-53832114D01*
X65715533Y-53890448D01*
X65673574Y-53941574D01*
X65622448Y-53983533D01*
X65564114Y-54014713D01*
X65500822Y-54033913D01*
X65428861Y-54041000D01*
X59915139Y-54041000D01*
X59843178Y-54033913D01*
X59779886Y-54014713D01*
X59721552Y-53983533D01*
X59670426Y-53941574D01*
X59628467Y-53890448D01*
X59597287Y-53832114D01*
X59578087Y-53768822D01*
X59571000Y-53696861D01*
X59571000Y-52783139D01*
X59578087Y-52711178D01*
X59597287Y-52647886D01*
X59628467Y-52589552D01*
X59670426Y-52538426D01*
X59721552Y-52496467D01*
X59779886Y-52465287D01*
X59843178Y-52446087D01*
X59915139Y-52439000D01*
X65428861Y-52439000D01*
X65500822Y-52446087D01*
X65500822Y-52446087D01*
G37*
G36*
X23187000Y-51931000D02*
X21385000Y-51931000D01*
X21385000Y-50129000D01*
X23187000Y-50129000D01*
X23187000Y-51931000D01*
X23187000Y-51931000D01*
G37*
G36*
X24936443Y-50135519D02*
X25002627Y-50142037D01*
X25098692Y-50171178D01*
X25172467Y-50193557D01*
X25224493Y-50221366D01*
X25328991Y-50277222D01*
X25364729Y-50306552D01*
X25466186Y-50389814D01*
X25549448Y-50491271D01*
X25578778Y-50527009D01*
X25578779Y-50527011D01*
X25662443Y-50683533D01*
X25662443Y-50683534D01*
X25713963Y-50853373D01*
X25731359Y-51030000D01*
X25713963Y-51206627D01*
X25707230Y-51228822D01*
X25662443Y-51376467D01*
X25599991Y-51493305D01*
X25578778Y-51532991D01*
X25549448Y-51568729D01*
X25466186Y-51670186D01*
X25364729Y-51753448D01*
X25328991Y-51782778D01*
X25328989Y-51782779D01*
X25172467Y-51866443D01*
X25115853Y-51883616D01*
X25002627Y-51917963D01*
X24936442Y-51924482D01*
X24870260Y-51931000D01*
X24781740Y-51931000D01*
X24715558Y-51924482D01*
X24649373Y-51917963D01*
X24536147Y-51883616D01*
X24479533Y-51866443D01*
X24323011Y-51782779D01*
X24323009Y-51782778D01*
X24287271Y-51753448D01*
X24185814Y-51670186D01*
X24102552Y-51568729D01*
X24073222Y-51532991D01*
X24052009Y-51493305D01*
X23989557Y-51376467D01*
X23944770Y-51228822D01*
X23938037Y-51206627D01*
X23920641Y-51030000D01*
X23938037Y-50853373D01*
X23989557Y-50683534D01*
X23989557Y-50683533D01*
X24073221Y-50527011D01*
X24073222Y-50527009D01*
X24102552Y-50491271D01*
X24185814Y-50389814D01*
X24287271Y-50306552D01*
X24323009Y-50277222D01*
X24427507Y-50221366D01*
X24479533Y-50193557D01*
X24553308Y-50171178D01*
X24649373Y-50142037D01*
X24715557Y-50135519D01*
X24781740Y-50129000D01*
X24870260Y-50129000D01*
X24936443Y-50135519D01*
X24936443Y-50135519D01*
G37*
G36*
X45180822Y-49906087D02*
X45244114Y-49925287D01*
X45302448Y-49956467D01*
X45353574Y-49998426D01*
X45395533Y-50049552D01*
X45426713Y-50107886D01*
X45445913Y-50171178D01*
X45453000Y-50243139D01*
X45453000Y-51156861D01*
X45445913Y-51228822D01*
X45426713Y-51292114D01*
X45395533Y-51350448D01*
X45353574Y-51401574D01*
X45302448Y-51443533D01*
X45244114Y-51474713D01*
X45180822Y-51493913D01*
X45108861Y-51501000D01*
X39595139Y-51501000D01*
X39523178Y-51493913D01*
X39459886Y-51474713D01*
X39401552Y-51443533D01*
X39350426Y-51401574D01*
X39308467Y-51350448D01*
X39277287Y-51292114D01*
X39258087Y-51228822D01*
X39251000Y-51156861D01*
X39251000Y-50243139D01*
X39258087Y-50171178D01*
X39277287Y-50107886D01*
X39308467Y-50049552D01*
X39350426Y-49998426D01*
X39401552Y-49956467D01*
X39459886Y-49925287D01*
X39523178Y-49906087D01*
X39595139Y-49899000D01*
X45108861Y-49899000D01*
X45180822Y-49906087D01*
X45180822Y-49906087D01*
G37*
G36*
X65500822Y-49906087D02*
X65564114Y-49925287D01*
X65622448Y-49956467D01*
X65673574Y-49998426D01*
X65715533Y-50049552D01*
X65746713Y-50107886D01*
X65765913Y-50171178D01*
X65773000Y-50243139D01*
X65773000Y-51156861D01*
X65765913Y-51228822D01*
X65746713Y-51292114D01*
X65715533Y-51350448D01*
X65673574Y-51401574D01*
X65622448Y-51443533D01*
X65564114Y-51474713D01*
X65500822Y-51493913D01*
X65428861Y-51501000D01*
X59915139Y-51501000D01*
X59843178Y-51493913D01*
X59779886Y-51474713D01*
X59721552Y-51443533D01*
X59670426Y-51401574D01*
X59628467Y-51350448D01*
X59597287Y-51292114D01*
X59578087Y-51228822D01*
X59571000Y-51156861D01*
X59571000Y-50243139D01*
X59578087Y-50171178D01*
X59597287Y-50107886D01*
X59628467Y-50049552D01*
X59670426Y-49998426D01*
X59721552Y-49956467D01*
X59779886Y-49925287D01*
X59843178Y-49906087D01*
X59915139Y-49899000D01*
X65428861Y-49899000D01*
X65500822Y-49906087D01*
X65500822Y-49906087D01*
G37*
G36*
X45180822Y-47366087D02*
X45244114Y-47385287D01*
X45302448Y-47416467D01*
X45353574Y-47458426D01*
X45395533Y-47509552D01*
X45426713Y-47567886D01*
X45445913Y-47631178D01*
X45453000Y-47703139D01*
X45453000Y-48616861D01*
X45445913Y-48688822D01*
X45426713Y-48752114D01*
X45395533Y-48810448D01*
X45353574Y-48861574D01*
X45302448Y-48903533D01*
X45244114Y-48934713D01*
X45180822Y-48953913D01*
X45108861Y-48961000D01*
X39595139Y-48961000D01*
X39523178Y-48953913D01*
X39459886Y-48934713D01*
X39401552Y-48903533D01*
X39350426Y-48861574D01*
X39308467Y-48810448D01*
X39277287Y-48752114D01*
X39258087Y-48688822D01*
X39251000Y-48616861D01*
X39251000Y-47703139D01*
X39258087Y-47631178D01*
X39277287Y-47567886D01*
X39308467Y-47509552D01*
X39350426Y-47458426D01*
X39401552Y-47416467D01*
X39459886Y-47385287D01*
X39523178Y-47366087D01*
X39595139Y-47359000D01*
X45108861Y-47359000D01*
X45180822Y-47366087D01*
X45180822Y-47366087D01*
G37*
G36*
X65500822Y-47366087D02*
X65564114Y-47385287D01*
X65622448Y-47416467D01*
X65673574Y-47458426D01*
X65715533Y-47509552D01*
X65746713Y-47567886D01*
X65765913Y-47631178D01*
X65773000Y-47703139D01*
X65773000Y-48616861D01*
X65765913Y-48688822D01*
X65746713Y-48752114D01*
X65715533Y-48810448D01*
X65673574Y-48861574D01*
X65622448Y-48903533D01*
X65564114Y-48934713D01*
X65500822Y-48953913D01*
X65428861Y-48961000D01*
X59915139Y-48961000D01*
X59843178Y-48953913D01*
X59779886Y-48934713D01*
X59721552Y-48903533D01*
X59670426Y-48861574D01*
X59628467Y-48810448D01*
X59597287Y-48752114D01*
X59578087Y-48688822D01*
X59571000Y-48616861D01*
X59571000Y-47703139D01*
X59578087Y-47631178D01*
X59597287Y-47567886D01*
X59628467Y-47509552D01*
X59670426Y-47458426D01*
X59721552Y-47416467D01*
X59779886Y-47385287D01*
X59843178Y-47366087D01*
X59915139Y-47359000D01*
X65428861Y-47359000D01*
X65500822Y-47366087D01*
X65500822Y-47366087D01*
G37*
G36*
X52791981Y-46537468D02*
X52974150Y-46612925D01*
X53138103Y-46722475D01*
X53277525Y-46861897D01*
X53387075Y-47025850D01*
X53462532Y-47208019D01*
X53501000Y-47401410D01*
X53501000Y-47598590D01*
X53462532Y-47791981D01*
X53387075Y-47974150D01*
X53277525Y-48138103D01*
X53138103Y-48277525D01*
X52974150Y-48387075D01*
X52791981Y-48462532D01*
X52598590Y-48501000D01*
X52401410Y-48501000D01*
X52208019Y-48462532D01*
X52025850Y-48387075D01*
X51861897Y-48277525D01*
X51722475Y-48138103D01*
X51612925Y-47974150D01*
X51537468Y-47791981D01*
X51499000Y-47598590D01*
X51499000Y-47401410D01*
X51537468Y-47208019D01*
X51612925Y-47025850D01*
X51722475Y-46861897D01*
X51861897Y-46722475D01*
X52025850Y-46612925D01*
X52208019Y-46537468D01*
X52401410Y-46499000D01*
X52598590Y-46499000D01*
X52791981Y-46537468D01*
X52791981Y-46537468D01*
G37*
G36*
X37791981Y-46537468D02*
X37974150Y-46612925D01*
X38138103Y-46722475D01*
X38277525Y-46861897D01*
X38387075Y-47025850D01*
X38462532Y-47208019D01*
X38501000Y-47401410D01*
X38501000Y-47598590D01*
X38462532Y-47791981D01*
X38387075Y-47974150D01*
X38277525Y-48138103D01*
X38138103Y-48277525D01*
X37974150Y-48387075D01*
X37791981Y-48462532D01*
X37598590Y-48501000D01*
X37401410Y-48501000D01*
X37208019Y-48462532D01*
X37025850Y-48387075D01*
X36861897Y-48277525D01*
X36722475Y-48138103D01*
X36612925Y-47974150D01*
X36537468Y-47791981D01*
X36499000Y-47598590D01*
X36499000Y-47401410D01*
X36537468Y-47208019D01*
X36612925Y-47025850D01*
X36722475Y-46861897D01*
X36861897Y-46722475D01*
X37025850Y-46612925D01*
X37208019Y-46537468D01*
X37401410Y-46499000D01*
X37598590Y-46499000D01*
X37791981Y-46537468D01*
X37791981Y-46537468D01*
G37*
G36*
X22791981Y-46537468D02*
X22974150Y-46612925D01*
X23138103Y-46722475D01*
X23277525Y-46861897D01*
X23387075Y-47025850D01*
X23462532Y-47208019D01*
X23501000Y-47401410D01*
X23501000Y-47598590D01*
X23462532Y-47791981D01*
X23387075Y-47974150D01*
X23277525Y-48138103D01*
X23138103Y-48277525D01*
X22974150Y-48387075D01*
X22791981Y-48462532D01*
X22598590Y-48501000D01*
X22401410Y-48501000D01*
X22208019Y-48462532D01*
X22025850Y-48387075D01*
X21861897Y-48277525D01*
X21722475Y-48138103D01*
X21612925Y-47974150D01*
X21537468Y-47791981D01*
X21499000Y-47598590D01*
X21499000Y-47401410D01*
X21537468Y-47208019D01*
X21612925Y-47025850D01*
X21722475Y-46861897D01*
X21861897Y-46722475D01*
X22025850Y-46612925D01*
X22208019Y-46537468D01*
X22401410Y-46499000D01*
X22598590Y-46499000D01*
X22791981Y-46537468D01*
X22791981Y-46537468D01*
G37*
G36*
X67791981Y-46537468D02*
X67974150Y-46612925D01*
X68138103Y-46722475D01*
X68277525Y-46861897D01*
X68387075Y-47025850D01*
X68462532Y-47208019D01*
X68501000Y-47401410D01*
X68501000Y-47598590D01*
X68462532Y-47791981D01*
X68387075Y-47974150D01*
X68277525Y-48138103D01*
X68138103Y-48277525D01*
X67974150Y-48387075D01*
X67791981Y-48462532D01*
X67598590Y-48501000D01*
X67401410Y-48501000D01*
X67208019Y-48462532D01*
X67025850Y-48387075D01*
X66861897Y-48277525D01*
X66722475Y-48138103D01*
X66612925Y-47974150D01*
X66537468Y-47791981D01*
X66499000Y-47598590D01*
X66499000Y-47401410D01*
X66537468Y-47208019D01*
X66612925Y-47025850D01*
X66722475Y-46861897D01*
X66861897Y-46722475D01*
X67025850Y-46612925D01*
X67208019Y-46537468D01*
X67401410Y-46499000D01*
X67598590Y-46499000D01*
X67791981Y-46537468D01*
X67791981Y-46537468D01*
G37*
G36*
X65500822Y-44826087D02*
X65564114Y-44845287D01*
X65622448Y-44876467D01*
X65673574Y-44918426D01*
X65715533Y-44969552D01*
X65746713Y-45027886D01*
X65765913Y-45091178D01*
X65773000Y-45163139D01*
X65773000Y-46076861D01*
X65765913Y-46148822D01*
X65746713Y-46212114D01*
X65715533Y-46270448D01*
X65673574Y-46321574D01*
X65622448Y-46363533D01*
X65564114Y-46394713D01*
X65500822Y-46413913D01*
X65428861Y-46421000D01*
X59915139Y-46421000D01*
X59843178Y-46413913D01*
X59779886Y-46394713D01*
X59721552Y-46363533D01*
X59670426Y-46321574D01*
X59628467Y-46270448D01*
X59597287Y-46212114D01*
X59578087Y-46148822D01*
X59571000Y-46076861D01*
X59571000Y-45163139D01*
X59578087Y-45091178D01*
X59597287Y-45027886D01*
X59628467Y-44969552D01*
X59670426Y-44918426D01*
X59721552Y-44876467D01*
X59779886Y-44845287D01*
X59843178Y-44826087D01*
X59915139Y-44819000D01*
X65428861Y-44819000D01*
X65500822Y-44826087D01*
X65500822Y-44826087D01*
G37*
G36*
X45180822Y-44826087D02*
X45244114Y-44845287D01*
X45302448Y-44876467D01*
X45353574Y-44918426D01*
X45395533Y-44969552D01*
X45426713Y-45027886D01*
X45445913Y-45091178D01*
X45453000Y-45163139D01*
X45453000Y-46076861D01*
X45445913Y-46148822D01*
X45426713Y-46212114D01*
X45395533Y-46270448D01*
X45353574Y-46321574D01*
X45302448Y-46363533D01*
X45244114Y-46394713D01*
X45180822Y-46413913D01*
X45108861Y-46421000D01*
X39595139Y-46421000D01*
X39523178Y-46413913D01*
X39459886Y-46394713D01*
X39401552Y-46363533D01*
X39350426Y-46321574D01*
X39308467Y-46270448D01*
X39277287Y-46212114D01*
X39258087Y-46148822D01*
X39251000Y-46076861D01*
X39251000Y-45163139D01*
X39258087Y-45091178D01*
X39277287Y-45027886D01*
X39308467Y-44969552D01*
X39350426Y-44918426D01*
X39401552Y-44876467D01*
X39459886Y-44845287D01*
X39523178Y-44826087D01*
X39595139Y-44819000D01*
X45108861Y-44819000D01*
X45180822Y-44826087D01*
X45180822Y-44826087D01*
G37*
G36*
X38114677Y-43813465D02*
X38152364Y-43824898D01*
X38187103Y-43843466D01*
X38217548Y-43868452D01*
X38242534Y-43898897D01*
X38261102Y-43933636D01*
X38272535Y-43971323D01*
X38277000Y-44016661D01*
X38277000Y-44853339D01*
X38272535Y-44898677D01*
X38261102Y-44936364D01*
X38242534Y-44971103D01*
X38217548Y-45001548D01*
X38187103Y-45026534D01*
X38152364Y-45045102D01*
X38114677Y-45056535D01*
X38069339Y-45061000D01*
X36982661Y-45061000D01*
X36937323Y-45056535D01*
X36899636Y-45045102D01*
X36864897Y-45026534D01*
X36834452Y-45001548D01*
X36809466Y-44971103D01*
X36790898Y-44936364D01*
X36779465Y-44898677D01*
X36775000Y-44853339D01*
X36775000Y-44016661D01*
X36779465Y-43971323D01*
X36790898Y-43933636D01*
X36809466Y-43898897D01*
X36834452Y-43868452D01*
X36864897Y-43843466D01*
X36899636Y-43824898D01*
X36937323Y-43813465D01*
X36982661Y-43809000D01*
X38069339Y-43809000D01*
X38114677Y-43813465D01*
X38114677Y-43813465D01*
G37*
G36*
X23128677Y-43813465D02*
X23166364Y-43824898D01*
X23201103Y-43843466D01*
X23231548Y-43868452D01*
X23256534Y-43898897D01*
X23275102Y-43933636D01*
X23286535Y-43971323D01*
X23291000Y-44016661D01*
X23291000Y-44853339D01*
X23286535Y-44898677D01*
X23275102Y-44936364D01*
X23256534Y-44971103D01*
X23231548Y-45001548D01*
X23201103Y-45026534D01*
X23166364Y-45045102D01*
X23128677Y-45056535D01*
X23083339Y-45061000D01*
X21996661Y-45061000D01*
X21951323Y-45056535D01*
X21913636Y-45045102D01*
X21878897Y-45026534D01*
X21848452Y-45001548D01*
X21823466Y-44971103D01*
X21804898Y-44936364D01*
X21793465Y-44898677D01*
X21789000Y-44853339D01*
X21789000Y-44016661D01*
X21793465Y-43971323D01*
X21804898Y-43933636D01*
X21823466Y-43898897D01*
X21848452Y-43868452D01*
X21878897Y-43843466D01*
X21913636Y-43824898D01*
X21951323Y-43813465D01*
X21996661Y-43809000D01*
X23083339Y-43809000D01*
X23128677Y-43813465D01*
X23128677Y-43813465D01*
G37*
G36*
X53100677Y-43813465D02*
X53138364Y-43824898D01*
X53173103Y-43843466D01*
X53203548Y-43868452D01*
X53228534Y-43898897D01*
X53247102Y-43933636D01*
X53258535Y-43971323D01*
X53263000Y-44016661D01*
X53263000Y-44853339D01*
X53258535Y-44898677D01*
X53247102Y-44936364D01*
X53228534Y-44971103D01*
X53203548Y-45001548D01*
X53173103Y-45026534D01*
X53138364Y-45045102D01*
X53100677Y-45056535D01*
X53055339Y-45061000D01*
X51968661Y-45061000D01*
X51923323Y-45056535D01*
X51885636Y-45045102D01*
X51850897Y-45026534D01*
X51820452Y-45001548D01*
X51795466Y-44971103D01*
X51776898Y-44936364D01*
X51765465Y-44898677D01*
X51761000Y-44853339D01*
X51761000Y-44016661D01*
X51765465Y-43971323D01*
X51776898Y-43933636D01*
X51795466Y-43898897D01*
X51820452Y-43868452D01*
X51850897Y-43843466D01*
X51885636Y-43824898D01*
X51923323Y-43813465D01*
X51968661Y-43809000D01*
X53055339Y-43809000D01*
X53100677Y-43813465D01*
X53100677Y-43813465D01*
G37*
G36*
X68086677Y-43813465D02*
X68124364Y-43824898D01*
X68159103Y-43843466D01*
X68189548Y-43868452D01*
X68214534Y-43898897D01*
X68233102Y-43933636D01*
X68244535Y-43971323D01*
X68249000Y-44016661D01*
X68249000Y-44853339D01*
X68244535Y-44898677D01*
X68233102Y-44936364D01*
X68214534Y-44971103D01*
X68189548Y-45001548D01*
X68159103Y-45026534D01*
X68124364Y-45045102D01*
X68086677Y-45056535D01*
X68041339Y-45061000D01*
X66954661Y-45061000D01*
X66909323Y-45056535D01*
X66871636Y-45045102D01*
X66836897Y-45026534D01*
X66806452Y-45001548D01*
X66781466Y-44971103D01*
X66762898Y-44936364D01*
X66751465Y-44898677D01*
X66747000Y-44853339D01*
X66747000Y-44016661D01*
X66751465Y-43971323D01*
X66762898Y-43933636D01*
X66781466Y-43898897D01*
X66806452Y-43868452D01*
X66836897Y-43843466D01*
X66871636Y-43824898D01*
X66909323Y-43813465D01*
X66954661Y-43809000D01*
X68041339Y-43809000D01*
X68086677Y-43813465D01*
X68086677Y-43813465D01*
G37*
G36*
X65500822Y-42286087D02*
X65564114Y-42305287D01*
X65622448Y-42336467D01*
X65673574Y-42378426D01*
X65715533Y-42429552D01*
X65746713Y-42487886D01*
X65765913Y-42551178D01*
X65773000Y-42623139D01*
X65773000Y-43536861D01*
X65765913Y-43608822D01*
X65746713Y-43672114D01*
X65715533Y-43730448D01*
X65673574Y-43781574D01*
X65622448Y-43823533D01*
X65564114Y-43854713D01*
X65500822Y-43873913D01*
X65428861Y-43881000D01*
X59915139Y-43881000D01*
X59843178Y-43873913D01*
X59779886Y-43854713D01*
X59721552Y-43823533D01*
X59670426Y-43781574D01*
X59628467Y-43730448D01*
X59597287Y-43672114D01*
X59578087Y-43608822D01*
X59571000Y-43536861D01*
X59571000Y-42623139D01*
X59578087Y-42551178D01*
X59597287Y-42487886D01*
X59628467Y-42429552D01*
X59670426Y-42378426D01*
X59721552Y-42336467D01*
X59779886Y-42305287D01*
X59843178Y-42286087D01*
X59915139Y-42279000D01*
X65428861Y-42279000D01*
X65500822Y-42286087D01*
X65500822Y-42286087D01*
G37*
G36*
X45180822Y-42286087D02*
X45244114Y-42305287D01*
X45302448Y-42336467D01*
X45353574Y-42378426D01*
X45395533Y-42429552D01*
X45426713Y-42487886D01*
X45445913Y-42551178D01*
X45453000Y-42623139D01*
X45453000Y-43536861D01*
X45445913Y-43608822D01*
X45426713Y-43672114D01*
X45395533Y-43730448D01*
X45353574Y-43781574D01*
X45302448Y-43823533D01*
X45244114Y-43854713D01*
X45180822Y-43873913D01*
X45108861Y-43881000D01*
X39595139Y-43881000D01*
X39523178Y-43873913D01*
X39459886Y-43854713D01*
X39401552Y-43823533D01*
X39350426Y-43781574D01*
X39308467Y-43730448D01*
X39277287Y-43672114D01*
X39258087Y-43608822D01*
X39251000Y-43536861D01*
X39251000Y-42623139D01*
X39258087Y-42551178D01*
X39277287Y-42487886D01*
X39308467Y-42429552D01*
X39350426Y-42378426D01*
X39401552Y-42336467D01*
X39459886Y-42305287D01*
X39523178Y-42286087D01*
X39595139Y-42279000D01*
X45108861Y-42279000D01*
X45180822Y-42286087D01*
X45180822Y-42286087D01*
G37*
G36*
X68086677Y-41763465D02*
X68124364Y-41774898D01*
X68159103Y-41793466D01*
X68189548Y-41818452D01*
X68214534Y-41848897D01*
X68233102Y-41883636D01*
X68244535Y-41921323D01*
X68249000Y-41966661D01*
X68249000Y-42803339D01*
X68244535Y-42848677D01*
X68233102Y-42886364D01*
X68214534Y-42921103D01*
X68189548Y-42951548D01*
X68159103Y-42976534D01*
X68124364Y-42995102D01*
X68086677Y-43006535D01*
X68041339Y-43011000D01*
X66954661Y-43011000D01*
X66909323Y-43006535D01*
X66871636Y-42995102D01*
X66836897Y-42976534D01*
X66806452Y-42951548D01*
X66781466Y-42921103D01*
X66762898Y-42886364D01*
X66751465Y-42848677D01*
X66747000Y-42803339D01*
X66747000Y-41966661D01*
X66751465Y-41921323D01*
X66762898Y-41883636D01*
X66781466Y-41848897D01*
X66806452Y-41818452D01*
X66836897Y-41793466D01*
X66871636Y-41774898D01*
X66909323Y-41763465D01*
X66954661Y-41759000D01*
X68041339Y-41759000D01*
X68086677Y-41763465D01*
X68086677Y-41763465D01*
G37*
G36*
X23128677Y-41763465D02*
X23166364Y-41774898D01*
X23201103Y-41793466D01*
X23231548Y-41818452D01*
X23256534Y-41848897D01*
X23275102Y-41883636D01*
X23286535Y-41921323D01*
X23291000Y-41966661D01*
X23291000Y-42803339D01*
X23286535Y-42848677D01*
X23275102Y-42886364D01*
X23256534Y-42921103D01*
X23231548Y-42951548D01*
X23201103Y-42976534D01*
X23166364Y-42995102D01*
X23128677Y-43006535D01*
X23083339Y-43011000D01*
X21996661Y-43011000D01*
X21951323Y-43006535D01*
X21913636Y-42995102D01*
X21878897Y-42976534D01*
X21848452Y-42951548D01*
X21823466Y-42921103D01*
X21804898Y-42886364D01*
X21793465Y-42848677D01*
X21789000Y-42803339D01*
X21789000Y-41966661D01*
X21793465Y-41921323D01*
X21804898Y-41883636D01*
X21823466Y-41848897D01*
X21848452Y-41818452D01*
X21878897Y-41793466D01*
X21913636Y-41774898D01*
X21951323Y-41763465D01*
X21996661Y-41759000D01*
X23083339Y-41759000D01*
X23128677Y-41763465D01*
X23128677Y-41763465D01*
G37*
G36*
X53100677Y-41763465D02*
X53138364Y-41774898D01*
X53173103Y-41793466D01*
X53203548Y-41818452D01*
X53228534Y-41848897D01*
X53247102Y-41883636D01*
X53258535Y-41921323D01*
X53263000Y-41966661D01*
X53263000Y-42803339D01*
X53258535Y-42848677D01*
X53247102Y-42886364D01*
X53228534Y-42921103D01*
X53203548Y-42951548D01*
X53173103Y-42976534D01*
X53138364Y-42995102D01*
X53100677Y-43006535D01*
X53055339Y-43011000D01*
X51968661Y-43011000D01*
X51923323Y-43006535D01*
X51885636Y-42995102D01*
X51850897Y-42976534D01*
X51820452Y-42951548D01*
X51795466Y-42921103D01*
X51776898Y-42886364D01*
X51765465Y-42848677D01*
X51761000Y-42803339D01*
X51761000Y-41966661D01*
X51765465Y-41921323D01*
X51776898Y-41883636D01*
X51795466Y-41848897D01*
X51820452Y-41818452D01*
X51850897Y-41793466D01*
X51885636Y-41774898D01*
X51923323Y-41763465D01*
X51968661Y-41759000D01*
X53055339Y-41759000D01*
X53100677Y-41763465D01*
X53100677Y-41763465D01*
G37*
G36*
X38114677Y-41763465D02*
X38152364Y-41774898D01*
X38187103Y-41793466D01*
X38217548Y-41818452D01*
X38242534Y-41848897D01*
X38261102Y-41883636D01*
X38272535Y-41921323D01*
X38277000Y-41966661D01*
X38277000Y-42803339D01*
X38272535Y-42848677D01*
X38261102Y-42886364D01*
X38242534Y-42921103D01*
X38217548Y-42951548D01*
X38187103Y-42976534D01*
X38152364Y-42995102D01*
X38114677Y-43006535D01*
X38069339Y-43011000D01*
X36982661Y-43011000D01*
X36937323Y-43006535D01*
X36899636Y-42995102D01*
X36864897Y-42976534D01*
X36834452Y-42951548D01*
X36809466Y-42921103D01*
X36790898Y-42886364D01*
X36779465Y-42848677D01*
X36775000Y-42803339D01*
X36775000Y-41966661D01*
X36779465Y-41921323D01*
X36790898Y-41883636D01*
X36809466Y-41848897D01*
X36834452Y-41818452D01*
X36864897Y-41793466D01*
X36899636Y-41774898D01*
X36937323Y-41763465D01*
X36982661Y-41759000D01*
X38069339Y-41759000D01*
X38114677Y-41763465D01*
X38114677Y-41763465D01*
G37*
G36*
X65500822Y-39746087D02*
X65564114Y-39765287D01*
X65622448Y-39796467D01*
X65673574Y-39838426D01*
X65715533Y-39889552D01*
X65746713Y-39947886D01*
X65765913Y-40011178D01*
X65773000Y-40083139D01*
X65773000Y-40996861D01*
X65765913Y-41068822D01*
X65746713Y-41132114D01*
X65715533Y-41190448D01*
X65673574Y-41241574D01*
X65622448Y-41283533D01*
X65564114Y-41314713D01*
X65500822Y-41333913D01*
X65428861Y-41341000D01*
X59915139Y-41341000D01*
X59843178Y-41333913D01*
X59779886Y-41314713D01*
X59721552Y-41283533D01*
X59670426Y-41241574D01*
X59628467Y-41190448D01*
X59597287Y-41132114D01*
X59578087Y-41068822D01*
X59571000Y-40996861D01*
X59571000Y-40083139D01*
X59578087Y-40011178D01*
X59597287Y-39947886D01*
X59628467Y-39889552D01*
X59670426Y-39838426D01*
X59721552Y-39796467D01*
X59779886Y-39765287D01*
X59843178Y-39746087D01*
X59915139Y-39739000D01*
X65428861Y-39739000D01*
X65500822Y-39746087D01*
X65500822Y-39746087D01*
G37*
G36*
X45180822Y-39746087D02*
X45244114Y-39765287D01*
X45302448Y-39796467D01*
X45353574Y-39838426D01*
X45395533Y-39889552D01*
X45426713Y-39947886D01*
X45445913Y-40011178D01*
X45453000Y-40083139D01*
X45453000Y-40996861D01*
X45445913Y-41068822D01*
X45426713Y-41132114D01*
X45395533Y-41190448D01*
X45353574Y-41241574D01*
X45302448Y-41283533D01*
X45244114Y-41314713D01*
X45180822Y-41333913D01*
X45108861Y-41341000D01*
X39595139Y-41341000D01*
X39523178Y-41333913D01*
X39459886Y-41314713D01*
X39401552Y-41283533D01*
X39350426Y-41241574D01*
X39308467Y-41190448D01*
X39277287Y-41132114D01*
X39258087Y-41068822D01*
X39251000Y-40996861D01*
X39251000Y-40083139D01*
X39258087Y-40011178D01*
X39277287Y-39947886D01*
X39308467Y-39889552D01*
X39350426Y-39838426D01*
X39401552Y-39796467D01*
X39459886Y-39765287D01*
X39523178Y-39746087D01*
X39595139Y-39739000D01*
X45108861Y-39739000D01*
X45180822Y-39746087D01*
X45180822Y-39746087D01*
G37*
G36*
X25026677Y-39107465D02*
X25064364Y-39118898D01*
X25099103Y-39137466D01*
X25129548Y-39162452D01*
X25154534Y-39192897D01*
X25173102Y-39227636D01*
X25184535Y-39265323D01*
X25189000Y-39310661D01*
X25189000Y-40397339D01*
X25184535Y-40442677D01*
X25173102Y-40480364D01*
X25154534Y-40515103D01*
X25129548Y-40545548D01*
X25099103Y-40570534D01*
X25064364Y-40589102D01*
X25026677Y-40600535D01*
X24981339Y-40605000D01*
X24144661Y-40605000D01*
X24099323Y-40600535D01*
X24061636Y-40589102D01*
X24026897Y-40570534D01*
X23996452Y-40545548D01*
X23971466Y-40515103D01*
X23952898Y-40480364D01*
X23941465Y-40442677D01*
X23937000Y-40397339D01*
X23937000Y-39310661D01*
X23941465Y-39265323D01*
X23952898Y-39227636D01*
X23971466Y-39192897D01*
X23996452Y-39162452D01*
X24026897Y-39137466D01*
X24061636Y-39118898D01*
X24099323Y-39107465D01*
X24144661Y-39103000D01*
X24981339Y-39103000D01*
X25026677Y-39107465D01*
X25026677Y-39107465D01*
G37*
G36*
X27076677Y-39107465D02*
X27114364Y-39118898D01*
X27149103Y-39137466D01*
X27179548Y-39162452D01*
X27204534Y-39192897D01*
X27223102Y-39227636D01*
X27234535Y-39265323D01*
X27239000Y-39310661D01*
X27239000Y-40397339D01*
X27234535Y-40442677D01*
X27223102Y-40480364D01*
X27204534Y-40515103D01*
X27179548Y-40545548D01*
X27149103Y-40570534D01*
X27114364Y-40589102D01*
X27076677Y-40600535D01*
X27031339Y-40605000D01*
X26194661Y-40605000D01*
X26149323Y-40600535D01*
X26111636Y-40589102D01*
X26076897Y-40570534D01*
X26046452Y-40545548D01*
X26021466Y-40515103D01*
X26002898Y-40480364D01*
X25991465Y-40442677D01*
X25987000Y-40397339D01*
X25987000Y-39310661D01*
X25991465Y-39265323D01*
X26002898Y-39227636D01*
X26021466Y-39192897D01*
X26046452Y-39162452D01*
X26076897Y-39137466D01*
X26111636Y-39118898D01*
X26149323Y-39107465D01*
X26194661Y-39103000D01*
X27031339Y-39103000D01*
X27076677Y-39107465D01*
X27076677Y-39107465D01*
G37*
G36*
X65500822Y-37206087D02*
X65564114Y-37225287D01*
X65622448Y-37256467D01*
X65673574Y-37298426D01*
X65715533Y-37349552D01*
X65746713Y-37407886D01*
X65765913Y-37471178D01*
X65773000Y-37543139D01*
X65773000Y-38456861D01*
X65765913Y-38528822D01*
X65746713Y-38592114D01*
X65715533Y-38650448D01*
X65673574Y-38701574D01*
X65622448Y-38743533D01*
X65564114Y-38774713D01*
X65500822Y-38793913D01*
X65428861Y-38801000D01*
X59915139Y-38801000D01*
X59843178Y-38793913D01*
X59779886Y-38774713D01*
X59721552Y-38743533D01*
X59670426Y-38701574D01*
X59628467Y-38650448D01*
X59597287Y-38592114D01*
X59578087Y-38528822D01*
X59571000Y-38456861D01*
X59571000Y-37543139D01*
X59578087Y-37471178D01*
X59597287Y-37407886D01*
X59628467Y-37349552D01*
X59670426Y-37298426D01*
X59721552Y-37256467D01*
X59779886Y-37225287D01*
X59843178Y-37206087D01*
X59915139Y-37199000D01*
X65428861Y-37199000D01*
X65500822Y-37206087D01*
X65500822Y-37206087D01*
G37*
G36*
X45180822Y-37206087D02*
X45244114Y-37225287D01*
X45302448Y-37256467D01*
X45353574Y-37298426D01*
X45395533Y-37349552D01*
X45426713Y-37407886D01*
X45445913Y-37471178D01*
X45453000Y-37543139D01*
X45453000Y-38456861D01*
X45445913Y-38528822D01*
X45426713Y-38592114D01*
X45395533Y-38650448D01*
X45353574Y-38701574D01*
X45302448Y-38743533D01*
X45244114Y-38774713D01*
X45180822Y-38793913D01*
X45108861Y-38801000D01*
X39595139Y-38801000D01*
X39523178Y-38793913D01*
X39459886Y-38774713D01*
X39401552Y-38743533D01*
X39350426Y-38701574D01*
X39308467Y-38650448D01*
X39277287Y-38592114D01*
X39258087Y-38528822D01*
X39251000Y-38456861D01*
X39251000Y-37543139D01*
X39258087Y-37471178D01*
X39277287Y-37407886D01*
X39308467Y-37349552D01*
X39350426Y-37298426D01*
X39401552Y-37256467D01*
X39459886Y-37225287D01*
X39523178Y-37206087D01*
X39595139Y-37199000D01*
X45108861Y-37199000D01*
X45180822Y-37206087D01*
X45180822Y-37206087D01*
G37*
G36*
X25057000Y-37953000D02*
X24055000Y-37953000D01*
X24055000Y-37051000D01*
X25057000Y-37051000D01*
X25057000Y-37953000D01*
X25057000Y-37953000D01*
G37*
G36*
X28261000Y-37792000D02*
X26659000Y-37792000D01*
X26659000Y-37090000D01*
X28261000Y-37090000D01*
X28261000Y-37792000D01*
X28261000Y-37792000D01*
G37*
G36*
X33661000Y-37792000D02*
X32059000Y-37792000D01*
X32059000Y-37090000D01*
X33661000Y-37090000D01*
X33661000Y-37792000D01*
X33661000Y-37792000D01*
G37*
G36*
X23057000Y-37003000D02*
X22055000Y-37003000D01*
X22055000Y-36101000D01*
X23057000Y-36101000D01*
X23057000Y-37003000D01*
X23057000Y-37003000D01*
G37*
G36*
X28261000Y-36522000D02*
X26659000Y-36522000D01*
X26659000Y-35820000D01*
X28261000Y-35820000D01*
X28261000Y-36522000D01*
X28261000Y-36522000D01*
G37*
G36*
X33661000Y-36522000D02*
X32059000Y-36522000D01*
X32059000Y-35820000D01*
X33661000Y-35820000D01*
X33661000Y-36522000D01*
X33661000Y-36522000D01*
G37*
G36*
X65500822Y-34666087D02*
X65564114Y-34685287D01*
X65622448Y-34716467D01*
X65673574Y-34758426D01*
X65715533Y-34809552D01*
X65746713Y-34867886D01*
X65765913Y-34931178D01*
X65773000Y-35003139D01*
X65773000Y-35916861D01*
X65765913Y-35988822D01*
X65746713Y-36052114D01*
X65715533Y-36110448D01*
X65673574Y-36161574D01*
X65622448Y-36203533D01*
X65564114Y-36234713D01*
X65500822Y-36253913D01*
X65428861Y-36261000D01*
X59915139Y-36261000D01*
X59843178Y-36253913D01*
X59779886Y-36234713D01*
X59721552Y-36203533D01*
X59670426Y-36161574D01*
X59628467Y-36110448D01*
X59597287Y-36052114D01*
X59578087Y-35988822D01*
X59571000Y-35916861D01*
X59571000Y-35003139D01*
X59578087Y-34931178D01*
X59597287Y-34867886D01*
X59628467Y-34809552D01*
X59670426Y-34758426D01*
X59721552Y-34716467D01*
X59779886Y-34685287D01*
X59843178Y-34666087D01*
X59915139Y-34659000D01*
X65428861Y-34659000D01*
X65500822Y-34666087D01*
X65500822Y-34666087D01*
G37*
G36*
X45180822Y-34666087D02*
X45244114Y-34685287D01*
X45302448Y-34716467D01*
X45353574Y-34758426D01*
X45395533Y-34809552D01*
X45426713Y-34867886D01*
X45445913Y-34931178D01*
X45453000Y-35003139D01*
X45453000Y-35916861D01*
X45445913Y-35988822D01*
X45426713Y-36052114D01*
X45395533Y-36110448D01*
X45353574Y-36161574D01*
X45302448Y-36203533D01*
X45244114Y-36234713D01*
X45180822Y-36253913D01*
X45108861Y-36261000D01*
X39595139Y-36261000D01*
X39523178Y-36253913D01*
X39459886Y-36234713D01*
X39401552Y-36203533D01*
X39350426Y-36161574D01*
X39308467Y-36110448D01*
X39277287Y-36052114D01*
X39258087Y-35988822D01*
X39251000Y-35916861D01*
X39251000Y-35003139D01*
X39258087Y-34931178D01*
X39277287Y-34867886D01*
X39308467Y-34809552D01*
X39350426Y-34758426D01*
X39401552Y-34716467D01*
X39459886Y-34685287D01*
X39523178Y-34666087D01*
X39595139Y-34659000D01*
X45108861Y-34659000D01*
X45180822Y-34666087D01*
X45180822Y-34666087D01*
G37*
G36*
X25057000Y-36053000D02*
X24055000Y-36053000D01*
X24055000Y-35151000D01*
X25057000Y-35151000D01*
X25057000Y-36053000D01*
X25057000Y-36053000D01*
G37*
G36*
X28261000Y-35252000D02*
X26659000Y-35252000D01*
X26659000Y-34550000D01*
X28261000Y-34550000D01*
X28261000Y-35252000D01*
X28261000Y-35252000D01*
G37*
G36*
X33661000Y-35252000D02*
X32059000Y-35252000D01*
X32059000Y-34550000D01*
X33661000Y-34550000D01*
X33661000Y-35252000D01*
X33661000Y-35252000D01*
G37*
G36*
X33661000Y-33982000D02*
X32059000Y-33982000D01*
X32059000Y-33280000D01*
X33661000Y-33280000D01*
X33661000Y-33982000D01*
X33661000Y-33982000D01*
G37*
G36*
X28261000Y-33982000D02*
X26659000Y-33982000D01*
X26659000Y-33280000D01*
X28261000Y-33280000D01*
X28261000Y-33982000D01*
X28261000Y-33982000D01*
G37*
G36*
X45180822Y-32126087D02*
X45244114Y-32145287D01*
X45302448Y-32176467D01*
X45353574Y-32218426D01*
X45395533Y-32269552D01*
X45426713Y-32327886D01*
X45445913Y-32391178D01*
X45453000Y-32463139D01*
X45453000Y-33376861D01*
X45445913Y-33448822D01*
X45426713Y-33512114D01*
X45395533Y-33570448D01*
X45353574Y-33621574D01*
X45302448Y-33663533D01*
X45244114Y-33694713D01*
X45180822Y-33713913D01*
X45108861Y-33721000D01*
X39595139Y-33721000D01*
X39523178Y-33713913D01*
X39459886Y-33694713D01*
X39401552Y-33663533D01*
X39350426Y-33621574D01*
X39308467Y-33570448D01*
X39277287Y-33512114D01*
X39258087Y-33448822D01*
X39251000Y-33376861D01*
X39251000Y-32463139D01*
X39258087Y-32391178D01*
X39277287Y-32327886D01*
X39308467Y-32269552D01*
X39350426Y-32218426D01*
X39401552Y-32176467D01*
X39459886Y-32145287D01*
X39523178Y-32126087D01*
X39595139Y-32119000D01*
X45108861Y-32119000D01*
X45180822Y-32126087D01*
X45180822Y-32126087D01*
G37*
G36*
X65500822Y-32126087D02*
X65564114Y-32145287D01*
X65622448Y-32176467D01*
X65673574Y-32218426D01*
X65715533Y-32269552D01*
X65746713Y-32327886D01*
X65765913Y-32391178D01*
X65773000Y-32463139D01*
X65773000Y-33376861D01*
X65765913Y-33448822D01*
X65746713Y-33512114D01*
X65715533Y-33570448D01*
X65673574Y-33621574D01*
X65622448Y-33663533D01*
X65564114Y-33694713D01*
X65500822Y-33713913D01*
X65428861Y-33721000D01*
X59915139Y-33721000D01*
X59843178Y-33713913D01*
X59779886Y-33694713D01*
X59721552Y-33663533D01*
X59670426Y-33621574D01*
X59628467Y-33570448D01*
X59597287Y-33512114D01*
X59578087Y-33448822D01*
X59571000Y-33376861D01*
X59571000Y-32463139D01*
X59578087Y-32391178D01*
X59597287Y-32327886D01*
X59628467Y-32269552D01*
X59670426Y-32218426D01*
X59721552Y-32176467D01*
X59779886Y-32145287D01*
X59843178Y-32126087D01*
X59915139Y-32119000D01*
X65428861Y-32119000D01*
X65500822Y-32126087D01*
X65500822Y-32126087D01*
G37*
G36*
X67791981Y-31537468D02*
X67974150Y-31612925D01*
X68138103Y-31722475D01*
X68277525Y-31861897D01*
X68387075Y-32025850D01*
X68462532Y-32208019D01*
X68501000Y-32401410D01*
X68501000Y-32598590D01*
X68462532Y-32791981D01*
X68387075Y-32974150D01*
X68277525Y-33138103D01*
X68138103Y-33277525D01*
X67974150Y-33387075D01*
X67791981Y-33462532D01*
X67598590Y-33501000D01*
X67401410Y-33501000D01*
X67208019Y-33462532D01*
X67025850Y-33387075D01*
X66861897Y-33277525D01*
X66722475Y-33138103D01*
X66612925Y-32974150D01*
X66537468Y-32791981D01*
X66499000Y-32598590D01*
X66499000Y-32401410D01*
X66537468Y-32208019D01*
X66612925Y-32025850D01*
X66722475Y-31861897D01*
X66861897Y-31722475D01*
X67025850Y-31612925D01*
X67208019Y-31537468D01*
X67401410Y-31499000D01*
X67598590Y-31499000D01*
X67791981Y-31537468D01*
X67791981Y-31537468D01*
G37*
G36*
X22791981Y-31537468D02*
X22974150Y-31612925D01*
X23138103Y-31722475D01*
X23277525Y-31861897D01*
X23387075Y-32025850D01*
X23462532Y-32208019D01*
X23501000Y-32401410D01*
X23501000Y-32598590D01*
X23462532Y-32791981D01*
X23387075Y-32974150D01*
X23277525Y-33138103D01*
X23138103Y-33277525D01*
X22974150Y-33387075D01*
X22825080Y-33448822D01*
X22791981Y-33462532D01*
X22598590Y-33501000D01*
X22401410Y-33501000D01*
X22208019Y-33462532D01*
X22174920Y-33448822D01*
X22025850Y-33387075D01*
X21861897Y-33277525D01*
X21722475Y-33138103D01*
X21612925Y-32974150D01*
X21537468Y-32791981D01*
X21499000Y-32598590D01*
X21499000Y-32401410D01*
X21537468Y-32208019D01*
X21612925Y-32025850D01*
X21722475Y-31861897D01*
X21861897Y-31722475D01*
X22025850Y-31612925D01*
X22208019Y-31537468D01*
X22401410Y-31499000D01*
X22598590Y-31499000D01*
X22791981Y-31537468D01*
X22791981Y-31537468D01*
G37*
G36*
X52791981Y-31537468D02*
X52974150Y-31612925D01*
X53138103Y-31722475D01*
X53277525Y-31861897D01*
X53387075Y-32025850D01*
X53462532Y-32208019D01*
X53501000Y-32401410D01*
X53501000Y-32598590D01*
X53462532Y-32791981D01*
X53387075Y-32974150D01*
X53277525Y-33138103D01*
X53138103Y-33277525D01*
X52974150Y-33387075D01*
X52825080Y-33448822D01*
X52791981Y-33462532D01*
X52598590Y-33501000D01*
X52401410Y-33501000D01*
X52208019Y-33462532D01*
X52174920Y-33448822D01*
X52025850Y-33387075D01*
X51861897Y-33277525D01*
X51722475Y-33138103D01*
X51612925Y-32974150D01*
X51537468Y-32791981D01*
X51499000Y-32598590D01*
X51499000Y-32401410D01*
X51537468Y-32208019D01*
X51612925Y-32025850D01*
X51722475Y-31861897D01*
X51861897Y-31722475D01*
X52025850Y-31612925D01*
X52208019Y-31537468D01*
X52401410Y-31499000D01*
X52598590Y-31499000D01*
X52791981Y-31537468D01*
X52791981Y-31537468D01*
G37*
G36*
X37791981Y-31537468D02*
X37974150Y-31612925D01*
X38138103Y-31722475D01*
X38277525Y-31861897D01*
X38387075Y-32025850D01*
X38462532Y-32208019D01*
X38501000Y-32401410D01*
X38501000Y-32598590D01*
X38462532Y-32791981D01*
X38387075Y-32974150D01*
X38277525Y-33138103D01*
X38138103Y-33277525D01*
X37974150Y-33387075D01*
X37825080Y-33448822D01*
X37791981Y-33462532D01*
X37598590Y-33501000D01*
X37401410Y-33501000D01*
X37208019Y-33462532D01*
X37174920Y-33448822D01*
X37025850Y-33387075D01*
X36861897Y-33277525D01*
X36722475Y-33138103D01*
X36612925Y-32974150D01*
X36537468Y-32791981D01*
X36499000Y-32598590D01*
X36499000Y-32401410D01*
X36537468Y-32208019D01*
X36612925Y-32025850D01*
X36722475Y-31861897D01*
X36861897Y-31722475D01*
X37025850Y-31612925D01*
X37208019Y-31537468D01*
X37401410Y-31499000D01*
X37598590Y-31499000D01*
X37791981Y-31537468D01*
X37791981Y-31537468D01*
G37*
G36*
X28261000Y-32712000D02*
X26659000Y-32712000D01*
X26659000Y-32010000D01*
X28261000Y-32010000D01*
X28261000Y-32712000D01*
X28261000Y-32712000D01*
G37*
G36*
X33661000Y-32712000D02*
X32059000Y-32712000D01*
X32059000Y-32010000D01*
X33661000Y-32010000D01*
X33661000Y-32712000D01*
X33661000Y-32712000D01*
G37*
G36*
X28261000Y-31442000D02*
X26659000Y-31442000D01*
X26659000Y-30740000D01*
X28261000Y-30740000D01*
X28261000Y-31442000D01*
X28261000Y-31442000D01*
G37*
G36*
X33661000Y-31442000D02*
X32059000Y-31442000D01*
X32059000Y-30740000D01*
X33661000Y-30740000D01*
X33661000Y-31442000D01*
X33661000Y-31442000D01*
G37*
G36*
X45180822Y-29586087D02*
X45244114Y-29605287D01*
X45302448Y-29636467D01*
X45353574Y-29678426D01*
X45395533Y-29729552D01*
X45426713Y-29787886D01*
X45445913Y-29851178D01*
X45453000Y-29923139D01*
X45453000Y-30836861D01*
X45445913Y-30908822D01*
X45426713Y-30972114D01*
X45395533Y-31030448D01*
X45353574Y-31081574D01*
X45302448Y-31123533D01*
X45244114Y-31154713D01*
X45180822Y-31173913D01*
X45108861Y-31181000D01*
X39595139Y-31181000D01*
X39523178Y-31173913D01*
X39459886Y-31154713D01*
X39401552Y-31123533D01*
X39350426Y-31081574D01*
X39308467Y-31030448D01*
X39277287Y-30972114D01*
X39258087Y-30908822D01*
X39251000Y-30836861D01*
X39251000Y-29923139D01*
X39258087Y-29851178D01*
X39277287Y-29787886D01*
X39308467Y-29729552D01*
X39350426Y-29678426D01*
X39401552Y-29636467D01*
X39459886Y-29605287D01*
X39523178Y-29586087D01*
X39595139Y-29579000D01*
X45108861Y-29579000D01*
X45180822Y-29586087D01*
X45180822Y-29586087D01*
G37*
G36*
X65500822Y-29586087D02*
X65564114Y-29605287D01*
X65622448Y-29636467D01*
X65673574Y-29678426D01*
X65715533Y-29729552D01*
X65746713Y-29787886D01*
X65765913Y-29851178D01*
X65773000Y-29923139D01*
X65773000Y-30836861D01*
X65765913Y-30908822D01*
X65746713Y-30972114D01*
X65715533Y-31030448D01*
X65673574Y-31081574D01*
X65622448Y-31123533D01*
X65564114Y-31154713D01*
X65500822Y-31173913D01*
X65428861Y-31181000D01*
X59915139Y-31181000D01*
X59843178Y-31173913D01*
X59779886Y-31154713D01*
X59721552Y-31123533D01*
X59670426Y-31081574D01*
X59628467Y-31030448D01*
X59597287Y-30972114D01*
X59578087Y-30908822D01*
X59571000Y-30836861D01*
X59571000Y-29923139D01*
X59578087Y-29851178D01*
X59597287Y-29787886D01*
X59628467Y-29729552D01*
X59670426Y-29678426D01*
X59721552Y-29636467D01*
X59779886Y-29605287D01*
X59843178Y-29586087D01*
X59915139Y-29579000D01*
X65428861Y-29579000D01*
X65500822Y-29586087D01*
X65500822Y-29586087D01*
G37*
G36*
X68086677Y-29081465D02*
X68124364Y-29092898D01*
X68159103Y-29111466D01*
X68189548Y-29136452D01*
X68214534Y-29166897D01*
X68233102Y-29201636D01*
X68244535Y-29239323D01*
X68249000Y-29284661D01*
X68249000Y-30121339D01*
X68244535Y-30166677D01*
X68233102Y-30204364D01*
X68214534Y-30239103D01*
X68189548Y-30269548D01*
X68159103Y-30294534D01*
X68124364Y-30313102D01*
X68086677Y-30324535D01*
X68041339Y-30329000D01*
X66954661Y-30329000D01*
X66909323Y-30324535D01*
X66871636Y-30313102D01*
X66836897Y-30294534D01*
X66806452Y-30269548D01*
X66781466Y-30239103D01*
X66762898Y-30204364D01*
X66751465Y-30166677D01*
X66747000Y-30121339D01*
X66747000Y-29284661D01*
X66751465Y-29239323D01*
X66762898Y-29201636D01*
X66781466Y-29166897D01*
X66806452Y-29136452D01*
X66836897Y-29111466D01*
X66871636Y-29092898D01*
X66909323Y-29081465D01*
X66954661Y-29077000D01*
X68041339Y-29077000D01*
X68086677Y-29081465D01*
X68086677Y-29081465D01*
G37*
G36*
X53100677Y-29081465D02*
X53138364Y-29092898D01*
X53173103Y-29111466D01*
X53203548Y-29136452D01*
X53228534Y-29166897D01*
X53247102Y-29201636D01*
X53258535Y-29239323D01*
X53263000Y-29284661D01*
X53263000Y-30121339D01*
X53258535Y-30166677D01*
X53247102Y-30204364D01*
X53228534Y-30239103D01*
X53203548Y-30269548D01*
X53173103Y-30294534D01*
X53138364Y-30313102D01*
X53100677Y-30324535D01*
X53055339Y-30329000D01*
X51968661Y-30329000D01*
X51923323Y-30324535D01*
X51885636Y-30313102D01*
X51850897Y-30294534D01*
X51820452Y-30269548D01*
X51795466Y-30239103D01*
X51776898Y-30204364D01*
X51765465Y-30166677D01*
X51761000Y-30121339D01*
X51761000Y-29284661D01*
X51765465Y-29239323D01*
X51776898Y-29201636D01*
X51795466Y-29166897D01*
X51820452Y-29136452D01*
X51850897Y-29111466D01*
X51885636Y-29092898D01*
X51923323Y-29081465D01*
X51968661Y-29077000D01*
X53055339Y-29077000D01*
X53100677Y-29081465D01*
X53100677Y-29081465D01*
G37*
G36*
X38114677Y-29081465D02*
X38152364Y-29092898D01*
X38187103Y-29111466D01*
X38217548Y-29136452D01*
X38242534Y-29166897D01*
X38261102Y-29201636D01*
X38272535Y-29239323D01*
X38277000Y-29284661D01*
X38277000Y-30121339D01*
X38272535Y-30166677D01*
X38261102Y-30204364D01*
X38242534Y-30239103D01*
X38217548Y-30269548D01*
X38187103Y-30294534D01*
X38152364Y-30313102D01*
X38114677Y-30324535D01*
X38069339Y-30329000D01*
X36982661Y-30329000D01*
X36937323Y-30324535D01*
X36899636Y-30313102D01*
X36864897Y-30294534D01*
X36834452Y-30269548D01*
X36809466Y-30239103D01*
X36790898Y-30204364D01*
X36779465Y-30166677D01*
X36775000Y-30121339D01*
X36775000Y-29284661D01*
X36779465Y-29239323D01*
X36790898Y-29201636D01*
X36809466Y-29166897D01*
X36834452Y-29136452D01*
X36864897Y-29111466D01*
X36899636Y-29092898D01*
X36937323Y-29081465D01*
X36982661Y-29077000D01*
X38069339Y-29077000D01*
X38114677Y-29081465D01*
X38114677Y-29081465D01*
G37*
G36*
X23128677Y-29081465D02*
X23166364Y-29092898D01*
X23201103Y-29111466D01*
X23231548Y-29136452D01*
X23256534Y-29166897D01*
X23275102Y-29201636D01*
X23286535Y-29239323D01*
X23291000Y-29284661D01*
X23291000Y-30121339D01*
X23286535Y-30166677D01*
X23275102Y-30204364D01*
X23256534Y-30239103D01*
X23231548Y-30269548D01*
X23201103Y-30294534D01*
X23166364Y-30313102D01*
X23128677Y-30324535D01*
X23083339Y-30329000D01*
X21996661Y-30329000D01*
X21951323Y-30324535D01*
X21913636Y-30313102D01*
X21878897Y-30294534D01*
X21848452Y-30269548D01*
X21823466Y-30239103D01*
X21804898Y-30204364D01*
X21793465Y-30166677D01*
X21789000Y-30121339D01*
X21789000Y-29284661D01*
X21793465Y-29239323D01*
X21804898Y-29201636D01*
X21823466Y-29166897D01*
X21848452Y-29136452D01*
X21878897Y-29111466D01*
X21913636Y-29092898D01*
X21951323Y-29081465D01*
X21996661Y-29077000D01*
X23083339Y-29077000D01*
X23128677Y-29081465D01*
X23128677Y-29081465D01*
G37*
G36*
X33661000Y-30172000D02*
X32059000Y-30172000D01*
X32059000Y-29470000D01*
X33661000Y-29470000D01*
X33661000Y-30172000D01*
X33661000Y-30172000D01*
G37*
G36*
X28261000Y-30172000D02*
X26659000Y-30172000D01*
X26659000Y-29470000D01*
X28261000Y-29470000D01*
X28261000Y-30172000D01*
X28261000Y-30172000D01*
G37*
G36*
X25668677Y-27811465D02*
X25706364Y-27822898D01*
X25741103Y-27841466D01*
X25771548Y-27866452D01*
X25796534Y-27896897D01*
X25815102Y-27931636D01*
X25826535Y-27969323D01*
X25831000Y-28014661D01*
X25831000Y-28851339D01*
X25826535Y-28896677D01*
X25815102Y-28934364D01*
X25796534Y-28969103D01*
X25771548Y-28999548D01*
X25741103Y-29024534D01*
X25706364Y-29043102D01*
X25668677Y-29054535D01*
X25623339Y-29059000D01*
X24536661Y-29059000D01*
X24491323Y-29054535D01*
X24453636Y-29043102D01*
X24418897Y-29024534D01*
X24388452Y-28999548D01*
X24363466Y-28969103D01*
X24344898Y-28934364D01*
X24333465Y-28896677D01*
X24329000Y-28851339D01*
X24329000Y-28014661D01*
X24333465Y-27969323D01*
X24344898Y-27931636D01*
X24363466Y-27896897D01*
X24388452Y-27866452D01*
X24418897Y-27841466D01*
X24453636Y-27822898D01*
X24491323Y-27811465D01*
X24536661Y-27807000D01*
X25623339Y-27807000D01*
X25668677Y-27811465D01*
X25668677Y-27811465D01*
G37*
G36*
X33661000Y-28902000D02*
X32059000Y-28902000D01*
X32059000Y-28200000D01*
X33661000Y-28200000D01*
X33661000Y-28902000D01*
X33661000Y-28902000D01*
G37*
G36*
X28261000Y-28902000D02*
X26659000Y-28902000D01*
X26659000Y-28200000D01*
X28261000Y-28200000D01*
X28261000Y-28902000D01*
X28261000Y-28902000D01*
G37*
G36*
X65500822Y-27046087D02*
X65564114Y-27065287D01*
X65622448Y-27096467D01*
X65673574Y-27138426D01*
X65715533Y-27189552D01*
X65746713Y-27247886D01*
X65765913Y-27311178D01*
X65773000Y-27383139D01*
X65773000Y-28296861D01*
X65765913Y-28368822D01*
X65746713Y-28432114D01*
X65715533Y-28490448D01*
X65673574Y-28541574D01*
X65622448Y-28583533D01*
X65564114Y-28614713D01*
X65500822Y-28633913D01*
X65428861Y-28641000D01*
X59915139Y-28641000D01*
X59843178Y-28633913D01*
X59779886Y-28614713D01*
X59721552Y-28583533D01*
X59670426Y-28541574D01*
X59628467Y-28490448D01*
X59597287Y-28432114D01*
X59578087Y-28368822D01*
X59571000Y-28296861D01*
X59571000Y-27383139D01*
X59578087Y-27311178D01*
X59597287Y-27247886D01*
X59628467Y-27189552D01*
X59670426Y-27138426D01*
X59721552Y-27096467D01*
X59779886Y-27065287D01*
X59843178Y-27046087D01*
X59915139Y-27039000D01*
X65428861Y-27039000D01*
X65500822Y-27046087D01*
X65500822Y-27046087D01*
G37*
G36*
X45180822Y-27046087D02*
X45244114Y-27065287D01*
X45302448Y-27096467D01*
X45353574Y-27138426D01*
X45395533Y-27189552D01*
X45426713Y-27247886D01*
X45445913Y-27311178D01*
X45453000Y-27383139D01*
X45453000Y-28296861D01*
X45445913Y-28368822D01*
X45426713Y-28432114D01*
X45395533Y-28490448D01*
X45353574Y-28541574D01*
X45302448Y-28583533D01*
X45244114Y-28614713D01*
X45180822Y-28633913D01*
X45108861Y-28641000D01*
X39595139Y-28641000D01*
X39523178Y-28633913D01*
X39459886Y-28614713D01*
X39401552Y-28583533D01*
X39350426Y-28541574D01*
X39308467Y-28490448D01*
X39277287Y-28432114D01*
X39258087Y-28368822D01*
X39251000Y-28296861D01*
X39251000Y-27383139D01*
X39258087Y-27311178D01*
X39277287Y-27247886D01*
X39308467Y-27189552D01*
X39350426Y-27138426D01*
X39401552Y-27096467D01*
X39459886Y-27065287D01*
X39523178Y-27046087D01*
X39595139Y-27039000D01*
X45108861Y-27039000D01*
X45180822Y-27046087D01*
X45180822Y-27046087D01*
G37*
G36*
X68086677Y-27031465D02*
X68124364Y-27042898D01*
X68159103Y-27061466D01*
X68189548Y-27086452D01*
X68214534Y-27116897D01*
X68233102Y-27151636D01*
X68244535Y-27189323D01*
X68249000Y-27234661D01*
X68249000Y-28071339D01*
X68244535Y-28116677D01*
X68233102Y-28154364D01*
X68214534Y-28189103D01*
X68189548Y-28219548D01*
X68159103Y-28244534D01*
X68124364Y-28263102D01*
X68086677Y-28274535D01*
X68041339Y-28279000D01*
X66954661Y-28279000D01*
X66909323Y-28274535D01*
X66871636Y-28263102D01*
X66836897Y-28244534D01*
X66806452Y-28219548D01*
X66781466Y-28189103D01*
X66762898Y-28154364D01*
X66751465Y-28116677D01*
X66747000Y-28071339D01*
X66747000Y-27234661D01*
X66751465Y-27189323D01*
X66762898Y-27151636D01*
X66781466Y-27116897D01*
X66806452Y-27086452D01*
X66836897Y-27061466D01*
X66871636Y-27042898D01*
X66909323Y-27031465D01*
X66954661Y-27027000D01*
X68041339Y-27027000D01*
X68086677Y-27031465D01*
X68086677Y-27031465D01*
G37*
G36*
X23128677Y-27031465D02*
X23166364Y-27042898D01*
X23201103Y-27061466D01*
X23231548Y-27086452D01*
X23256534Y-27116897D01*
X23275102Y-27151636D01*
X23286535Y-27189323D01*
X23291000Y-27234661D01*
X23291000Y-28071339D01*
X23286535Y-28116677D01*
X23275102Y-28154364D01*
X23256534Y-28189103D01*
X23231548Y-28219548D01*
X23201103Y-28244534D01*
X23166364Y-28263102D01*
X23128677Y-28274535D01*
X23083339Y-28279000D01*
X21996661Y-28279000D01*
X21951323Y-28274535D01*
X21913636Y-28263102D01*
X21878897Y-28244534D01*
X21848452Y-28219548D01*
X21823466Y-28189103D01*
X21804898Y-28154364D01*
X21793465Y-28116677D01*
X21789000Y-28071339D01*
X21789000Y-27234661D01*
X21793465Y-27189323D01*
X21804898Y-27151636D01*
X21823466Y-27116897D01*
X21848452Y-27086452D01*
X21878897Y-27061466D01*
X21913636Y-27042898D01*
X21951323Y-27031465D01*
X21996661Y-27027000D01*
X23083339Y-27027000D01*
X23128677Y-27031465D01*
X23128677Y-27031465D01*
G37*
G36*
X38114677Y-27031465D02*
X38152364Y-27042898D01*
X38187103Y-27061466D01*
X38217548Y-27086452D01*
X38242534Y-27116897D01*
X38261102Y-27151636D01*
X38272535Y-27189323D01*
X38277000Y-27234661D01*
X38277000Y-28071339D01*
X38272535Y-28116677D01*
X38261102Y-28154364D01*
X38242534Y-28189103D01*
X38217548Y-28219548D01*
X38187103Y-28244534D01*
X38152364Y-28263102D01*
X38114677Y-28274535D01*
X38069339Y-28279000D01*
X36982661Y-28279000D01*
X36937323Y-28274535D01*
X36899636Y-28263102D01*
X36864897Y-28244534D01*
X36834452Y-28219548D01*
X36809466Y-28189103D01*
X36790898Y-28154364D01*
X36779465Y-28116677D01*
X36775000Y-28071339D01*
X36775000Y-27234661D01*
X36779465Y-27189323D01*
X36790898Y-27151636D01*
X36809466Y-27116897D01*
X36834452Y-27086452D01*
X36864897Y-27061466D01*
X36899636Y-27042898D01*
X36937323Y-27031465D01*
X36982661Y-27027000D01*
X38069339Y-27027000D01*
X38114677Y-27031465D01*
X38114677Y-27031465D01*
G37*
G36*
X53100677Y-27031465D02*
X53138364Y-27042898D01*
X53173103Y-27061466D01*
X53203548Y-27086452D01*
X53228534Y-27116897D01*
X53247102Y-27151636D01*
X53258535Y-27189323D01*
X53263000Y-27234661D01*
X53263000Y-28071339D01*
X53258535Y-28116677D01*
X53247102Y-28154364D01*
X53228534Y-28189103D01*
X53203548Y-28219548D01*
X53173103Y-28244534D01*
X53138364Y-28263102D01*
X53100677Y-28274535D01*
X53055339Y-28279000D01*
X51968661Y-28279000D01*
X51923323Y-28274535D01*
X51885636Y-28263102D01*
X51850897Y-28244534D01*
X51820452Y-28219548D01*
X51795466Y-28189103D01*
X51776898Y-28154364D01*
X51765465Y-28116677D01*
X51761000Y-28071339D01*
X51761000Y-27234661D01*
X51765465Y-27189323D01*
X51776898Y-27151636D01*
X51795466Y-27116897D01*
X51820452Y-27086452D01*
X51850897Y-27061466D01*
X51885636Y-27042898D01*
X51923323Y-27031465D01*
X51968661Y-27027000D01*
X53055339Y-27027000D01*
X53100677Y-27031465D01*
X53100677Y-27031465D01*
G37*
G36*
X33661000Y-27124000D02*
X32059000Y-27124000D01*
X32059000Y-26422000D01*
X33661000Y-26422000D01*
X33661000Y-27124000D01*
X33661000Y-27124000D01*
G37*
G36*
X28261000Y-27124000D02*
X26659000Y-27124000D01*
X26659000Y-26422000D01*
X28261000Y-26422000D01*
X28261000Y-27124000D01*
X28261000Y-27124000D01*
G37*
G36*
X25668677Y-25761465D02*
X25706364Y-25772898D01*
X25741103Y-25791466D01*
X25771548Y-25816452D01*
X25796534Y-25846897D01*
X25815102Y-25881636D01*
X25826535Y-25919323D01*
X25831000Y-25964661D01*
X25831000Y-26801339D01*
X25826535Y-26846677D01*
X25815102Y-26884364D01*
X25796534Y-26919103D01*
X25771548Y-26949548D01*
X25741103Y-26974534D01*
X25706364Y-26993102D01*
X25668677Y-27004535D01*
X25623339Y-27009000D01*
X24536661Y-27009000D01*
X24491323Y-27004535D01*
X24453636Y-26993102D01*
X24418897Y-26974534D01*
X24388452Y-26949548D01*
X24363466Y-26919103D01*
X24344898Y-26884364D01*
X24333465Y-26846677D01*
X24329000Y-26801339D01*
X24329000Y-25964661D01*
X24333465Y-25919323D01*
X24344898Y-25881636D01*
X24363466Y-25846897D01*
X24388452Y-25816452D01*
X24418897Y-25791466D01*
X24453636Y-25772898D01*
X24491323Y-25761465D01*
X24536661Y-25757000D01*
X25623339Y-25757000D01*
X25668677Y-25761465D01*
X25668677Y-25761465D01*
G37*
G36*
X65500822Y-24506087D02*
X65564114Y-24525287D01*
X65622448Y-24556467D01*
X65673574Y-24598426D01*
X65715533Y-24649552D01*
X65746713Y-24707886D01*
X65765913Y-24771178D01*
X65773000Y-24843139D01*
X65773000Y-25756861D01*
X65765913Y-25828822D01*
X65746713Y-25892114D01*
X65715533Y-25950448D01*
X65673574Y-26001574D01*
X65622448Y-26043533D01*
X65564114Y-26074713D01*
X65500822Y-26093913D01*
X65428861Y-26101000D01*
X59915139Y-26101000D01*
X59843178Y-26093913D01*
X59779886Y-26074713D01*
X59721552Y-26043533D01*
X59670426Y-26001574D01*
X59628467Y-25950448D01*
X59597287Y-25892114D01*
X59578087Y-25828822D01*
X59571000Y-25756861D01*
X59571000Y-24843139D01*
X59578087Y-24771178D01*
X59597287Y-24707886D01*
X59628467Y-24649552D01*
X59670426Y-24598426D01*
X59721552Y-24556467D01*
X59779886Y-24525287D01*
X59843178Y-24506087D01*
X59915139Y-24499000D01*
X65428861Y-24499000D01*
X65500822Y-24506087D01*
X65500822Y-24506087D01*
G37*
G36*
X45180822Y-24506087D02*
X45244114Y-24525287D01*
X45302448Y-24556467D01*
X45353574Y-24598426D01*
X45395533Y-24649552D01*
X45426713Y-24707886D01*
X45445913Y-24771178D01*
X45453000Y-24843139D01*
X45453000Y-25756861D01*
X45445913Y-25828822D01*
X45426713Y-25892114D01*
X45395533Y-25950448D01*
X45353574Y-26001574D01*
X45302448Y-26043533D01*
X45244114Y-26074713D01*
X45180822Y-26093913D01*
X45108861Y-26101000D01*
X39595139Y-26101000D01*
X39523178Y-26093913D01*
X39459886Y-26074713D01*
X39401552Y-26043533D01*
X39350426Y-26001574D01*
X39308467Y-25950448D01*
X39277287Y-25892114D01*
X39258087Y-25828822D01*
X39251000Y-25756861D01*
X39251000Y-24843139D01*
X39258087Y-24771178D01*
X39277287Y-24707886D01*
X39308467Y-24649552D01*
X39350426Y-24598426D01*
X39401552Y-24556467D01*
X39459886Y-24525287D01*
X39523178Y-24506087D01*
X39595139Y-24499000D01*
X45108861Y-24499000D01*
X45180822Y-24506087D01*
X45180822Y-24506087D01*
G37*
G36*
X22791981Y-24037468D02*
X22974150Y-24112925D01*
X23138103Y-24222475D01*
X23277525Y-24361897D01*
X23387075Y-24525850D01*
X23462532Y-24708019D01*
X23501000Y-24901410D01*
X23501000Y-25098590D01*
X23462532Y-25291981D01*
X23387075Y-25474150D01*
X23277525Y-25638103D01*
X23138103Y-25777525D01*
X22974150Y-25887075D01*
X22791981Y-25962532D01*
X22598590Y-26001000D01*
X22401410Y-26001000D01*
X22208019Y-25962532D01*
X22025850Y-25887075D01*
X21861897Y-25777525D01*
X21722475Y-25638103D01*
X21612925Y-25474150D01*
X21537468Y-25291981D01*
X21499000Y-25098590D01*
X21499000Y-24901410D01*
X21537468Y-24708019D01*
X21612925Y-24525850D01*
X21722475Y-24361897D01*
X21861897Y-24222475D01*
X22025850Y-24112925D01*
X22208019Y-24037468D01*
X22401410Y-23999000D01*
X22598590Y-23999000D01*
X22791981Y-24037468D01*
X22791981Y-24037468D01*
G37*
G36*
X33661000Y-25854000D02*
X32059000Y-25854000D01*
X32059000Y-25152000D01*
X33661000Y-25152000D01*
X33661000Y-25854000D01*
X33661000Y-25854000D01*
G37*
G36*
X28261000Y-25854000D02*
X26659000Y-25854000D01*
X26659000Y-25152000D01*
X28261000Y-25152000D01*
X28261000Y-25854000D01*
X28261000Y-25854000D01*
G37*
G36*
X33661000Y-24584000D02*
X32059000Y-24584000D01*
X32059000Y-23882000D01*
X33661000Y-23882000D01*
X33661000Y-24584000D01*
X33661000Y-24584000D01*
G37*
G36*
X28261000Y-24584000D02*
X26659000Y-24584000D01*
X26659000Y-23882000D01*
X28261000Y-23882000D01*
X28261000Y-24584000D01*
X28261000Y-24584000D01*
G37*
G36*
X28261000Y-23314000D02*
X26659000Y-23314000D01*
X26659000Y-22612000D01*
X28261000Y-22612000D01*
X28261000Y-23314000D01*
X28261000Y-23314000D01*
G37*
G36*
X33661000Y-23314000D02*
X32059000Y-23314000D01*
X32059000Y-22612000D01*
X33661000Y-22612000D01*
X33661000Y-23314000D01*
X33661000Y-23314000D01*
G37*
G36*
X60593677Y-21512265D02*
X60631364Y-21523698D01*
X60666103Y-21542266D01*
X60696548Y-21567252D01*
X60721534Y-21597697D01*
X60740102Y-21632436D01*
X60751535Y-21670123D01*
X60756000Y-21715461D01*
X60756000Y-22552139D01*
X60751535Y-22597477D01*
X60740102Y-22635164D01*
X60721534Y-22669903D01*
X60696548Y-22700348D01*
X60666103Y-22725334D01*
X60631364Y-22743902D01*
X60593677Y-22755335D01*
X60548339Y-22759800D01*
X59461661Y-22759800D01*
X59416323Y-22755335D01*
X59378636Y-22743902D01*
X59343897Y-22725334D01*
X59313452Y-22700348D01*
X59288466Y-22669903D01*
X59269898Y-22635164D01*
X59258465Y-22597477D01*
X59254000Y-22552139D01*
X59254000Y-21715461D01*
X59258465Y-21670123D01*
X59269898Y-21632436D01*
X59288466Y-21597697D01*
X59313452Y-21567252D01*
X59343897Y-21542266D01*
X59378636Y-21523698D01*
X59416323Y-21512265D01*
X59461661Y-21507800D01*
X60548339Y-21507800D01*
X60593677Y-21512265D01*
X60593677Y-21512265D01*
G37*
G36*
X68086677Y-21461465D02*
X68124364Y-21472898D01*
X68159103Y-21491466D01*
X68189548Y-21516452D01*
X68214534Y-21546897D01*
X68233102Y-21581636D01*
X68244535Y-21619323D01*
X68249000Y-21664661D01*
X68249000Y-22501339D01*
X68244535Y-22546677D01*
X68233102Y-22584364D01*
X68214534Y-22619103D01*
X68189548Y-22649548D01*
X68159103Y-22674534D01*
X68124364Y-22693102D01*
X68086677Y-22704535D01*
X68041339Y-22709000D01*
X66954661Y-22709000D01*
X66909323Y-22704535D01*
X66871636Y-22693102D01*
X66836897Y-22674534D01*
X66806452Y-22649548D01*
X66781466Y-22619103D01*
X66762898Y-22584364D01*
X66751465Y-22546677D01*
X66747000Y-22501339D01*
X66747000Y-21664661D01*
X66751465Y-21619323D01*
X66762898Y-21581636D01*
X66781466Y-21546897D01*
X66806452Y-21516452D01*
X66836897Y-21491466D01*
X66871636Y-21472898D01*
X66909323Y-21461465D01*
X66954661Y-21457000D01*
X68041339Y-21457000D01*
X68086677Y-21461465D01*
X68086677Y-21461465D01*
G37*
G36*
X53100677Y-21461465D02*
X53138364Y-21472898D01*
X53173103Y-21491466D01*
X53203548Y-21516452D01*
X53228534Y-21546897D01*
X53247102Y-21581636D01*
X53258535Y-21619323D01*
X53263000Y-21664661D01*
X53263000Y-22501339D01*
X53258535Y-22546677D01*
X53247102Y-22584364D01*
X53228534Y-22619103D01*
X53203548Y-22649548D01*
X53173103Y-22674534D01*
X53138364Y-22693102D01*
X53100677Y-22704535D01*
X53055339Y-22709000D01*
X51968661Y-22709000D01*
X51923323Y-22704535D01*
X51885636Y-22693102D01*
X51850897Y-22674534D01*
X51820452Y-22649548D01*
X51795466Y-22619103D01*
X51776898Y-22584364D01*
X51765465Y-22546677D01*
X51761000Y-22501339D01*
X51761000Y-21664661D01*
X51765465Y-21619323D01*
X51776898Y-21581636D01*
X51795466Y-21546897D01*
X51820452Y-21516452D01*
X51850897Y-21491466D01*
X51885636Y-21472898D01*
X51923323Y-21461465D01*
X51968661Y-21457000D01*
X53055339Y-21457000D01*
X53100677Y-21461465D01*
X53100677Y-21461465D01*
G37*
G36*
X23128677Y-21461465D02*
X23166364Y-21472898D01*
X23201103Y-21491466D01*
X23231548Y-21516452D01*
X23256534Y-21546897D01*
X23275102Y-21581636D01*
X23286535Y-21619323D01*
X23291000Y-21664661D01*
X23291000Y-22501339D01*
X23286535Y-22546677D01*
X23275102Y-22584364D01*
X23256534Y-22619103D01*
X23231548Y-22649548D01*
X23201103Y-22674534D01*
X23166364Y-22693102D01*
X23128677Y-22704535D01*
X23083339Y-22709000D01*
X21996661Y-22709000D01*
X21951323Y-22704535D01*
X21913636Y-22693102D01*
X21878897Y-22674534D01*
X21848452Y-22649548D01*
X21823466Y-22619103D01*
X21804898Y-22584364D01*
X21793465Y-22546677D01*
X21789000Y-22501339D01*
X21789000Y-21664661D01*
X21793465Y-21619323D01*
X21804898Y-21581636D01*
X21823466Y-21546897D01*
X21848452Y-21516452D01*
X21878897Y-21491466D01*
X21913636Y-21472898D01*
X21951323Y-21461465D01*
X21996661Y-21457000D01*
X23083339Y-21457000D01*
X23128677Y-21461465D01*
X23128677Y-21461465D01*
G37*
G36*
X38114677Y-21283665D02*
X38152364Y-21295098D01*
X38187103Y-21313666D01*
X38217548Y-21338652D01*
X38242534Y-21369097D01*
X38261102Y-21403836D01*
X38272535Y-21441523D01*
X38277000Y-21486861D01*
X38277000Y-22323539D01*
X38272535Y-22368877D01*
X38261102Y-22406564D01*
X38242534Y-22441303D01*
X38217548Y-22471748D01*
X38187103Y-22496734D01*
X38152364Y-22515302D01*
X38114677Y-22526735D01*
X38069339Y-22531200D01*
X36982661Y-22531200D01*
X36937323Y-22526735D01*
X36899636Y-22515302D01*
X36864897Y-22496734D01*
X36834452Y-22471748D01*
X36809466Y-22441303D01*
X36790898Y-22406564D01*
X36779465Y-22368877D01*
X36775000Y-22323539D01*
X36775000Y-21486861D01*
X36779465Y-21441523D01*
X36790898Y-21403836D01*
X36809466Y-21369097D01*
X36834452Y-21338652D01*
X36864897Y-21313666D01*
X36899636Y-21295098D01*
X36937323Y-21283665D01*
X36982661Y-21279200D01*
X38069339Y-21279200D01*
X38114677Y-21283665D01*
X38114677Y-21283665D01*
G37*
G36*
X28261000Y-22044000D02*
X26659000Y-22044000D01*
X26659000Y-21342000D01*
X28261000Y-21342000D01*
X28261000Y-22044000D01*
X28261000Y-22044000D01*
G37*
G36*
X33661000Y-22044000D02*
X32059000Y-22044000D01*
X32059000Y-21342000D01*
X33661000Y-21342000D01*
X33661000Y-22044000D01*
X33661000Y-22044000D01*
G37*
G36*
X55823000Y-21289000D02*
X54921000Y-21289000D01*
X54921000Y-20287000D01*
X55823000Y-20287000D01*
X55823000Y-21289000D01*
X55823000Y-21289000D01*
G37*
G36*
X57723000Y-21289000D02*
X56821000Y-21289000D01*
X56821000Y-20287000D01*
X57723000Y-20287000D01*
X57723000Y-21289000D01*
X57723000Y-21289000D01*
G37*
G36*
X33661000Y-20774000D02*
X32059000Y-20774000D01*
X32059000Y-20072000D01*
X33661000Y-20072000D01*
X33661000Y-20774000D01*
X33661000Y-20774000D01*
G37*
G36*
X28261000Y-20774000D02*
X26659000Y-20774000D01*
X26659000Y-20072000D01*
X28261000Y-20072000D01*
X28261000Y-20774000D01*
X28261000Y-20774000D01*
G37*
G36*
X60593677Y-19462265D02*
X60631364Y-19473698D01*
X60666103Y-19492266D01*
X60696548Y-19517252D01*
X60721534Y-19547697D01*
X60740102Y-19582436D01*
X60751535Y-19620123D01*
X60756000Y-19665461D01*
X60756000Y-20502139D01*
X60751535Y-20547477D01*
X60740102Y-20585164D01*
X60721534Y-20619903D01*
X60696548Y-20650348D01*
X60666103Y-20675334D01*
X60631364Y-20693902D01*
X60593677Y-20705335D01*
X60548339Y-20709800D01*
X59461661Y-20709800D01*
X59416323Y-20705335D01*
X59378636Y-20693902D01*
X59343897Y-20675334D01*
X59313452Y-20650348D01*
X59288466Y-20619903D01*
X59269898Y-20585164D01*
X59258465Y-20547477D01*
X59254000Y-20502139D01*
X59254000Y-19665461D01*
X59258465Y-19620123D01*
X59269898Y-19582436D01*
X59288466Y-19547697D01*
X59313452Y-19517252D01*
X59343897Y-19492266D01*
X59378636Y-19473698D01*
X59416323Y-19462265D01*
X59461661Y-19457800D01*
X60548339Y-19457800D01*
X60593677Y-19462265D01*
X60593677Y-19462265D01*
G37*
G36*
X53100677Y-19411465D02*
X53138364Y-19422898D01*
X53173103Y-19441466D01*
X53203548Y-19466452D01*
X53228534Y-19496897D01*
X53247102Y-19531636D01*
X53258535Y-19569323D01*
X53263000Y-19614661D01*
X53263000Y-20451339D01*
X53258535Y-20496677D01*
X53247102Y-20534364D01*
X53228534Y-20569103D01*
X53203548Y-20599548D01*
X53173103Y-20624534D01*
X53138364Y-20643102D01*
X53100677Y-20654535D01*
X53055339Y-20659000D01*
X51968661Y-20659000D01*
X51923323Y-20654535D01*
X51885636Y-20643102D01*
X51850897Y-20624534D01*
X51820452Y-20599548D01*
X51795466Y-20569103D01*
X51776898Y-20534364D01*
X51765465Y-20496677D01*
X51761000Y-20451339D01*
X51761000Y-19614661D01*
X51765465Y-19569323D01*
X51776898Y-19531636D01*
X51795466Y-19496897D01*
X51820452Y-19466452D01*
X51850897Y-19441466D01*
X51885636Y-19422898D01*
X51923323Y-19411465D01*
X51968661Y-19407000D01*
X53055339Y-19407000D01*
X53100677Y-19411465D01*
X53100677Y-19411465D01*
G37*
G36*
X68086677Y-19411465D02*
X68124364Y-19422898D01*
X68159103Y-19441466D01*
X68189548Y-19466452D01*
X68214534Y-19496897D01*
X68233102Y-19531636D01*
X68244535Y-19569323D01*
X68249000Y-19614661D01*
X68249000Y-20451339D01*
X68244535Y-20496677D01*
X68233102Y-20534364D01*
X68214534Y-20569103D01*
X68189548Y-20599548D01*
X68159103Y-20624534D01*
X68124364Y-20643102D01*
X68086677Y-20654535D01*
X68041339Y-20659000D01*
X66954661Y-20659000D01*
X66909323Y-20654535D01*
X66871636Y-20643102D01*
X66836897Y-20624534D01*
X66806452Y-20599548D01*
X66781466Y-20569103D01*
X66762898Y-20534364D01*
X66751465Y-20496677D01*
X66747000Y-20451339D01*
X66747000Y-19614661D01*
X66751465Y-19569323D01*
X66762898Y-19531636D01*
X66781466Y-19496897D01*
X66806452Y-19466452D01*
X66836897Y-19441466D01*
X66871636Y-19422898D01*
X66909323Y-19411465D01*
X66954661Y-19407000D01*
X68041339Y-19407000D01*
X68086677Y-19411465D01*
X68086677Y-19411465D01*
G37*
G36*
X23128677Y-19411465D02*
X23166364Y-19422898D01*
X23201103Y-19441466D01*
X23231548Y-19466452D01*
X23256534Y-19496897D01*
X23275102Y-19531636D01*
X23286535Y-19569323D01*
X23291000Y-19614661D01*
X23291000Y-20451339D01*
X23286535Y-20496677D01*
X23275102Y-20534364D01*
X23256534Y-20569103D01*
X23231548Y-20599548D01*
X23201103Y-20624534D01*
X23166364Y-20643102D01*
X23128677Y-20654535D01*
X23083339Y-20659000D01*
X21996661Y-20659000D01*
X21951323Y-20654535D01*
X21913636Y-20643102D01*
X21878897Y-20624534D01*
X21848452Y-20599548D01*
X21823466Y-20569103D01*
X21804898Y-20534364D01*
X21793465Y-20496677D01*
X21789000Y-20451339D01*
X21789000Y-19614661D01*
X21793465Y-19569323D01*
X21804898Y-19531636D01*
X21823466Y-19496897D01*
X21848452Y-19466452D01*
X21878897Y-19441466D01*
X21913636Y-19422898D01*
X21951323Y-19411465D01*
X21996661Y-19407000D01*
X23083339Y-19407000D01*
X23128677Y-19411465D01*
X23128677Y-19411465D01*
G37*
G36*
X38114677Y-19233665D02*
X38152364Y-19245098D01*
X38187103Y-19263666D01*
X38217548Y-19288652D01*
X38242534Y-19319097D01*
X38261102Y-19353836D01*
X38272535Y-19391523D01*
X38277000Y-19436861D01*
X38277000Y-20273539D01*
X38272535Y-20318877D01*
X38261102Y-20356564D01*
X38242534Y-20391303D01*
X38217548Y-20421748D01*
X38187103Y-20446734D01*
X38152364Y-20465302D01*
X38114677Y-20476735D01*
X38069339Y-20481200D01*
X36982661Y-20481200D01*
X36937323Y-20476735D01*
X36899636Y-20465302D01*
X36864897Y-20446734D01*
X36834452Y-20421748D01*
X36809466Y-20391303D01*
X36790898Y-20356564D01*
X36779465Y-20318877D01*
X36775000Y-20273539D01*
X36775000Y-19436861D01*
X36779465Y-19391523D01*
X36790898Y-19353836D01*
X36809466Y-19319097D01*
X36834452Y-19288652D01*
X36864897Y-19263666D01*
X36899636Y-19245098D01*
X36937323Y-19233665D01*
X36982661Y-19229200D01*
X38069339Y-19229200D01*
X38114677Y-19233665D01*
X38114677Y-19233665D01*
G37*
G36*
X28261000Y-19504000D02*
X26659000Y-19504000D01*
X26659000Y-18802000D01*
X28261000Y-18802000D01*
X28261000Y-19504000D01*
X28261000Y-19504000D01*
G37*
G36*
X33661000Y-19504000D02*
X32059000Y-19504000D01*
X32059000Y-18802000D01*
X33661000Y-18802000D01*
X33661000Y-19504000D01*
X33661000Y-19504000D01*
G37*
G36*
X56773000Y-19289000D02*
X55871000Y-19289000D01*
X55871000Y-18287000D01*
X56773000Y-18287000D01*
X56773000Y-19289000D01*
X56773000Y-19289000D01*
G37*
G36*
X67791981Y-16537468D02*
X67974150Y-16612925D01*
X68138103Y-16722475D01*
X68277525Y-16861897D01*
X68387075Y-17025850D01*
X68462532Y-17208019D01*
X68501000Y-17401410D01*
X68501000Y-17598590D01*
X68462532Y-17791981D01*
X68387075Y-17974150D01*
X68277525Y-18138103D01*
X68138103Y-18277525D01*
X67974150Y-18387075D01*
X67791981Y-18462532D01*
X67598590Y-18501000D01*
X67401410Y-18501000D01*
X67208019Y-18462532D01*
X67025850Y-18387075D01*
X66861897Y-18277525D01*
X66722475Y-18138103D01*
X66612925Y-17974150D01*
X66537468Y-17791981D01*
X66499000Y-17598590D01*
X66499000Y-17401410D01*
X66537468Y-17208019D01*
X66612925Y-17025850D01*
X66722475Y-16861897D01*
X66861897Y-16722475D01*
X67025850Y-16612925D01*
X67208019Y-16537468D01*
X67401410Y-16499000D01*
X67598590Y-16499000D01*
X67791981Y-16537468D01*
X67791981Y-16537468D01*
G37*
G36*
X22791981Y-16537468D02*
X22974150Y-16612925D01*
X23138103Y-16722475D01*
X23277525Y-16861897D01*
X23387075Y-17025850D01*
X23462532Y-17208019D01*
X23501000Y-17401410D01*
X23501000Y-17598590D01*
X23462532Y-17791981D01*
X23387075Y-17974150D01*
X23277525Y-18138103D01*
X23138103Y-18277525D01*
X22974150Y-18387075D01*
X22791981Y-18462532D01*
X22598590Y-18501000D01*
X22401410Y-18501000D01*
X22208019Y-18462532D01*
X22025850Y-18387075D01*
X21861897Y-18277525D01*
X21722475Y-18138103D01*
X21612925Y-17974150D01*
X21537468Y-17791981D01*
X21499000Y-17598590D01*
X21499000Y-17401410D01*
X21537468Y-17208019D01*
X21612925Y-17025850D01*
X21722475Y-16861897D01*
X21861897Y-16722475D01*
X22025850Y-16612925D01*
X22208019Y-16537468D01*
X22401410Y-16499000D01*
X22598590Y-16499000D01*
X22791981Y-16537468D01*
X22791981Y-16537468D01*
G37*
G36*
X37791981Y-16537468D02*
X37974150Y-16612925D01*
X38138103Y-16722475D01*
X38277525Y-16861897D01*
X38387075Y-17025850D01*
X38462532Y-17208019D01*
X38501000Y-17401410D01*
X38501000Y-17598590D01*
X38462532Y-17791981D01*
X38387075Y-17974150D01*
X38277525Y-18138103D01*
X38138103Y-18277525D01*
X37974150Y-18387075D01*
X37791981Y-18462532D01*
X37598590Y-18501000D01*
X37401410Y-18501000D01*
X37208019Y-18462532D01*
X37025850Y-18387075D01*
X36861897Y-18277525D01*
X36722475Y-18138103D01*
X36612925Y-17974150D01*
X36537468Y-17791981D01*
X36499000Y-17598590D01*
X36499000Y-17401410D01*
X36537468Y-17208019D01*
X36612925Y-17025850D01*
X36722475Y-16861897D01*
X36861897Y-16722475D01*
X37025850Y-16612925D01*
X37208019Y-16537468D01*
X37401410Y-16499000D01*
X37598590Y-16499000D01*
X37791981Y-16537468D01*
X37791981Y-16537468D01*
G37*
G36*
X52791981Y-16537468D02*
X52974150Y-16612925D01*
X53138103Y-16722475D01*
X53277525Y-16861897D01*
X53387075Y-17025850D01*
X53462532Y-17208019D01*
X53501000Y-17401410D01*
X53501000Y-17598590D01*
X53462532Y-17791981D01*
X53387075Y-17974150D01*
X53277525Y-18138103D01*
X53138103Y-18277525D01*
X52974150Y-18387075D01*
X52791981Y-18462532D01*
X52598590Y-18501000D01*
X52401410Y-18501000D01*
X52208019Y-18462532D01*
X52025850Y-18387075D01*
X51861897Y-18277525D01*
X51722475Y-18138103D01*
X51612925Y-17974150D01*
X51537468Y-17791981D01*
X51499000Y-17598590D01*
X51499000Y-17401410D01*
X51537468Y-17208019D01*
X51612925Y-17025850D01*
X51722475Y-16861897D01*
X51861897Y-16722475D01*
X52025850Y-16612925D01*
X52208019Y-16537468D01*
X52401410Y-16499000D01*
X52598590Y-16499000D01*
X52791981Y-16537468D01*
X52791981Y-16537468D01*
G37*
G36*
X60291981Y-16537468D02*
X60474150Y-16612925D01*
X60638103Y-16722475D01*
X60777525Y-16861897D01*
X60887075Y-17025850D01*
X60962532Y-17208019D01*
X61001000Y-17401410D01*
X61001000Y-17598590D01*
X60962532Y-17791981D01*
X60887075Y-17974150D01*
X60777525Y-18138103D01*
X60638103Y-18277525D01*
X60474150Y-18387075D01*
X60291981Y-18462532D01*
X60098590Y-18501000D01*
X59901410Y-18501000D01*
X59708019Y-18462532D01*
X59525850Y-18387075D01*
X59361897Y-18277525D01*
X59222475Y-18138103D01*
X59112925Y-17974150D01*
X59037468Y-17791981D01*
X58999000Y-17598590D01*
X58999000Y-17401410D01*
X59037468Y-17208019D01*
X59112925Y-17025850D01*
X59222475Y-16861897D01*
X59361897Y-16722475D01*
X59525850Y-16612925D01*
X59708019Y-16537468D01*
X59901410Y-16499000D01*
X60098590Y-16499000D01*
X60291981Y-16537468D01*
X60291981Y-16537468D01*
G37*
G36*
X28261000Y-18234000D02*
X26659000Y-18234000D01*
X26659000Y-17532000D01*
X28261000Y-17532000D01*
X28261000Y-18234000D01*
X28261000Y-18234000D01*
G37*
G36*
X33661000Y-18234000D02*
X32059000Y-18234000D01*
X32059000Y-17532000D01*
X33661000Y-17532000D01*
X33661000Y-18234000D01*
X33661000Y-18234000D01*
G37*
M02*
