G04 #@! TF.GenerationSoftware,KiCad,Pcbnew,5.0.1*
G04 #@! TF.CreationDate,2018-11-18T18:28:25+01:00*
G04 #@! TF.ProjectId,LED-Cube_MK3,4C45442D437562655F4D4B332E6B6963,rev?*
G04 #@! TF.SameCoordinates,Original*
G04 #@! TF.FileFunction,Legend,Bot*
G04 #@! TF.FilePolarity,Positive*
%FSLAX46Y46*%
G04 Gerber Fmt 4.6, Leading zero omitted, Abs format (unit mm)*
G04 Created by KiCad (PCBNEW 5.0.1) date So 18 Nov 2018 18:28:25 CET*
%MOMM*%
%LPD*%
G01*
G04 APERTURE LIST*
%ADD10C,0.150000*%
%ADD11C,0.100000*%
G04 APERTURE END LIST*
D10*
G04 #@! TO.C,U3*
X20000000Y-15000000D02*
X70000000Y-15000000D01*
X70000000Y-15000000D02*
X70000000Y-65000000D01*
X70000000Y-65000000D02*
X20000000Y-65000000D01*
X20000000Y-65000000D02*
X20000000Y-15000000D01*
D11*
X45457142Y-39171428D02*
X45457142Y-39657142D01*
X45428571Y-39714285D01*
X45400000Y-39742857D01*
X45342857Y-39771428D01*
X45228571Y-39771428D01*
X45171428Y-39742857D01*
X45142857Y-39714285D01*
X45114285Y-39657142D01*
X45114285Y-39171428D01*
X44885714Y-39171428D02*
X44514285Y-39171428D01*
X44714285Y-39400000D01*
X44628571Y-39400000D01*
X44571428Y-39428571D01*
X44542857Y-39457142D01*
X44514285Y-39514285D01*
X44514285Y-39657142D01*
X44542857Y-39714285D01*
X44571428Y-39742857D01*
X44628571Y-39771428D01*
X44800000Y-39771428D01*
X44857142Y-39742857D01*
X44885714Y-39714285D01*
D10*
X25380952Y-47571428D02*
X24619047Y-47571428D01*
X25000000Y-47952380D02*
X25000000Y-47190476D01*
X25380952Y-60071428D02*
X24619047Y-60071428D01*
X25000000Y-60452380D02*
X25000000Y-59690476D01*
X37880952Y-60071428D02*
X37119047Y-60071428D01*
X37500000Y-60452380D02*
X37500000Y-59690476D01*
X52880952Y-60071428D02*
X52119047Y-60071428D01*
X52500000Y-60452380D02*
X52500000Y-59690476D01*
X65380952Y-60071428D02*
X64619047Y-60071428D01*
X65000000Y-60452380D02*
X65000000Y-59690476D01*
X65380952Y-47571428D02*
X64619047Y-47571428D01*
X65000000Y-47952380D02*
X65000000Y-47190476D01*
X50380952Y-45071428D02*
X49619047Y-45071428D01*
X50000000Y-45452380D02*
X50000000Y-44690476D01*
X40380952Y-45071428D02*
X39619047Y-45071428D01*
X40000000Y-45452380D02*
X40000000Y-44690476D01*
X37880952Y-20071428D02*
X37119047Y-20071428D01*
X37500000Y-20452380D02*
X37500000Y-19690476D01*
X25380952Y-32571428D02*
X24619047Y-32571428D01*
X25000000Y-32952380D02*
X25000000Y-32190476D01*
X40380952Y-35071428D02*
X39619047Y-35071428D01*
X40000000Y-35452380D02*
X40000000Y-34690476D01*
X65380952Y-20071428D02*
X64619047Y-20071428D01*
X65000000Y-20452380D02*
X65000000Y-19690476D01*
X25380952Y-20071428D02*
X24619047Y-20071428D01*
X25000000Y-20452380D02*
X25000000Y-19690476D01*
X50380952Y-35071428D02*
X49619047Y-35071428D01*
X50000000Y-35452380D02*
X50000000Y-34690476D01*
X52880952Y-20071428D02*
X52119047Y-20071428D01*
X52500000Y-20452380D02*
X52500000Y-19690476D01*
X65380952Y-32571428D02*
X64619047Y-32571428D01*
X65000000Y-32952380D02*
X65000000Y-32190476D01*
X60380952Y-20071428D02*
X59619047Y-20071428D01*
X67880952Y-52571428D02*
X67119047Y-52571428D01*
X30380952Y-60071428D02*
X29619047Y-60071428D01*
X25380952Y-25071428D02*
X24619047Y-25071428D01*
G04 #@! TD*
M02*
